%TF.GenerationSoftware,KiCad,Pcbnew,(6.0.2)*%
%TF.CreationDate,2022-08-25T15:18:49+08:00*%
%TF.ProjectId,ESP32S3_LCD_Card,45535033-3253-4335-9f4c-43445f436172,rev?*%
%TF.SameCoordinates,Original*%
%TF.FileFunction,Copper,L2,Bot*%
%TF.FilePolarity,Positive*%
%FSLAX46Y46*%
G04 Gerber Fmt 4.6, Leading zero omitted, Abs format (unit mm)*
G04 Created by KiCad (PCBNEW (6.0.2)) date 2022-08-25 15:18:49*
%MOMM*%
%LPD*%
G01*
G04 APERTURE LIST*
%TA.AperFunction,ComponentPad*%
%ADD10R,1.575000X1.575000*%
%TD*%
%TA.AperFunction,ComponentPad*%
%ADD11C,1.575000*%
%TD*%
%TA.AperFunction,ComponentPad*%
%ADD12O,1.200000X2.000000*%
%TD*%
%TA.AperFunction,ComponentPad*%
%ADD13O,1.200000X1.800000*%
%TD*%
%TA.AperFunction,ComponentPad*%
%ADD14C,1.524000*%
%TD*%
%TA.AperFunction,SMDPad,CuDef*%
%ADD15R,0.800000X0.900000*%
%TD*%
%TA.AperFunction,SMDPad,CuDef*%
%ADD16R,0.900000X0.800000*%
%TD*%
%TA.AperFunction,SMDPad,CuDef*%
%ADD17R,0.700000X1.050000*%
%TD*%
%TA.AperFunction,SMDPad,CuDef*%
%ADD18R,1.050000X0.700000*%
%TD*%
%TA.AperFunction,ViaPad*%
%ADD19C,0.800000*%
%TD*%
%TA.AperFunction,Conductor*%
%ADD20C,0.500000*%
%TD*%
%TA.AperFunction,Conductor*%
%ADD21C,0.250000*%
%TD*%
%TA.AperFunction,Conductor*%
%ADD22C,0.200000*%
%TD*%
G04 APERTURE END LIST*
D10*
%TO.P,GND,1,1*%
%TO.N,GND*%
X127776822Y-118812991D03*
D11*
%TO.P,GND,2,2*%
X125236822Y-118812991D03*
%TO.P,GND,3,3*%
X122696822Y-118812991D03*
%TD*%
D12*
%TO.P,USB,1,EH*%
%TO.N,unconnected-(USB1-Pad1)*%
X126916822Y-137172991D03*
X135556822Y-137172991D03*
D13*
X126916822Y-141323991D03*
X135556822Y-141323991D03*
%TD*%
%TO.P,UART,1,EH*%
%TO.N,unconnected-(UART1-Pad1)*%
X146166822Y-141323991D03*
D12*
X146166822Y-137172991D03*
X154806822Y-137172991D03*
D13*
X154806822Y-141323991D03*
%TD*%
D14*
%TO.P,H1,1,1*%
%TO.N,/GPIO12*%
X119486822Y-116296991D03*
%TO.P,H1,2,2*%
%TO.N,/GPIO11*%
X119486822Y-113756991D03*
%TO.P,H1,3,3*%
%TO.N,/GPIO10*%
X119486822Y-111216991D03*
%TO.P,H1,4,4*%
%TO.N,/GPIO9*%
X119486822Y-108676991D03*
%TO.P,H1,5,5*%
%TO.N,/GPIO46*%
X119486822Y-106136991D03*
%TO.P,H1,6,6*%
%TO.N,/GPIO3*%
X119486822Y-103596991D03*
%TO.P,H1,7,7*%
%TO.N,/GPIO20*%
X119486822Y-101056991D03*
%TO.P,H1,8,8*%
%TO.N,/GPIO19*%
X119486822Y-98516991D03*
%TO.P,H1,9,9*%
%TO.N,/GPIO8*%
X119486822Y-95976991D03*
%TO.P,H1,10,10*%
%TO.N,/GPIO18*%
X119486822Y-93436991D03*
%TO.P,H1,11,11*%
%TO.N,/GPIO17*%
X119486822Y-90896991D03*
%TO.P,H1,12,12*%
%TO.N,/GPIO16*%
X119486822Y-88356991D03*
%TO.P,H1,13,13*%
%TO.N,/GPIO15*%
X119486822Y-85816991D03*
%TO.P,H1,14,14*%
%TO.N,/GPIO7*%
X119486822Y-83276991D03*
%TO.P,H1,15,15*%
%TO.N,/GPIO6*%
X119486822Y-80736991D03*
%TO.P,H1,16,16*%
%TO.N,/GPIO5*%
X119486822Y-78196991D03*
%TO.P,H1,17,17*%
%TO.N,/GPIO4*%
X119486822Y-75656991D03*
%TD*%
D10*
%TO.P,3V3,1,1*%
%TO.N,VCC*%
X127758593Y-121762991D03*
D11*
%TO.P,3V3,2,2*%
X125218593Y-121762991D03*
%TO.P,3V3,3,3*%
X122678593Y-121762991D03*
%TD*%
D14*
%TO.P,H2,1,1*%
%TO.N,/GPIO13*%
X161417000Y-116197358D03*
%TO.P,H2,2,2*%
%TO.N,/GPIO14*%
X161417000Y-113657358D03*
%TO.P,H2,3,3*%
%TO.N,/GPIO21*%
X161417000Y-111117358D03*
%TO.P,H2,4,4*%
%TO.N,/GPIO47*%
X161417000Y-108577358D03*
%TO.P,H2,5,5*%
%TO.N,/GPIO48*%
X161417000Y-106037358D03*
%TO.P,H2,6,6*%
%TO.N,/GPIO45*%
X161417000Y-103497358D03*
%TO.P,H2,7,7*%
%TO.N,/GPIO0*%
X161417000Y-100957358D03*
%TO.P,H2,8,8*%
%TO.N,/GPIO35*%
X161417000Y-98417358D03*
%TO.P,H2,9,9*%
%TO.N,/GPIO36*%
X161417000Y-95877358D03*
%TO.P,H2,10,10*%
%TO.N,/GPIO37*%
X161417000Y-93337358D03*
%TO.P,H2,11,11*%
%TO.N,/GPIO38*%
X161417000Y-90797358D03*
%TO.P,H2,12,12*%
%TO.N,/GPIO39*%
X161417000Y-88257358D03*
%TO.P,H2,13,13*%
%TO.N,/GPIO40*%
X161417000Y-85717358D03*
%TO.P,H2,14,14*%
%TO.N,/GPIO41*%
X161417000Y-83177358D03*
%TO.P,H2,15,15*%
%TO.N,/GPIO42*%
X161417000Y-80637358D03*
%TO.P,H2,16,16*%
%TO.N,/GPIO2*%
X161417000Y-78097358D03*
%TO.P,H2,17,17*%
%TO.N,/GPIO1*%
X161417000Y-75557358D03*
%TD*%
D15*
%TO.P,C5,1,1*%
%TO.N,/GPIO42*%
X135512582Y-128451669D03*
%TO.P,C5,2,2*%
%TO.N,GND*%
X134112582Y-128451669D03*
%TD*%
%TO.P,C7,1,1*%
%TO.N,/GPIO2*%
X144886822Y-128462991D03*
%TO.P,C7,2,2*%
%TO.N,GND*%
X143486822Y-128462991D03*
%TD*%
D16*
%TO.P,C11,1,1*%
%TO.N,/CHIP_PU*%
X161236822Y-138123435D03*
%TO.P,C11,2,2*%
%TO.N,GND*%
X161236822Y-139523435D03*
%TD*%
D17*
%TO.P,BOOT,1,1*%
%TO.N,/GPIO0*%
X121161822Y-137912991D03*
%TO.P,BOOT,2,2*%
X121161822Y-142112991D03*
%TO.P,BOOT,3,3*%
%TO.N,GND*%
X123311822Y-137912991D03*
%TO.P,BOOT,4,4*%
%TO.N,unconnected-(BOOT1-Pad4)*%
X123311822Y-142112991D03*
%TD*%
%TO.P,RES,1,1*%
%TO.N,unconnected-(RES1-Pad1)*%
X159311822Y-142362991D03*
%TO.P,RES,2,2*%
%TO.N,/CHIP_PU*%
X159311822Y-138162991D03*
%TO.P,RES,3,3*%
%TO.N,GND*%
X157161822Y-142362991D03*
%TO.P,RES,4,4*%
%TO.N,unconnected-(RES1-Pad4)*%
X157161822Y-138162991D03*
%TD*%
D16*
%TO.P,C10,1,1*%
%TO.N,/GPIO0*%
X119286786Y-137908195D03*
%TO.P,C10,2,2*%
%TO.N,GND*%
X119286786Y-139308195D03*
%TD*%
D18*
%TO.P,KEY2,1,1*%
%TO.N,unconnected-(KEY2-Pad1)*%
X142086822Y-132287991D03*
%TO.P,KEY2,2,2*%
%TO.N,/GPIO2*%
X146286822Y-132287991D03*
%TO.P,KEY2,3,3*%
%TO.N,GND*%
X142086822Y-130137991D03*
%TO.P,KEY2,4,4*%
%TO.N,unconnected-(KEY2-Pad4)*%
X146286822Y-130137991D03*
%TD*%
%TO.P,KEY1,1,1*%
%TO.N,unconnected-(KEY1-Pad1)*%
X132686822Y-132237991D03*
%TO.P,KEY1,2,2*%
%TO.N,/GPIO42*%
X136886822Y-132237991D03*
%TO.P,KEY1,3,3*%
%TO.N,GND*%
X132686822Y-130087991D03*
%TO.P,KEY1,4,4*%
%TO.N,unconnected-(KEY1-Pad4)*%
X136886822Y-130087991D03*
%TD*%
D19*
%TO.N,VCC*%
X123386822Y-80812991D03*
X122486822Y-80812991D03*
X124486822Y-124112991D03*
X124486822Y-123212991D03*
X123586822Y-124112991D03*
X123386822Y-79912991D03*
X123586822Y-123212991D03*
X122486822Y-79912991D03*
%TO.N,/CHIP_PU*%
X133386822Y-77812991D03*
X161237353Y-136512991D03*
X155194000Y-126238000D03*
%TO.N,/GPIO4*%
X133786822Y-79112991D03*
X144786822Y-113362991D03*
%TO.N,/GPIO5*%
X143586822Y-113462991D03*
X133686822Y-80412991D03*
%TO.N,/GPIO6*%
X135136067Y-82375240D03*
X142486822Y-113362991D03*
%TO.N,/GPIO7*%
X141386822Y-113262991D03*
X134986822Y-83862991D03*
%TO.N,/GPIO15*%
X134236822Y-85412991D03*
X139886822Y-113262991D03*
%TO.N,/GPIO16*%
X134086822Y-86962991D03*
X138886822Y-99862991D03*
%TO.N,/GPIO19*%
X129986822Y-133762991D03*
X129486822Y-90528173D03*
%TO.N,/GPIO20*%
X129986822Y-91812991D03*
X131486822Y-133762991D03*
%TO.N,/GPIO14*%
X156260800Y-107746815D03*
%TO.N,/GPIO21*%
X156464000Y-106426000D03*
%TO.N,/GPIO47*%
X156459701Y-105414299D03*
%TO.N,/GPIO0*%
X152907736Y-92292077D03*
X156686822Y-134712991D03*
%TO.N,/GPIO42*%
X150886822Y-81712991D03*
%TO.N,/GPIO2*%
X151786822Y-77812991D03*
%TO.N,GND*%
X121020000Y-76073000D03*
X143986822Y-82412991D03*
X124686822Y-114512991D03*
X127000000Y-75946000D03*
X139413000Y-136895000D03*
X138486822Y-132512991D03*
X141732000Y-127878000D03*
X123786822Y-99012991D03*
X138513000Y-136895000D03*
X139986822Y-79512991D03*
X128086822Y-128912991D03*
X126486822Y-115412991D03*
X156580000Y-120164000D03*
X158496000Y-80656000D03*
X143013000Y-136895000D03*
X125200000Y-75946000D03*
X154178000Y-100330000D03*
X140586822Y-119412991D03*
X157480000Y-117464000D03*
X157480000Y-115664000D03*
X150002072Y-104923489D03*
X141213000Y-140440000D03*
X118886822Y-134112991D03*
X151003000Y-124333000D03*
X139086822Y-78612991D03*
X146050000Y-114427000D03*
X123786822Y-99912991D03*
X126286822Y-128912991D03*
X134482000Y-135128000D03*
X159280000Y-119264000D03*
X157480000Y-116564000D03*
X126286822Y-128012991D03*
X136271000Y-114173000D03*
X145796000Y-112014000D03*
X126486822Y-114512991D03*
X148336000Y-140335000D03*
X121920000Y-76073000D03*
X134786822Y-108712991D03*
X139986822Y-77712991D03*
X139413000Y-138695000D03*
X127635000Y-82206500D03*
X159396000Y-78856000D03*
X143286822Y-120312991D03*
X126989000Y-135382000D03*
X119786822Y-135012991D03*
X132886822Y-125912991D03*
X124576000Y-142748000D03*
X143013000Y-140440000D03*
X139386822Y-130712991D03*
X124968000Y-82296000D03*
X156696000Y-80656000D03*
X159280000Y-118364000D03*
X139986822Y-78612991D03*
X120686822Y-125312991D03*
X159247000Y-132715000D03*
X125476000Y-142748000D03*
X157480000Y-119264000D03*
X142113000Y-142240000D03*
X148086822Y-115912991D03*
X126486822Y-116312991D03*
X126486822Y-99012991D03*
X119786822Y-123512991D03*
X120686822Y-126212991D03*
X148086822Y-119912991D03*
X140586822Y-118512991D03*
X140886822Y-79512991D03*
X131986822Y-125912991D03*
X149945776Y-108273129D03*
X143986822Y-84212991D03*
X155067000Y-133604000D03*
X146039000Y-75819000D03*
X150286822Y-129612991D03*
X119786822Y-134112991D03*
X129986822Y-113812991D03*
X118886822Y-126212991D03*
X135371000Y-114173000D03*
X147186822Y-120812991D03*
X134786822Y-90012991D03*
X142386822Y-119412991D03*
X143286822Y-118512991D03*
X119786822Y-133212991D03*
X154664000Y-74792000D03*
X129667000Y-140716000D03*
X136398000Y-104002000D03*
X120686822Y-124412991D03*
X128524000Y-82206500D03*
X145786822Y-77712991D03*
X158286822Y-135312991D03*
X156580000Y-116564000D03*
X135371000Y-119126000D03*
X148086822Y-116812991D03*
X152770000Y-138811000D03*
X145796000Y-111114000D03*
X162052000Y-123168000D03*
X136271000Y-119126000D03*
X149102072Y-104923489D03*
X145796000Y-110214000D03*
X139413000Y-137795000D03*
X139413000Y-142240000D03*
X152643000Y-140335000D03*
X148486822Y-130512991D03*
X127186822Y-128012991D03*
X118886822Y-123512991D03*
X161290000Y-141478000D03*
X148086822Y-114512991D03*
X132086822Y-106912991D03*
X139386822Y-133412991D03*
X135586822Y-76212991D03*
X148082000Y-98806000D03*
X141786822Y-78612991D03*
X119786822Y-125312991D03*
X151003000Y-125233000D03*
X130175000Y-94499000D03*
X143986822Y-77712991D03*
X144886822Y-82412991D03*
X148086822Y-119012991D03*
X126486822Y-99912991D03*
X125586822Y-115412991D03*
X125586822Y-99912991D03*
X125586822Y-98112991D03*
X151754000Y-135001000D03*
X139386822Y-128912991D03*
X157596000Y-78856000D03*
X148082000Y-97906000D03*
X133886822Y-108712991D03*
X141732000Y-128778000D03*
X144886822Y-78612991D03*
X153924000Y-110744000D03*
X121285000Y-79651000D03*
X141786822Y-77712991D03*
X130886822Y-113812991D03*
X156580000Y-117464000D03*
X140313000Y-140440000D03*
X134786822Y-89112991D03*
X132886822Y-125012991D03*
X140286822Y-132512991D03*
X153924000Y-111644000D03*
X157596000Y-79756000D03*
X150286822Y-130512991D03*
X158380000Y-118364000D03*
X140462000Y-110998000D03*
X142386822Y-118512991D03*
X124686822Y-99912991D03*
X158380000Y-116564000D03*
X139386822Y-132512991D03*
X153543000Y-140335000D03*
X119786822Y-124412991D03*
X148086822Y-112712991D03*
X118886822Y-135012991D03*
X156580000Y-115664000D03*
X158380000Y-120164000D03*
X134786822Y-106912991D03*
X156464000Y-75692000D03*
X147186822Y-119912991D03*
X130175000Y-95399000D03*
X133858000Y-138811000D03*
X143986822Y-78612991D03*
X144886822Y-84212991D03*
X123063000Y-131826000D03*
X121285000Y-78751000D03*
X153670000Y-138811000D03*
X156580000Y-118364000D03*
X142386822Y-120312991D03*
X135382000Y-135128000D03*
X125586822Y-114512991D03*
X143986822Y-83312991D03*
X128767000Y-140716000D03*
X147186822Y-113612991D03*
X140462000Y-97906000D03*
X156464000Y-102108000D03*
X139086822Y-79512991D03*
X139413000Y-140440000D03*
X127186822Y-128912991D03*
X134786822Y-90912991D03*
X134686822Y-76212991D03*
X132886822Y-126812991D03*
X148086822Y-113612991D03*
X148486822Y-129612991D03*
X132958000Y-138811000D03*
X140886822Y-78612991D03*
X136398000Y-104902000D03*
X138486822Y-133412991D03*
X141486822Y-119412991D03*
X139086822Y-77712991D03*
X124686822Y-115412991D03*
X158286822Y-136212991D03*
X149945776Y-102756075D03*
X156464000Y-101208000D03*
X141486822Y-120312991D03*
X156580000Y-119264000D03*
X130175000Y-93599000D03*
X162052000Y-124968000D03*
X159396000Y-79756000D03*
X159280000Y-120164000D03*
X154167000Y-133604000D03*
X138513000Y-140440000D03*
X147186822Y-119012991D03*
X138486822Y-128912991D03*
X159396000Y-80656000D03*
X133886822Y-90012991D03*
X149045776Y-108273129D03*
X132986822Y-106912991D03*
X154664000Y-75692000D03*
X158380000Y-115664000D03*
X158286822Y-134412991D03*
X157480000Y-118364000D03*
X125586822Y-99012991D03*
X132086822Y-108712991D03*
X155564000Y-75692000D03*
X156696000Y-78856000D03*
X142113000Y-138695000D03*
X148086822Y-120812991D03*
X123786822Y-115412991D03*
X131986822Y-125012991D03*
X142113000Y-140440000D03*
X132986822Y-107812991D03*
X145786822Y-78612991D03*
X141213000Y-136895000D03*
X158380000Y-119264000D03*
X146039000Y-133858000D03*
X127878000Y-138811000D03*
X158380000Y-117464000D03*
X140462000Y-110098000D03*
X123063000Y-130926000D03*
X144886822Y-83312991D03*
X143286822Y-119412991D03*
X121285000Y-77851000D03*
X149045776Y-102756075D03*
X134686822Y-75312991D03*
X160147000Y-132715000D03*
X133096000Y-140716000D03*
X155564000Y-74792000D03*
X125586822Y-116312991D03*
X129986822Y-114712991D03*
X161290000Y-142378000D03*
X130886822Y-115612991D03*
X138486822Y-129812991D03*
X159186822Y-135312991D03*
X162052000Y-124068000D03*
X128778000Y-138811000D03*
X123786822Y-114512991D03*
X142113000Y-136895000D03*
X132086822Y-107812991D03*
X147186822Y-115912991D03*
X161152000Y-123168000D03*
X130886822Y-114712991D03*
X142113000Y-137795000D03*
X146939000Y-133858000D03*
X158380000Y-114764000D03*
X157596000Y-80656000D03*
X157480000Y-120164000D03*
X133886822Y-89112991D03*
X120686822Y-123512991D03*
X124686822Y-98112991D03*
X118886822Y-125312991D03*
X123786822Y-98112991D03*
X161152000Y-124068000D03*
X119786822Y-126212991D03*
X141486822Y-118512991D03*
X135586822Y-75312991D03*
X147186822Y-112712991D03*
X124686822Y-116312991D03*
X147186822Y-116812991D03*
X123786822Y-116312991D03*
X118886822Y-124412991D03*
X126100000Y-75946000D03*
X157480000Y-114764000D03*
X136486822Y-75312991D03*
X140313000Y-136895000D03*
X161152000Y-124968000D03*
X156696000Y-79756000D03*
X152654000Y-135001000D03*
X134786822Y-107812991D03*
X132986822Y-108712991D03*
X127889000Y-135382000D03*
X149386822Y-129612991D03*
X140462000Y-98806000D03*
X139386822Y-129812991D03*
X146939000Y-75819000D03*
X138486822Y-130712991D03*
X141786822Y-79512991D03*
X124686822Y-99012991D03*
X139413000Y-141340000D03*
X118886822Y-133212991D03*
X142113000Y-141340000D03*
X132196000Y-140716000D03*
X159186822Y-136212991D03*
X126486822Y-98112991D03*
X158496000Y-78856000D03*
X128086822Y-128012991D03*
X144886822Y-77712991D03*
X147186822Y-117712991D03*
X158496000Y-79756000D03*
X151892000Y-133858000D03*
X150992000Y-133858000D03*
X124068000Y-82296000D03*
X133886822Y-90912991D03*
X156580000Y-114764000D03*
X145150000Y-114427000D03*
X149386822Y-130512991D03*
X131986822Y-126812991D03*
X133886822Y-107812991D03*
X136486822Y-76212991D03*
X140586822Y-120312991D03*
X133886822Y-106912991D03*
X147436000Y-140335000D03*
X159186822Y-134412991D03*
X129986822Y-115612991D03*
X140286822Y-133412991D03*
X147186822Y-114512991D03*
X140886822Y-77712991D03*
X156464000Y-74792000D03*
X148086822Y-117712991D03*
%TO.N,/D+*%
X150236822Y-138262991D03*
X151736822Y-138262991D03*
%TO.N,/U0RX-*%
X146786822Y-81362991D03*
X149986822Y-111762991D03*
%TO.N,/U0TX+*%
X148986822Y-111762991D03*
X145786822Y-81362991D03*
%TD*%
D20*
%TO.N,VCC*%
X122486822Y-79912991D02*
X123386822Y-79912991D01*
X124486822Y-124112991D02*
X124486822Y-123212991D01*
X123586822Y-124112991D02*
X124486822Y-123212991D01*
X123386822Y-79912991D02*
X122486822Y-80812991D01*
X123386822Y-79912991D02*
X123386822Y-80812991D01*
X124486822Y-124112991D02*
X123586822Y-124112991D01*
X122486822Y-79912991D02*
X123386822Y-80812991D01*
X123586822Y-123212991D02*
X124486822Y-124112991D01*
X122486822Y-79912991D02*
X122486822Y-80812991D01*
X121286822Y-82012991D02*
X122486822Y-80812991D01*
X123586822Y-123212991D02*
X122086822Y-123212991D01*
X124486822Y-123212991D02*
X123586822Y-123212991D01*
X123586822Y-123212991D02*
X123586822Y-124112991D01*
X121286822Y-122412991D02*
X121286822Y-82012991D01*
X123386822Y-80812991D02*
X122486822Y-80812991D01*
X122086822Y-123212991D02*
X121286822Y-122412991D01*
D21*
%TO.N,/CHIP_PU*%
X161237353Y-136512991D02*
X161236822Y-136513522D01*
X161236822Y-138123435D02*
X159351378Y-138123435D01*
X155702000Y-124968000D02*
X155194000Y-125476000D01*
X161237353Y-127455353D02*
X158750000Y-124968000D01*
X133386822Y-77812991D02*
X134286822Y-76912991D01*
X134362208Y-76912991D02*
X134386719Y-76937502D01*
X159351378Y-138123435D02*
X159311822Y-138162991D01*
X155194000Y-125476000D02*
X155194000Y-126238000D01*
X161236822Y-136513522D02*
X161236822Y-138123435D01*
X134286822Y-76912991D02*
X134362208Y-76912991D01*
X155194000Y-78232000D02*
X153899502Y-76937502D01*
X158750000Y-124968000D02*
X155702000Y-124968000D01*
X155194000Y-126238000D02*
X155194000Y-78232000D01*
X134386719Y-76937502D02*
X153899502Y-76937502D01*
X161237353Y-136512991D02*
X161237353Y-127455353D01*
%TO.N,/GPIO4*%
X133764863Y-79091032D02*
X132564863Y-79091032D01*
X136955102Y-79112991D02*
X144786822Y-86944711D01*
X133786822Y-79112991D02*
X136955102Y-79112991D01*
X128586822Y-75112991D02*
X120030822Y-75112991D01*
X133786822Y-79112991D02*
X133764863Y-79091032D01*
X120030822Y-75112991D02*
X119486822Y-75656991D01*
X144786822Y-86944711D02*
X144786822Y-113362991D01*
X132564863Y-79091032D02*
X128586822Y-75112991D01*
%TO.N,/GPIO5*%
X133686822Y-80412991D02*
X135986822Y-80412991D01*
X135986822Y-80412991D02*
X143586822Y-88012991D01*
X132286822Y-80412991D02*
X128686822Y-76812991D01*
X143586822Y-88012991D02*
X143586822Y-113462991D01*
X133686822Y-80412991D02*
X132286822Y-80412991D01*
X120870822Y-76812991D02*
X119486822Y-78196991D01*
X128686822Y-76812991D02*
X120870822Y-76812991D01*
%TO.N,/GPIO6*%
X135136067Y-82375240D02*
X135136067Y-82396681D01*
X142504751Y-113345062D02*
X142486822Y-113362991D01*
X142504751Y-89765365D02*
X142504751Y-113345062D01*
X135136067Y-82396681D02*
X142504751Y-89765365D01*
%TO.N,/GPIO7*%
X134986822Y-83912991D02*
X134986822Y-83862991D01*
X141386822Y-90312991D02*
X134986822Y-83912991D01*
X141386822Y-113262991D02*
X141386822Y-90312991D01*
%TO.N,/GPIO15*%
X134236822Y-85412991D02*
X134236822Y-85471453D01*
X139611333Y-100163094D02*
X139446000Y-100328427D01*
X139446000Y-112822169D02*
X139886822Y-113262991D01*
X139446000Y-100328427D02*
X139446000Y-112822169D01*
X134236822Y-85471453D02*
X139611333Y-90845964D01*
X139611333Y-90845964D02*
X139611333Y-100163094D01*
%TO.N,/GPIO16*%
X138886822Y-91762991D02*
X134086822Y-86962991D01*
X138886822Y-99862991D02*
X138886822Y-91762991D01*
%TO.N,/GPIO19*%
X128586822Y-116212991D02*
X130486822Y-118112991D01*
X128586822Y-91428173D02*
X128586822Y-116212991D01*
X130486822Y-118112991D02*
X130486822Y-133262991D01*
X130486822Y-133262991D02*
X129986822Y-133762991D01*
X129486822Y-90528173D02*
X128586822Y-91428173D01*
%TO.N,/GPIO20*%
X129036342Y-92763471D02*
X129036342Y-115962511D01*
X130986822Y-117912991D02*
X130986822Y-133262991D01*
X130986822Y-133262991D02*
X131486822Y-133762991D01*
X129036342Y-115962511D02*
X130986822Y-117912991D01*
X129986822Y-91812991D02*
X129036342Y-92763471D01*
%TO.N,/GPIO14*%
X156260800Y-107746815D02*
X156273702Y-107746815D01*
X156273702Y-107746815D02*
X161417000Y-112890113D01*
X161417000Y-112890113D02*
X161417000Y-113657358D01*
%TO.N,/GPIO21*%
X156725642Y-106426000D02*
X161417000Y-111117358D01*
X156464000Y-106426000D02*
X156725642Y-106426000D01*
%TO.N,/GPIO47*%
X157188511Y-106147223D02*
X159618646Y-108577358D01*
X159618646Y-108577358D02*
X161417000Y-108577358D01*
X156459701Y-105414299D02*
X156476913Y-105414299D01*
X156476913Y-105414299D02*
X157188511Y-106125897D01*
X157188511Y-106125897D02*
X157188511Y-106147223D01*
%TO.N,/GPIO0*%
X119286786Y-137908195D02*
X121157026Y-137908195D01*
X124986822Y-136612991D02*
X124986822Y-138912991D01*
X156086822Y-138612991D02*
X156086822Y-135398514D01*
X119286786Y-137908195D02*
X119286786Y-136513027D01*
X155086822Y-139612991D02*
X156086822Y-138612991D01*
X121157026Y-137908195D02*
X121161822Y-137912991D01*
X125686822Y-139612991D02*
X155086822Y-139612991D01*
X124986822Y-138912991D02*
X125686822Y-139612991D01*
X152886822Y-92312991D02*
X152907736Y-92292077D01*
X124386822Y-136012991D02*
X124986822Y-136612991D01*
X152886822Y-133812991D02*
X152886822Y-92312991D01*
X119786822Y-136012991D02*
X124386822Y-136012991D01*
X153786822Y-134712991D02*
X152886822Y-133812991D01*
X119286786Y-136513027D02*
X119786822Y-136012991D01*
X156686822Y-134712991D02*
X153786822Y-134712991D01*
X156086822Y-135398514D02*
X156730420Y-134754916D01*
%TO.N,/GPIO42*%
X150895474Y-81721643D02*
X150895474Y-93797029D01*
X135512582Y-130863751D02*
X136886822Y-132237991D01*
X137151260Y-126812991D02*
X135512582Y-128451669D01*
X145983009Y-126812991D02*
X137151260Y-126812991D01*
X150911333Y-121884667D02*
X145983009Y-126812991D01*
X135512582Y-128451669D02*
X135512582Y-130863751D01*
X150895474Y-93797029D02*
X150911333Y-93812888D01*
X150911333Y-93812888D02*
X150911333Y-121884667D01*
X150886822Y-81712991D02*
X150895474Y-81721643D01*
%TO.N,/GPIO2*%
X144886822Y-128462991D02*
X144886822Y-130887991D01*
X151786822Y-122152178D02*
X151786822Y-77812991D01*
X145476009Y-128462991D02*
X151786822Y-122152178D01*
X144886822Y-130887991D02*
X146286822Y-132287991D01*
X144886822Y-128462991D02*
X145476009Y-128462991D01*
D22*
%TO.N,/D+*%
X151736822Y-138812991D02*
X151736822Y-138262991D01*
X151586822Y-138962991D02*
X151736822Y-138812991D01*
X150236822Y-138812991D02*
X150386822Y-138962991D01*
X150386822Y-138962991D02*
X151586822Y-138962991D01*
X150236822Y-138262991D02*
X150236822Y-138812991D01*
D21*
%TO.N,/U0RX-*%
X146786822Y-108362991D02*
X146786822Y-81362991D01*
X149986822Y-111562991D02*
X146786822Y-108362991D01*
X149986822Y-111762991D02*
X149986822Y-111562991D01*
%TO.N,/U0TX+*%
X148986822Y-111762991D02*
X145786822Y-108562991D01*
X145786822Y-108562991D02*
X145786822Y-81362991D01*
%TD*%
%TA.AperFunction,Conductor*%
%TO.N,GND*%
G36*
X153653029Y-77591004D02*
G01*
X153674003Y-77607907D01*
X154523595Y-78457499D01*
X154557621Y-78519811D01*
X154560500Y-78546594D01*
X154560500Y-125416224D01*
X154558949Y-125435934D01*
X154555780Y-125455943D01*
X154556526Y-125463835D01*
X154559941Y-125499961D01*
X154560500Y-125511819D01*
X154560500Y-125535476D01*
X154540498Y-125603597D01*
X154528142Y-125619779D01*
X154454960Y-125701056D01*
X154439871Y-125727191D01*
X154363172Y-125860038D01*
X154359473Y-125866444D01*
X154300458Y-126048072D01*
X154299768Y-126054633D01*
X154299768Y-126054635D01*
X154283356Y-126210791D01*
X154280496Y-126238000D01*
X154281186Y-126244565D01*
X154292649Y-126353625D01*
X154300458Y-126427928D01*
X154359473Y-126609556D01*
X154454960Y-126774944D01*
X154582747Y-126916866D01*
X154737248Y-127029118D01*
X154743276Y-127031802D01*
X154743278Y-127031803D01*
X154815572Y-127063990D01*
X154911712Y-127106794D01*
X155005113Y-127126647D01*
X155092056Y-127145128D01*
X155092061Y-127145128D01*
X155098513Y-127146500D01*
X155289487Y-127146500D01*
X155295939Y-127145128D01*
X155295944Y-127145128D01*
X155382887Y-127126647D01*
X155476288Y-127106794D01*
X155572428Y-127063990D01*
X155644722Y-127031803D01*
X155644724Y-127031802D01*
X155650752Y-127029118D01*
X155805253Y-126916866D01*
X155933040Y-126774944D01*
X156028527Y-126609556D01*
X156087542Y-126427928D01*
X156095352Y-126353625D01*
X156106814Y-126244565D01*
X156107504Y-126238000D01*
X156104644Y-126210791D01*
X156088232Y-126054635D01*
X156088232Y-126054633D01*
X156087542Y-126048072D01*
X156028527Y-125866444D01*
X156025223Y-125860721D01*
X155984681Y-125790500D01*
X155967943Y-125721504D01*
X155991164Y-125654413D01*
X156046971Y-125610526D01*
X156093800Y-125601500D01*
X158435406Y-125601500D01*
X158503527Y-125621502D01*
X158524501Y-125638405D01*
X160566948Y-127680852D01*
X160600974Y-127743164D01*
X160603853Y-127769947D01*
X160603853Y-135810467D01*
X160583851Y-135878588D01*
X160571495Y-135894770D01*
X160498313Y-135976047D01*
X160474456Y-136017368D01*
X160432261Y-136090453D01*
X160402826Y-136141435D01*
X160343811Y-136323063D01*
X160343121Y-136329624D01*
X160343121Y-136329626D01*
X160335529Y-136401861D01*
X160323849Y-136512991D01*
X160324539Y-136519556D01*
X160340503Y-136671442D01*
X160343811Y-136702919D01*
X160402826Y-136884547D01*
X160406129Y-136890269D01*
X160406130Y-136890270D01*
X160436692Y-136943205D01*
X160498313Y-137049935D01*
X160502731Y-137054842D01*
X160502732Y-137054843D01*
X160542732Y-137099267D01*
X160573449Y-137163275D01*
X160564686Y-137233728D01*
X160524662Y-137284403D01*
X160423561Y-137360174D01*
X160418180Y-137367354D01*
X160418179Y-137367355D01*
X160364109Y-137439500D01*
X160307249Y-137482015D01*
X160263283Y-137489935D01*
X160236747Y-137489935D01*
X160168626Y-137469933D01*
X160122133Y-137416277D01*
X160118766Y-137408167D01*
X160115590Y-137399696D01*
X160115589Y-137399694D01*
X160112437Y-137391286D01*
X160025083Y-137274730D01*
X159908527Y-137187376D01*
X159772138Y-137136246D01*
X159709956Y-137129491D01*
X158913688Y-137129491D01*
X158851506Y-137136246D01*
X158715117Y-137187376D01*
X158598561Y-137274730D01*
X158511207Y-137391286D01*
X158460077Y-137527675D01*
X158453322Y-137589857D01*
X158453322Y-138736125D01*
X158460077Y-138798307D01*
X158511207Y-138934696D01*
X158598561Y-139051252D01*
X158715117Y-139138606D01*
X158851506Y-139189736D01*
X158913688Y-139196491D01*
X159709956Y-139196491D01*
X159772138Y-139189736D01*
X159908527Y-139138606D01*
X160025083Y-139051252D01*
X160051996Y-139015342D01*
X160108855Y-138972827D01*
X160179674Y-138967801D01*
X160241967Y-139001861D01*
X160275957Y-139064192D01*
X160278822Y-139090907D01*
X160278822Y-139251320D01*
X160283297Y-139266559D01*
X160284687Y-139267764D01*
X160292370Y-139269435D01*
X162176706Y-139269435D01*
X162191945Y-139264960D01*
X162193150Y-139263570D01*
X162194821Y-139255887D01*
X162194821Y-139078766D01*
X162194451Y-139071945D01*
X162188927Y-139021083D01*
X162185301Y-139005831D01*
X162140143Y-138885374D01*
X162139648Y-138884469D01*
X162139429Y-138883469D01*
X162136994Y-138876973D01*
X162137932Y-138876621D01*
X162124479Y-138815112D01*
X162137660Y-138770223D01*
X162137437Y-138770140D01*
X162138578Y-138767098D01*
X162138580Y-138767091D01*
X162141685Y-138758810D01*
X162180334Y-138655713D01*
X162188567Y-138633751D01*
X162195322Y-138571569D01*
X162195322Y-137675301D01*
X162188567Y-137613119D01*
X162137437Y-137476730D01*
X162050083Y-137360174D01*
X161949617Y-137284879D01*
X161907102Y-137228020D01*
X161902076Y-137157201D01*
X161931544Y-137099745D01*
X161976393Y-137049935D01*
X162038014Y-136943205D01*
X162068576Y-136890270D01*
X162068577Y-136890269D01*
X162071880Y-136884547D01*
X162130895Y-136702919D01*
X162134204Y-136671442D01*
X162150167Y-136519556D01*
X162150857Y-136512991D01*
X162139177Y-136401861D01*
X162131585Y-136329626D01*
X162131585Y-136329624D01*
X162130895Y-136323063D01*
X162071880Y-136141435D01*
X162042446Y-136090453D01*
X162000250Y-136017368D01*
X161976393Y-135976047D01*
X161903216Y-135894776D01*
X161872500Y-135830770D01*
X161870853Y-135810467D01*
X161870853Y-127534116D01*
X161871380Y-127522932D01*
X161873054Y-127515444D01*
X161870915Y-127447385D01*
X161870853Y-127443428D01*
X161870853Y-127415497D01*
X161870347Y-127411491D01*
X161869414Y-127399645D01*
X161868275Y-127363390D01*
X161868026Y-127355463D01*
X161862375Y-127336011D01*
X161858367Y-127316659D01*
X161856820Y-127304416D01*
X161855827Y-127296556D01*
X161852909Y-127289185D01*
X161839553Y-127255450D01*
X161835708Y-127244223D01*
X161835074Y-127242040D01*
X161823371Y-127201760D01*
X161819337Y-127194938D01*
X161819334Y-127194932D01*
X161813059Y-127184321D01*
X161804363Y-127166571D01*
X161799825Y-127155109D01*
X161799822Y-127155104D01*
X161796905Y-127147736D01*
X161770926Y-127111978D01*
X161764410Y-127102060D01*
X161745928Y-127070810D01*
X161741895Y-127063990D01*
X161727571Y-127049666D01*
X161714729Y-127034631D01*
X161702825Y-127018246D01*
X161668759Y-126990064D01*
X161659980Y-126982075D01*
X159253652Y-124575747D01*
X159246112Y-124567461D01*
X159242000Y-124560982D01*
X159192348Y-124514356D01*
X159189507Y-124511602D01*
X159169770Y-124491865D01*
X159166573Y-124489385D01*
X159157551Y-124481680D01*
X159156724Y-124480903D01*
X159125321Y-124451414D01*
X159118375Y-124447595D01*
X159118372Y-124447593D01*
X159107566Y-124441652D01*
X159091047Y-124430801D01*
X159085039Y-124426141D01*
X159075041Y-124418386D01*
X159067772Y-124415241D01*
X159067768Y-124415238D01*
X159034463Y-124400826D01*
X159023813Y-124395609D01*
X158985060Y-124374305D01*
X158965437Y-124369267D01*
X158946734Y-124362863D01*
X158935420Y-124357967D01*
X158935419Y-124357967D01*
X158928145Y-124354819D01*
X158920322Y-124353580D01*
X158920312Y-124353577D01*
X158884476Y-124347901D01*
X158872856Y-124345495D01*
X158837711Y-124336472D01*
X158837710Y-124336472D01*
X158830030Y-124334500D01*
X158809776Y-124334500D01*
X158790065Y-124332949D01*
X158777886Y-124331020D01*
X158770057Y-124329780D01*
X158762165Y-124330526D01*
X158726039Y-124333941D01*
X158714181Y-124334500D01*
X155953500Y-124334500D01*
X155885379Y-124314498D01*
X155838886Y-124260842D01*
X155827500Y-124208500D01*
X155827500Y-108739108D01*
X155847502Y-108670987D01*
X155901158Y-108624494D01*
X155971432Y-108614390D01*
X155979697Y-108615861D01*
X156158856Y-108653943D01*
X156158861Y-108653943D01*
X156165313Y-108655315D01*
X156234108Y-108655315D01*
X156302229Y-108675317D01*
X156323203Y-108692220D01*
X160377015Y-112746033D01*
X160411041Y-112808345D01*
X160405976Y-112879161D01*
X160391133Y-112907398D01*
X160315672Y-113015168D01*
X160315669Y-113015174D01*
X160312512Y-113019682D01*
X160310189Y-113024664D01*
X160310186Y-113024669D01*
X160225300Y-113206708D01*
X160218560Y-113221162D01*
X160217138Y-113226470D01*
X160217137Y-113226472D01*
X160207352Y-113262991D01*
X160161022Y-113435895D01*
X160141647Y-113657358D01*
X160161022Y-113878821D01*
X160218560Y-114093554D01*
X160220882Y-114098535D01*
X160220883Y-114098536D01*
X160310186Y-114290047D01*
X160310189Y-114290052D01*
X160312512Y-114295034D01*
X160315668Y-114299541D01*
X160315669Y-114299543D01*
X160366048Y-114371491D01*
X160440023Y-114477139D01*
X160597219Y-114634335D01*
X160601727Y-114637492D01*
X160601730Y-114637494D01*
X160673139Y-114687495D01*
X160779323Y-114761846D01*
X160784305Y-114764169D01*
X160784310Y-114764172D01*
X160889373Y-114813163D01*
X160942658Y-114860080D01*
X160962119Y-114928357D01*
X160941577Y-114996317D01*
X160889373Y-115041553D01*
X160784311Y-115090544D01*
X160784306Y-115090547D01*
X160779324Y-115092870D01*
X160774817Y-115096026D01*
X160774815Y-115096027D01*
X160601730Y-115217222D01*
X160601727Y-115217224D01*
X160597219Y-115220381D01*
X160440023Y-115377577D01*
X160312512Y-115559682D01*
X160310189Y-115564664D01*
X160310186Y-115564669D01*
X160247031Y-115700106D01*
X160218560Y-115761162D01*
X160161022Y-115975895D01*
X160141647Y-116197358D01*
X160161022Y-116418821D01*
X160162444Y-116424129D01*
X160162445Y-116424133D01*
X160212239Y-116609964D01*
X160218560Y-116633554D01*
X160220882Y-116638535D01*
X160220883Y-116638536D01*
X160310186Y-116830047D01*
X160310189Y-116830052D01*
X160312512Y-116835034D01*
X160440023Y-117017139D01*
X160597219Y-117174335D01*
X160601727Y-117177492D01*
X160601730Y-117177494D01*
X160673139Y-117227495D01*
X160779323Y-117301846D01*
X160784305Y-117304169D01*
X160784310Y-117304172D01*
X160975822Y-117393475D01*
X160980804Y-117395798D01*
X160986112Y-117397220D01*
X160986114Y-117397221D01*
X161010686Y-117403805D01*
X161195537Y-117453336D01*
X161417000Y-117472711D01*
X161638463Y-117453336D01*
X161823314Y-117403805D01*
X161847886Y-117397221D01*
X161847888Y-117397220D01*
X161853196Y-117395798D01*
X161858178Y-117393475D01*
X162049690Y-117304172D01*
X162049695Y-117304169D01*
X162054677Y-117301846D01*
X162160861Y-117227495D01*
X162232270Y-117177494D01*
X162232273Y-117177492D01*
X162236781Y-117174335D01*
X162263727Y-117147389D01*
X162326039Y-117113363D01*
X162396854Y-117118428D01*
X162453690Y-117160975D01*
X162478501Y-117227495D01*
X162478822Y-117236484D01*
X162478822Y-141950672D01*
X162477322Y-141970056D01*
X162473636Y-141993730D01*
X162475430Y-142007446D01*
X162475627Y-142008955D01*
X162476370Y-142034279D01*
X162469064Y-142136443D01*
X162464413Y-142201471D01*
X162461855Y-142219263D01*
X162443328Y-142304427D01*
X162420835Y-142407824D01*
X162415771Y-142425072D01*
X162348881Y-142604415D01*
X162348333Y-142605883D01*
X162340866Y-142622233D01*
X162276314Y-142740451D01*
X162248383Y-142791602D01*
X162238666Y-142806722D01*
X162179100Y-142886293D01*
X162123017Y-142961211D01*
X162111244Y-142974797D01*
X161974797Y-143111244D01*
X161961211Y-143123017D01*
X161806725Y-143238664D01*
X161791605Y-143248381D01*
X161622233Y-143340866D01*
X161605887Y-143348331D01*
X161484435Y-143393630D01*
X161425072Y-143415771D01*
X161407823Y-143420835D01*
X161219263Y-143461855D01*
X161201475Y-143464412D01*
X161041369Y-143475863D01*
X161023467Y-143475119D01*
X161015142Y-143475017D01*
X161006270Y-143473636D01*
X160997368Y-143474800D01*
X160997365Y-143474800D01*
X160932500Y-143483283D01*
X160873626Y-143490981D01*
X160857341Y-143492045D01*
X160450095Y-143492174D01*
X160081725Y-143492290D01*
X160013598Y-143472309D01*
X159967088Y-143418668D01*
X159956962Y-143348398D01*
X159986434Y-143283808D01*
X160006120Y-143265464D01*
X160017903Y-143256633D01*
X160025083Y-143251252D01*
X160112437Y-143134696D01*
X160163567Y-142998307D01*
X160170322Y-142936125D01*
X160170322Y-141789857D01*
X160163567Y-141727675D01*
X160112437Y-141591286D01*
X160025083Y-141474730D01*
X159908527Y-141387376D01*
X159772138Y-141336246D01*
X159709956Y-141329491D01*
X158913688Y-141329491D01*
X158851506Y-141336246D01*
X158715117Y-141387376D01*
X158598561Y-141474730D01*
X158511207Y-141591286D01*
X158460077Y-141727675D01*
X158453322Y-141789857D01*
X158453322Y-142936125D01*
X158460077Y-142998307D01*
X158511207Y-143134696D01*
X158598561Y-143251252D01*
X158605741Y-143256633D01*
X158605742Y-143256634D01*
X158618175Y-143265952D01*
X158660690Y-143322812D01*
X158665715Y-143393630D01*
X158631656Y-143455923D01*
X158569324Y-143489913D01*
X158542650Y-143492778D01*
X157929981Y-143492972D01*
X157861854Y-143472992D01*
X157815344Y-143419351D01*
X157805218Y-143349080D01*
X157834690Y-143284490D01*
X157854377Y-143266145D01*
X157867547Y-143256275D01*
X157880107Y-143243715D01*
X157956608Y-143141640D01*
X157965146Y-143126045D01*
X158010300Y-143005597D01*
X158013927Y-142990342D01*
X158019453Y-142939477D01*
X158019822Y-142932663D01*
X158019822Y-142635106D01*
X158015347Y-142619867D01*
X158013957Y-142618662D01*
X158006274Y-142616991D01*
X156321938Y-142616991D01*
X156306699Y-142621466D01*
X156305494Y-142622856D01*
X156303823Y-142630539D01*
X156303823Y-142932660D01*
X156304193Y-142939481D01*
X156309717Y-142990343D01*
X156313343Y-143005595D01*
X156358498Y-143126045D01*
X156367036Y-143141640D01*
X156443537Y-143243715D01*
X156456099Y-143256277D01*
X156469917Y-143266633D01*
X156512432Y-143323493D01*
X156517457Y-143394311D01*
X156483398Y-143456604D01*
X156421066Y-143490594D01*
X156394394Y-143493459D01*
X120049270Y-143504976D01*
X120029849Y-143503476D01*
X120021541Y-143502183D01*
X120015141Y-143501186D01*
X120015139Y-143501186D01*
X120006270Y-143499805D01*
X119997368Y-143500969D01*
X119997366Y-143500969D01*
X119993826Y-143501432D01*
X119991043Y-143501796D01*
X119965721Y-143502539D01*
X119829245Y-143492778D01*
X119794808Y-143490315D01*
X119777014Y-143487756D01*
X119584799Y-143445942D01*
X119567550Y-143440878D01*
X119508002Y-143418668D01*
X119383241Y-143372135D01*
X119366902Y-143364673D01*
X119194242Y-143270394D01*
X119179128Y-143260680D01*
X119021651Y-143142795D01*
X119008065Y-143131022D01*
X118868978Y-142991935D01*
X118857205Y-142978349D01*
X118844376Y-142961211D01*
X118739320Y-142820872D01*
X118729603Y-142805753D01*
X118721876Y-142791602D01*
X118664282Y-142686125D01*
X120303322Y-142686125D01*
X120310077Y-142748307D01*
X120361207Y-142884696D01*
X120448561Y-143001252D01*
X120565117Y-143088606D01*
X120701506Y-143139736D01*
X120763688Y-143146491D01*
X121559956Y-143146491D01*
X121622138Y-143139736D01*
X121758527Y-143088606D01*
X121875083Y-143001252D01*
X121962437Y-142884696D01*
X122013567Y-142748307D01*
X122020322Y-142686125D01*
X122453322Y-142686125D01*
X122460077Y-142748307D01*
X122511207Y-142884696D01*
X122598561Y-143001252D01*
X122715117Y-143088606D01*
X122851506Y-143139736D01*
X122913688Y-143146491D01*
X123709956Y-143146491D01*
X123772138Y-143139736D01*
X123908527Y-143088606D01*
X124025083Y-143001252D01*
X124112437Y-142884696D01*
X124163567Y-142748307D01*
X124170322Y-142686125D01*
X124170322Y-141539857D01*
X124163567Y-141477675D01*
X124112437Y-141341286D01*
X124025083Y-141224730D01*
X123908527Y-141137376D01*
X123772138Y-141086246D01*
X123709956Y-141079491D01*
X122913688Y-141079491D01*
X122851506Y-141086246D01*
X122715117Y-141137376D01*
X122598561Y-141224730D01*
X122511207Y-141341286D01*
X122460077Y-141477675D01*
X122453322Y-141539857D01*
X122453322Y-142686125D01*
X122020322Y-142686125D01*
X122020322Y-141539857D01*
X122013567Y-141477675D01*
X121962437Y-141341286D01*
X121875083Y-141224730D01*
X121758527Y-141137376D01*
X121622138Y-141086246D01*
X121559956Y-141079491D01*
X120763688Y-141079491D01*
X120701506Y-141086246D01*
X120565117Y-141137376D01*
X120448561Y-141224730D01*
X120361207Y-141341286D01*
X120310077Y-141477675D01*
X120303322Y-141539857D01*
X120303322Y-142686125D01*
X118664282Y-142686125D01*
X118635327Y-142633098D01*
X118627865Y-142616759D01*
X118576606Y-142479328D01*
X118559122Y-142432450D01*
X118554058Y-142415201D01*
X118512244Y-142222986D01*
X118509685Y-142205192D01*
X118504370Y-142130877D01*
X118497968Y-142041369D01*
X118498712Y-142023468D01*
X118498814Y-142015142D01*
X118500195Y-142006270D01*
X118498556Y-141993730D01*
X118495886Y-141973319D01*
X118494822Y-141956981D01*
X118494822Y-140304363D01*
X118514824Y-140236242D01*
X118568480Y-140189749D01*
X118638754Y-140179645D01*
X118665052Y-140186381D01*
X118719181Y-140206673D01*
X118734435Y-140210300D01*
X118785300Y-140215826D01*
X118792114Y-140216195D01*
X119014671Y-140216195D01*
X119029910Y-140211720D01*
X119031115Y-140210330D01*
X119032786Y-140202647D01*
X119032786Y-140198079D01*
X119540786Y-140198079D01*
X119545261Y-140213318D01*
X119546651Y-140214523D01*
X119554334Y-140216194D01*
X119781455Y-140216194D01*
X119788276Y-140215824D01*
X119839138Y-140210300D01*
X119854390Y-140206674D01*
X119974840Y-140161519D01*
X119990435Y-140152981D01*
X120092510Y-140076480D01*
X120105071Y-140063919D01*
X120181572Y-139961844D01*
X120190110Y-139946249D01*
X120235264Y-139825801D01*
X120238891Y-139810546D01*
X120244417Y-139759681D01*
X120244786Y-139752867D01*
X120244786Y-139580310D01*
X120240311Y-139565071D01*
X120238921Y-139563866D01*
X120231238Y-139562195D01*
X119558901Y-139562195D01*
X119543662Y-139566670D01*
X119542457Y-139568060D01*
X119540786Y-139575743D01*
X119540786Y-140198079D01*
X119032786Y-140198079D01*
X119032786Y-139180195D01*
X119052788Y-139112074D01*
X119106444Y-139065581D01*
X119158786Y-139054195D01*
X120226670Y-139054195D01*
X120241909Y-139049720D01*
X120243114Y-139048330D01*
X120244785Y-139040647D01*
X120244785Y-138899867D01*
X120264787Y-138831746D01*
X120318443Y-138785253D01*
X120388717Y-138775149D01*
X120447875Y-138802167D01*
X120448561Y-138801252D01*
X120565117Y-138888606D01*
X120701506Y-138939736D01*
X120763688Y-138946491D01*
X121559956Y-138946491D01*
X121622138Y-138939736D01*
X121758527Y-138888606D01*
X121875083Y-138801252D01*
X121962437Y-138684696D01*
X122013567Y-138548307D01*
X122020322Y-138486125D01*
X122020322Y-138482660D01*
X122453823Y-138482660D01*
X122454193Y-138489481D01*
X122459717Y-138540343D01*
X122463343Y-138555595D01*
X122508498Y-138676045D01*
X122517036Y-138691640D01*
X122593537Y-138793715D01*
X122606098Y-138806276D01*
X122708173Y-138882777D01*
X122723768Y-138891315D01*
X122844216Y-138936469D01*
X122859471Y-138940096D01*
X122910336Y-138945622D01*
X122917150Y-138945991D01*
X123039707Y-138945991D01*
X123054946Y-138941516D01*
X123056151Y-138940126D01*
X123057822Y-138932443D01*
X123057822Y-138185106D01*
X123053347Y-138169867D01*
X123051957Y-138168662D01*
X123044274Y-138166991D01*
X122471938Y-138166991D01*
X122456699Y-138171466D01*
X122455494Y-138172856D01*
X122453823Y-138180539D01*
X122453823Y-138482660D01*
X122020322Y-138482660D01*
X122020322Y-137339857D01*
X122013567Y-137277675D01*
X121962437Y-137141286D01*
X121875083Y-137024730D01*
X121758527Y-136937376D01*
X121750118Y-136934224D01*
X121750117Y-136934223D01*
X121633414Y-136890473D01*
X121576649Y-136847832D01*
X121551949Y-136781270D01*
X121567156Y-136711921D01*
X121617442Y-136661803D01*
X121677643Y-136646491D01*
X122797425Y-136646491D01*
X122865546Y-136666493D01*
X122912039Y-136720149D01*
X122922143Y-136790423D01*
X122892649Y-136855003D01*
X122841655Y-136890473D01*
X122723768Y-136934667D01*
X122708173Y-136943205D01*
X122606098Y-137019706D01*
X122593537Y-137032267D01*
X122517036Y-137134342D01*
X122508498Y-137149937D01*
X122463344Y-137270385D01*
X122459717Y-137285640D01*
X122454191Y-137336505D01*
X122453822Y-137343319D01*
X122453822Y-137640876D01*
X122458297Y-137656115D01*
X122459687Y-137657320D01*
X122467370Y-137658991D01*
X123439822Y-137658991D01*
X123507943Y-137678993D01*
X123554436Y-137732649D01*
X123565822Y-137784991D01*
X123565822Y-138927875D01*
X123570297Y-138943114D01*
X123571687Y-138944319D01*
X123579370Y-138945990D01*
X123706491Y-138945990D01*
X123713312Y-138945620D01*
X123764174Y-138940096D01*
X123779426Y-138936470D01*
X123899876Y-138891315D01*
X123915471Y-138882777D01*
X124017546Y-138806276D01*
X124030107Y-138793715D01*
X124106610Y-138691637D01*
X124116802Y-138673021D01*
X124167060Y-138622875D01*
X124236451Y-138607861D01*
X124302944Y-138632746D01*
X124345427Y-138689629D01*
X124353322Y-138733530D01*
X124353322Y-138834224D01*
X124352795Y-138845407D01*
X124351120Y-138852900D01*
X124351369Y-138860826D01*
X124351369Y-138860827D01*
X124353260Y-138920977D01*
X124353322Y-138924936D01*
X124353322Y-138952847D01*
X124353819Y-138956781D01*
X124353819Y-138956782D01*
X124353827Y-138956847D01*
X124354760Y-138968684D01*
X124356149Y-139012880D01*
X124361685Y-139031935D01*
X124361800Y-139032330D01*
X124365809Y-139051691D01*
X124368348Y-139071788D01*
X124371267Y-139079159D01*
X124371267Y-139079161D01*
X124384626Y-139112903D01*
X124388471Y-139124133D01*
X124398593Y-139158974D01*
X124400804Y-139166584D01*
X124404837Y-139173403D01*
X124404839Y-139173408D01*
X124411115Y-139184019D01*
X124419810Y-139201767D01*
X124427270Y-139220608D01*
X124431932Y-139227024D01*
X124431932Y-139227025D01*
X124453258Y-139256378D01*
X124459774Y-139266298D01*
X124482280Y-139304353D01*
X124496601Y-139318674D01*
X124509441Y-139333707D01*
X124521350Y-139350098D01*
X124527456Y-139355149D01*
X124555427Y-139378289D01*
X124564206Y-139386279D01*
X125183165Y-140005238D01*
X125190709Y-140013528D01*
X125194822Y-140020009D01*
X125200599Y-140025434D01*
X125244489Y-140066649D01*
X125247331Y-140069404D01*
X125267052Y-140089125D01*
X125270247Y-140091603D01*
X125279269Y-140099309D01*
X125311501Y-140129577D01*
X125318450Y-140133397D01*
X125329254Y-140139337D01*
X125345778Y-140150190D01*
X125361781Y-140162604D01*
X125402365Y-140180167D01*
X125412995Y-140185374D01*
X125451762Y-140206686D01*
X125459439Y-140208657D01*
X125459444Y-140208659D01*
X125471380Y-140211723D01*
X125490088Y-140218128D01*
X125508677Y-140226172D01*
X125516502Y-140227411D01*
X125516504Y-140227412D01*
X125552341Y-140233088D01*
X125563962Y-140235495D01*
X125599111Y-140244519D01*
X125606792Y-140246491D01*
X125627053Y-140246491D01*
X125646762Y-140248042D01*
X125666765Y-140251210D01*
X125674657Y-140250464D01*
X125679884Y-140249970D01*
X125710776Y-140247050D01*
X125722633Y-140246491D01*
X125868001Y-140246491D01*
X125936122Y-140266493D01*
X125982615Y-140320149D01*
X125992719Y-140390423D01*
X125973852Y-140440839D01*
X125931459Y-140506494D01*
X125931457Y-140506498D01*
X125928202Y-140511539D01*
X125849136Y-140707728D01*
X125808594Y-140915328D01*
X125808322Y-140920890D01*
X125808322Y-141676837D01*
X125823370Y-141834557D01*
X125882914Y-142037525D01*
X125885658Y-142042852D01*
X125885658Y-142042853D01*
X125973899Y-142214183D01*
X125979764Y-142225571D01*
X126110426Y-142391911D01*
X126114957Y-142395843D01*
X126114960Y-142395846D01*
X126200880Y-142470403D01*
X126270185Y-142530543D01*
X126275371Y-142533543D01*
X126275375Y-142533546D01*
X126419616Y-142616991D01*
X126453276Y-142636464D01*
X126653093Y-142705852D01*
X126659028Y-142706713D01*
X126659030Y-142706713D01*
X126856486Y-142735343D01*
X126856489Y-142735343D01*
X126862426Y-142736204D01*
X127073721Y-142726424D01*
X127204899Y-142694810D01*
X127273523Y-142678272D01*
X127273525Y-142678271D01*
X127279356Y-142676866D01*
X127284814Y-142674384D01*
X127284818Y-142674383D01*
X127407368Y-142618662D01*
X127471909Y-142589317D01*
X127644433Y-142466937D01*
X127790703Y-142314141D01*
X127905442Y-142136443D01*
X127951732Y-142021583D01*
X127982264Y-141945823D01*
X127982265Y-141945820D01*
X127984508Y-141940254D01*
X128025050Y-141732654D01*
X128025322Y-141727092D01*
X128025322Y-140971145D01*
X128010274Y-140813425D01*
X127950730Y-140610457D01*
X127857883Y-140430183D01*
X127844474Y-140360464D01*
X127870887Y-140294564D01*
X127928736Y-140253405D01*
X127969899Y-140246491D01*
X134508001Y-140246491D01*
X134576122Y-140266493D01*
X134622615Y-140320149D01*
X134632719Y-140390423D01*
X134613852Y-140440839D01*
X134571459Y-140506494D01*
X134571457Y-140506498D01*
X134568202Y-140511539D01*
X134489136Y-140707728D01*
X134448594Y-140915328D01*
X134448322Y-140920890D01*
X134448322Y-141676837D01*
X134463370Y-141834557D01*
X134522914Y-142037525D01*
X134525658Y-142042852D01*
X134525658Y-142042853D01*
X134613899Y-142214183D01*
X134619764Y-142225571D01*
X134750426Y-142391911D01*
X134754957Y-142395843D01*
X134754960Y-142395846D01*
X134840880Y-142470403D01*
X134910185Y-142530543D01*
X134915371Y-142533543D01*
X134915375Y-142533546D01*
X135059616Y-142616991D01*
X135093276Y-142636464D01*
X135293093Y-142705852D01*
X135299028Y-142706713D01*
X135299030Y-142706713D01*
X135496486Y-142735343D01*
X135496489Y-142735343D01*
X135502426Y-142736204D01*
X135713721Y-142726424D01*
X135844899Y-142694810D01*
X135913523Y-142678272D01*
X135913525Y-142678271D01*
X135919356Y-142676866D01*
X135924814Y-142674384D01*
X135924818Y-142674383D01*
X136047368Y-142618662D01*
X136111909Y-142589317D01*
X136284433Y-142466937D01*
X136430703Y-142314141D01*
X136545442Y-142136443D01*
X136591732Y-142021583D01*
X136622264Y-141945823D01*
X136622265Y-141945820D01*
X136624508Y-141940254D01*
X136665050Y-141732654D01*
X136665322Y-141727092D01*
X136665322Y-140971145D01*
X136650274Y-140813425D01*
X136590730Y-140610457D01*
X136497883Y-140430183D01*
X136484474Y-140360464D01*
X136510887Y-140294564D01*
X136568736Y-140253405D01*
X136609899Y-140246491D01*
X145118001Y-140246491D01*
X145186122Y-140266493D01*
X145232615Y-140320149D01*
X145242719Y-140390423D01*
X145223852Y-140440839D01*
X145181459Y-140506494D01*
X145181457Y-140506498D01*
X145178202Y-140511539D01*
X145099136Y-140707728D01*
X145058594Y-140915328D01*
X145058322Y-140920890D01*
X145058322Y-141676837D01*
X145073370Y-141834557D01*
X145132914Y-142037525D01*
X145135658Y-142042852D01*
X145135658Y-142042853D01*
X145223899Y-142214183D01*
X145229764Y-142225571D01*
X145360426Y-142391911D01*
X145364957Y-142395843D01*
X145364960Y-142395846D01*
X145450880Y-142470403D01*
X145520185Y-142530543D01*
X145525371Y-142533543D01*
X145525375Y-142533546D01*
X145669616Y-142616991D01*
X145703276Y-142636464D01*
X145903093Y-142705852D01*
X145909028Y-142706713D01*
X145909030Y-142706713D01*
X146106486Y-142735343D01*
X146106489Y-142735343D01*
X146112426Y-142736204D01*
X146323721Y-142726424D01*
X146454899Y-142694810D01*
X146523523Y-142678272D01*
X146523525Y-142678271D01*
X146529356Y-142676866D01*
X146534814Y-142674384D01*
X146534818Y-142674383D01*
X146657368Y-142618662D01*
X146721909Y-142589317D01*
X146894433Y-142466937D01*
X147040703Y-142314141D01*
X147155442Y-142136443D01*
X147201732Y-142021583D01*
X147232264Y-141945823D01*
X147232265Y-141945820D01*
X147234508Y-141940254D01*
X147275050Y-141732654D01*
X147275322Y-141727092D01*
X147275322Y-140971145D01*
X147260274Y-140813425D01*
X147200730Y-140610457D01*
X147107883Y-140430183D01*
X147094474Y-140360464D01*
X147120887Y-140294564D01*
X147178736Y-140253405D01*
X147219899Y-140246491D01*
X153758001Y-140246491D01*
X153826122Y-140266493D01*
X153872615Y-140320149D01*
X153882719Y-140390423D01*
X153863852Y-140440839D01*
X153821459Y-140506494D01*
X153821457Y-140506498D01*
X153818202Y-140511539D01*
X153739136Y-140707728D01*
X153698594Y-140915328D01*
X153698322Y-140920890D01*
X153698322Y-141676837D01*
X153713370Y-141834557D01*
X153772914Y-142037525D01*
X153775658Y-142042852D01*
X153775658Y-142042853D01*
X153863899Y-142214183D01*
X153869764Y-142225571D01*
X154000426Y-142391911D01*
X154004957Y-142395843D01*
X154004960Y-142395846D01*
X154090880Y-142470403D01*
X154160185Y-142530543D01*
X154165371Y-142533543D01*
X154165375Y-142533546D01*
X154309616Y-142616991D01*
X154343276Y-142636464D01*
X154543093Y-142705852D01*
X154549028Y-142706713D01*
X154549030Y-142706713D01*
X154746486Y-142735343D01*
X154746489Y-142735343D01*
X154752426Y-142736204D01*
X154963721Y-142726424D01*
X155094899Y-142694810D01*
X155163523Y-142678272D01*
X155163525Y-142678271D01*
X155169356Y-142676866D01*
X155174814Y-142674384D01*
X155174818Y-142674383D01*
X155297368Y-142618662D01*
X155361909Y-142589317D01*
X155534433Y-142466937D01*
X155680703Y-142314141D01*
X155795442Y-142136443D01*
X155813806Y-142090876D01*
X156303822Y-142090876D01*
X156308297Y-142106115D01*
X156309687Y-142107320D01*
X156317370Y-142108991D01*
X156889707Y-142108991D01*
X156904946Y-142104516D01*
X156906151Y-142103126D01*
X156907822Y-142095443D01*
X156907822Y-142090876D01*
X157415822Y-142090876D01*
X157420297Y-142106115D01*
X157421687Y-142107320D01*
X157429370Y-142108991D01*
X158001706Y-142108991D01*
X158016945Y-142104516D01*
X158018150Y-142103126D01*
X158019821Y-142095443D01*
X158019821Y-141793322D01*
X158019451Y-141786501D01*
X158013927Y-141735639D01*
X158010301Y-141720387D01*
X157965146Y-141599937D01*
X157956608Y-141584342D01*
X157880107Y-141482267D01*
X157867546Y-141469706D01*
X157765471Y-141393205D01*
X157749876Y-141384667D01*
X157629428Y-141339513D01*
X157614173Y-141335886D01*
X157563308Y-141330360D01*
X157556494Y-141329991D01*
X157433937Y-141329991D01*
X157418698Y-141334466D01*
X157417493Y-141335856D01*
X157415822Y-141343539D01*
X157415822Y-142090876D01*
X156907822Y-142090876D01*
X156907822Y-141348107D01*
X156903347Y-141332868D01*
X156901957Y-141331663D01*
X156894274Y-141329992D01*
X156767153Y-141329992D01*
X156760332Y-141330362D01*
X156709470Y-141335886D01*
X156694218Y-141339512D01*
X156573768Y-141384667D01*
X156558173Y-141393205D01*
X156456098Y-141469706D01*
X156443537Y-141482267D01*
X156367036Y-141584342D01*
X156358498Y-141599937D01*
X156313344Y-141720385D01*
X156309717Y-141735640D01*
X156304191Y-141786505D01*
X156303822Y-141793319D01*
X156303822Y-142090876D01*
X155813806Y-142090876D01*
X155841732Y-142021583D01*
X155872264Y-141945823D01*
X155872265Y-141945820D01*
X155874508Y-141940254D01*
X155915050Y-141732654D01*
X155915322Y-141727092D01*
X155915322Y-140971145D01*
X155900274Y-140813425D01*
X155840730Y-140610457D01*
X155743880Y-140422411D01*
X155613218Y-140256071D01*
X155608686Y-140252138D01*
X155568888Y-140217603D01*
X155530547Y-140157850D01*
X155530598Y-140086853D01*
X155562374Y-140033343D01*
X155627613Y-139968104D01*
X160278823Y-139968104D01*
X160279193Y-139974925D01*
X160284717Y-140025787D01*
X160288343Y-140041039D01*
X160333498Y-140161489D01*
X160342036Y-140177084D01*
X160418537Y-140279159D01*
X160431098Y-140291720D01*
X160533173Y-140368221D01*
X160548768Y-140376759D01*
X160669216Y-140421913D01*
X160684471Y-140425540D01*
X160735336Y-140431066D01*
X160742150Y-140431435D01*
X160964707Y-140431435D01*
X160979946Y-140426960D01*
X160981151Y-140425570D01*
X160982822Y-140417887D01*
X160982822Y-140413319D01*
X161490822Y-140413319D01*
X161495297Y-140428558D01*
X161496687Y-140429763D01*
X161504370Y-140431434D01*
X161731491Y-140431434D01*
X161738312Y-140431064D01*
X161789174Y-140425540D01*
X161804426Y-140421914D01*
X161924876Y-140376759D01*
X161940471Y-140368221D01*
X162042546Y-140291720D01*
X162055107Y-140279159D01*
X162131608Y-140177084D01*
X162140146Y-140161489D01*
X162185300Y-140041041D01*
X162188927Y-140025786D01*
X162194453Y-139974921D01*
X162194822Y-139968107D01*
X162194822Y-139795550D01*
X162190347Y-139780311D01*
X162188957Y-139779106D01*
X162181274Y-139777435D01*
X161508937Y-139777435D01*
X161493698Y-139781910D01*
X161492493Y-139783300D01*
X161490822Y-139790983D01*
X161490822Y-140413319D01*
X160982822Y-140413319D01*
X160982822Y-139795550D01*
X160978347Y-139780311D01*
X160976957Y-139779106D01*
X160969274Y-139777435D01*
X160296938Y-139777435D01*
X160281699Y-139781910D01*
X160280494Y-139783300D01*
X160278823Y-139790983D01*
X160278823Y-139968104D01*
X155627613Y-139968104D01*
X156429486Y-139166231D01*
X156491798Y-139132205D01*
X156562613Y-139137270D01*
X156564464Y-139138117D01*
X156565117Y-139138606D01*
X156567429Y-139139473D01*
X156567434Y-139139475D01*
X156639748Y-139166584D01*
X156701506Y-139189736D01*
X156763688Y-139196491D01*
X157559956Y-139196491D01*
X157622138Y-139189736D01*
X157758527Y-139138606D01*
X157875083Y-139051252D01*
X157962437Y-138934696D01*
X158013567Y-138798307D01*
X158020322Y-138736125D01*
X158020322Y-137589857D01*
X158013567Y-137527675D01*
X157962437Y-137391286D01*
X157875083Y-137274730D01*
X157758527Y-137187376D01*
X157622138Y-137136246D01*
X157559956Y-137129491D01*
X156846322Y-137129491D01*
X156778201Y-137109489D01*
X156731708Y-137055833D01*
X156720322Y-137003491D01*
X156720322Y-135736700D01*
X156740324Y-135668579D01*
X156793980Y-135622086D01*
X156820125Y-135613453D01*
X156855315Y-135605973D01*
X156969110Y-135581785D01*
X157022517Y-135558007D01*
X157137544Y-135506794D01*
X157137546Y-135506793D01*
X157143574Y-135504109D01*
X157298075Y-135391857D01*
X157308762Y-135379988D01*
X157421443Y-135254843D01*
X157421444Y-135254842D01*
X157425862Y-135249935D01*
X157500875Y-135120009D01*
X157518045Y-135090270D01*
X157518046Y-135090269D01*
X157521349Y-135084547D01*
X157580364Y-134902919D01*
X157600326Y-134712991D01*
X157580364Y-134523063D01*
X157521349Y-134341435D01*
X157425862Y-134176047D01*
X157412479Y-134161183D01*
X157302497Y-134039036D01*
X157302496Y-134039035D01*
X157298075Y-134034125D01*
X157143574Y-133921873D01*
X157137546Y-133919189D01*
X157137544Y-133919188D01*
X156975141Y-133846882D01*
X156975140Y-133846882D01*
X156969110Y-133844197D01*
X156869147Y-133822949D01*
X156788766Y-133805863D01*
X156788761Y-133805863D01*
X156782309Y-133804491D01*
X156591335Y-133804491D01*
X156584883Y-133805863D01*
X156584878Y-133805863D01*
X156504497Y-133822949D01*
X156404534Y-133844197D01*
X156398504Y-133846882D01*
X156398503Y-133846882D01*
X156236100Y-133919188D01*
X156236098Y-133919189D01*
X156230070Y-133921873D01*
X156075569Y-134034125D01*
X156071154Y-134039028D01*
X156066242Y-134043451D01*
X156065117Y-134042202D01*
X156011808Y-134075042D01*
X155978622Y-134079491D01*
X154101417Y-134079491D01*
X154033296Y-134059489D01*
X154012322Y-134042586D01*
X153557227Y-133587491D01*
X153523201Y-133525179D01*
X153520322Y-133498396D01*
X153520322Y-93017829D01*
X153540324Y-92949708D01*
X153552686Y-92933519D01*
X153642357Y-92833929D01*
X153642358Y-92833928D01*
X153646776Y-92829021D01*
X153742263Y-92663633D01*
X153801278Y-92482005D01*
X153803590Y-92460014D01*
X153820550Y-92298642D01*
X153821240Y-92292077D01*
X153804869Y-92136317D01*
X153801968Y-92108712D01*
X153801968Y-92108710D01*
X153801278Y-92102149D01*
X153742263Y-91920521D01*
X153646776Y-91755133D01*
X153592918Y-91695317D01*
X153523411Y-91618122D01*
X153523410Y-91618121D01*
X153518989Y-91613211D01*
X153364488Y-91500959D01*
X153358460Y-91498275D01*
X153358458Y-91498274D01*
X153196055Y-91425968D01*
X153196054Y-91425968D01*
X153190024Y-91423283D01*
X153081837Y-91400287D01*
X153009680Y-91384949D01*
X153009675Y-91384949D01*
X153003223Y-91383577D01*
X152812249Y-91383577D01*
X152805797Y-91384949D01*
X152805792Y-91384949D01*
X152733635Y-91400287D01*
X152625448Y-91423283D01*
X152619421Y-91425966D01*
X152619413Y-91425969D01*
X152597572Y-91435694D01*
X152527205Y-91445129D01*
X152462908Y-91415024D01*
X152425094Y-91354935D01*
X152420322Y-91320588D01*
X152420322Y-78515515D01*
X152440324Y-78447394D01*
X152452680Y-78431212D01*
X152525862Y-78349935D01*
X152607400Y-78208707D01*
X152618045Y-78190270D01*
X152618046Y-78190269D01*
X152621349Y-78184547D01*
X152680364Y-78002919D01*
X152682141Y-77986017D01*
X152699636Y-77819556D01*
X152700326Y-77812991D01*
X152689519Y-77710171D01*
X152702291Y-77640335D01*
X152750793Y-77588488D01*
X152814829Y-77571002D01*
X153584908Y-77571002D01*
X153653029Y-77591004D01*
G37*
%TD.AperFunction*%
%TA.AperFunction,Conductor*%
G36*
X152797890Y-138353730D02*
G01*
X152838729Y-138378357D01*
X152848745Y-138387375D01*
X152854653Y-138392695D01*
X153015491Y-138485555D01*
X153088688Y-138509338D01*
X153184112Y-138540343D01*
X153192120Y-138542945D01*
X153198683Y-138543635D01*
X153198684Y-138543635D01*
X153222880Y-138546178D01*
X153330516Y-138557491D01*
X153423128Y-138557491D01*
X153530764Y-138546178D01*
X153554960Y-138543635D01*
X153554961Y-138543635D01*
X153561524Y-138542945D01*
X153569533Y-138540343D01*
X153664956Y-138509338D01*
X153738153Y-138485555D01*
X153898991Y-138392695D01*
X153903895Y-138388280D01*
X153905140Y-138387375D01*
X153972008Y-138363519D01*
X154041159Y-138379602D01*
X154061772Y-138394145D01*
X154160185Y-138479543D01*
X154165371Y-138482543D01*
X154165375Y-138482546D01*
X154291837Y-138555706D01*
X154343276Y-138585464D01*
X154543093Y-138654852D01*
X154549028Y-138655713D01*
X154549030Y-138655713D01*
X154746486Y-138684343D01*
X154746489Y-138684343D01*
X154752426Y-138685204D01*
X154803445Y-138682843D01*
X154811560Y-138682467D01*
X154880533Y-138699298D01*
X154929457Y-138750746D01*
X154942799Y-138820478D01*
X154916324Y-138886353D01*
X154906481Y-138897427D01*
X154861322Y-138942586D01*
X154799010Y-138976612D01*
X154772227Y-138979491D01*
X152590434Y-138979491D01*
X152522313Y-138959489D01*
X152475820Y-138905833D01*
X152465716Y-138835559D01*
X152481315Y-138790491D01*
X152568045Y-138640270D01*
X152568046Y-138640269D01*
X152571349Y-138634547D01*
X152630364Y-138452919D01*
X152631054Y-138446356D01*
X152631173Y-138445795D01*
X152664901Y-138383322D01*
X152727051Y-138349001D01*
X152797890Y-138353730D01*
G37*
%TD.AperFunction*%
%TA.AperFunction,Conductor*%
G36*
X128440349Y-77466493D02*
G01*
X128461323Y-77483396D01*
X130147997Y-79170071D01*
X131783170Y-80805244D01*
X131790710Y-80813530D01*
X131794822Y-80820009D01*
X131800599Y-80825434D01*
X131844473Y-80866634D01*
X131847315Y-80869389D01*
X131867052Y-80889126D01*
X131870249Y-80891606D01*
X131879269Y-80899309D01*
X131911501Y-80929577D01*
X131918447Y-80933396D01*
X131918450Y-80933398D01*
X131929256Y-80939339D01*
X131945775Y-80950190D01*
X131961781Y-80962605D01*
X131969050Y-80965750D01*
X131969054Y-80965753D01*
X132002359Y-80980165D01*
X132013009Y-80985382D01*
X132051762Y-81006686D01*
X132059437Y-81008657D01*
X132059438Y-81008657D01*
X132071384Y-81011724D01*
X132090089Y-81018128D01*
X132108677Y-81026172D01*
X132116500Y-81027411D01*
X132116510Y-81027414D01*
X132152346Y-81033090D01*
X132163966Y-81035496D01*
X132199111Y-81044519D01*
X132206792Y-81046491D01*
X132227046Y-81046491D01*
X132246756Y-81048042D01*
X132266765Y-81051211D01*
X132274657Y-81050465D01*
X132310783Y-81047050D01*
X132322641Y-81046491D01*
X132978622Y-81046491D01*
X133046743Y-81066493D01*
X133065969Y-81082834D01*
X133066242Y-81082531D01*
X133071154Y-81086954D01*
X133075569Y-81091857D01*
X133080908Y-81095736D01*
X133187510Y-81173187D01*
X133230070Y-81204109D01*
X133236098Y-81206793D01*
X133236100Y-81206794D01*
X133389371Y-81275034D01*
X133404534Y-81281785D01*
X133497934Y-81301638D01*
X133584878Y-81320119D01*
X133584883Y-81320119D01*
X133591335Y-81321491D01*
X133782309Y-81321491D01*
X133788761Y-81320119D01*
X133788766Y-81320119D01*
X133875710Y-81301638D01*
X133969110Y-81281785D01*
X133984273Y-81275034D01*
X134137544Y-81206794D01*
X134137546Y-81206793D01*
X134143574Y-81204109D01*
X134186135Y-81173187D01*
X134292736Y-81095736D01*
X134298075Y-81091857D01*
X134302490Y-81086954D01*
X134307402Y-81082531D01*
X134308527Y-81083780D01*
X134361836Y-81050940D01*
X134395022Y-81046491D01*
X135672228Y-81046491D01*
X135740349Y-81066493D01*
X135761323Y-81083396D01*
X142916417Y-88238491D01*
X142950443Y-88300803D01*
X142953322Y-88327586D01*
X142953322Y-89013842D01*
X142933320Y-89081963D01*
X142879664Y-89128456D01*
X142809390Y-89138560D01*
X142744810Y-89109066D01*
X142738227Y-89102937D01*
X139425561Y-85790270D01*
X136085707Y-82450416D01*
X136051681Y-82388104D01*
X136049492Y-82374491D01*
X136048189Y-82362088D01*
X136032997Y-82217543D01*
X136030299Y-82191875D01*
X136030299Y-82191873D01*
X136029609Y-82185312D01*
X135970594Y-82003684D01*
X135966963Y-81997394D01*
X135878408Y-81844014D01*
X135875107Y-81838296D01*
X135799670Y-81754514D01*
X135751742Y-81701285D01*
X135751741Y-81701284D01*
X135747320Y-81696374D01*
X135638751Y-81617494D01*
X135598161Y-81588003D01*
X135598160Y-81588002D01*
X135592819Y-81584122D01*
X135586791Y-81581438D01*
X135586789Y-81581437D01*
X135424386Y-81509131D01*
X135424385Y-81509131D01*
X135418355Y-81506446D01*
X135324954Y-81486593D01*
X135238011Y-81468112D01*
X135238006Y-81468112D01*
X135231554Y-81466740D01*
X135040580Y-81466740D01*
X135034128Y-81468112D01*
X135034123Y-81468112D01*
X134947180Y-81486593D01*
X134853779Y-81506446D01*
X134847749Y-81509131D01*
X134847748Y-81509131D01*
X134685345Y-81581437D01*
X134685343Y-81581438D01*
X134679315Y-81584122D01*
X134673974Y-81588002D01*
X134673973Y-81588003D01*
X134633383Y-81617494D01*
X134524814Y-81696374D01*
X134520393Y-81701284D01*
X134520392Y-81701285D01*
X134472465Y-81754514D01*
X134397027Y-81838296D01*
X134393726Y-81844014D01*
X134305172Y-81997394D01*
X134301540Y-82003684D01*
X134242525Y-82185312D01*
X134241835Y-82191873D01*
X134241835Y-82191875D01*
X134234365Y-82262950D01*
X134222563Y-82375240D01*
X134242525Y-82565168D01*
X134301540Y-82746796D01*
X134397027Y-82912184D01*
X134442929Y-82963164D01*
X134473645Y-83027169D01*
X134464882Y-83097622D01*
X134423353Y-83149408D01*
X134392419Y-83171883D01*
X134375569Y-83184125D01*
X134247782Y-83326047D01*
X134152295Y-83491435D01*
X134093280Y-83673063D01*
X134092590Y-83679624D01*
X134092590Y-83679626D01*
X134074008Y-83856426D01*
X134073318Y-83862991D01*
X134093280Y-84052919D01*
X134152295Y-84234547D01*
X134155598Y-84240269D01*
X134155599Y-84240270D01*
X134203202Y-84322720D01*
X134219940Y-84391715D01*
X134196720Y-84458807D01*
X134140913Y-84502694D01*
X134120287Y-84508965D01*
X133954534Y-84544197D01*
X133948504Y-84546882D01*
X133948503Y-84546882D01*
X133786100Y-84619188D01*
X133786098Y-84619189D01*
X133780070Y-84621873D01*
X133625569Y-84734125D01*
X133621148Y-84739035D01*
X133621147Y-84739036D01*
X133533071Y-84836855D01*
X133497782Y-84876047D01*
X133402295Y-85041435D01*
X133343280Y-85223063D01*
X133342590Y-85229624D01*
X133342590Y-85229626D01*
X133324008Y-85406426D01*
X133323318Y-85412991D01*
X133343280Y-85602919D01*
X133402295Y-85784547D01*
X133497782Y-85949935D01*
X133577268Y-86038213D01*
X133607985Y-86102221D01*
X133599220Y-86172674D01*
X133557692Y-86224459D01*
X133475569Y-86284125D01*
X133471148Y-86289035D01*
X133471147Y-86289036D01*
X133416213Y-86350047D01*
X133347782Y-86426047D01*
X133252295Y-86591435D01*
X133193280Y-86773063D01*
X133192590Y-86779624D01*
X133192590Y-86779626D01*
X133178278Y-86915798D01*
X133173318Y-86962991D01*
X133174008Y-86969556D01*
X133187825Y-87101013D01*
X133193280Y-87152919D01*
X133252295Y-87334547D01*
X133347782Y-87499935D01*
X133352200Y-87504842D01*
X133352201Y-87504843D01*
X133457356Y-87621629D01*
X133475569Y-87641857D01*
X133630070Y-87754109D01*
X133636098Y-87756793D01*
X133636100Y-87756794D01*
X133798503Y-87829100D01*
X133804534Y-87831785D01*
X133897934Y-87851638D01*
X133984878Y-87870119D01*
X133984883Y-87870119D01*
X133991335Y-87871491D01*
X134047228Y-87871491D01*
X134115349Y-87891493D01*
X134136323Y-87908396D01*
X138216417Y-91988491D01*
X138250443Y-92050803D01*
X138253322Y-92077586D01*
X138253322Y-99160467D01*
X138233320Y-99228588D01*
X138220964Y-99244770D01*
X138147782Y-99326047D01*
X138052295Y-99491435D01*
X137993280Y-99673063D01*
X137992590Y-99679624D01*
X137992590Y-99679626D01*
X137981411Y-99785992D01*
X137973318Y-99862991D01*
X137974008Y-99869556D01*
X137986066Y-99984278D01*
X137993280Y-100052919D01*
X138052295Y-100234547D01*
X138055598Y-100240269D01*
X138055599Y-100240270D01*
X138066267Y-100258748D01*
X138147782Y-100399935D01*
X138152200Y-100404842D01*
X138152201Y-100404843D01*
X138248660Y-100511972D01*
X138275569Y-100541857D01*
X138430070Y-100654109D01*
X138436098Y-100656793D01*
X138436100Y-100656794D01*
X138598503Y-100729100D01*
X138604534Y-100731785D01*
X138693047Y-100750599D01*
X138712697Y-100754776D01*
X138775171Y-100788505D01*
X138809492Y-100850654D01*
X138812500Y-100878023D01*
X138812500Y-112743402D01*
X138811973Y-112754585D01*
X138810298Y-112762078D01*
X138810547Y-112770004D01*
X138810547Y-112770005D01*
X138812438Y-112830155D01*
X138812500Y-112834114D01*
X138812500Y-112862025D01*
X138812997Y-112865959D01*
X138812997Y-112865960D01*
X138813005Y-112866025D01*
X138813938Y-112877862D01*
X138815327Y-112922058D01*
X138819729Y-112937210D01*
X138820978Y-112941508D01*
X138824987Y-112960869D01*
X138827526Y-112980966D01*
X138830445Y-112988337D01*
X138830445Y-112988339D01*
X138843804Y-113022081D01*
X138847649Y-113033311D01*
X138859982Y-113075762D01*
X138864015Y-113082581D01*
X138864017Y-113082586D01*
X138870293Y-113093197D01*
X138878988Y-113110945D01*
X138886448Y-113129786D01*
X138891110Y-113136202D01*
X138891110Y-113136203D01*
X138912436Y-113165556D01*
X138918952Y-113175476D01*
X138941458Y-113213531D01*
X138947065Y-113219138D01*
X138950101Y-113223052D01*
X138975853Y-113287110D01*
X138992067Y-113441374D01*
X138993280Y-113452919D01*
X139052295Y-113634547D01*
X139147782Y-113799935D01*
X139275569Y-113941857D01*
X139374665Y-114013855D01*
X139413207Y-114041857D01*
X139430070Y-114054109D01*
X139436098Y-114056793D01*
X139436100Y-114056794D01*
X139513578Y-114091289D01*
X139604534Y-114131785D01*
X139675922Y-114146959D01*
X139784878Y-114170119D01*
X139784883Y-114170119D01*
X139791335Y-114171491D01*
X139982309Y-114171491D01*
X139988761Y-114170119D01*
X139988766Y-114170119D01*
X140097722Y-114146959D01*
X140169110Y-114131785D01*
X140260066Y-114091289D01*
X140337544Y-114056794D01*
X140337546Y-114056793D01*
X140343574Y-114054109D01*
X140360438Y-114041857D01*
X140398979Y-114013855D01*
X140498075Y-113941857D01*
X140543186Y-113891756D01*
X140603632Y-113854516D01*
X140674615Y-113855868D01*
X140730458Y-113891756D01*
X140775569Y-113941857D01*
X140874665Y-114013855D01*
X140913207Y-114041857D01*
X140930070Y-114054109D01*
X140936098Y-114056793D01*
X140936100Y-114056794D01*
X141013578Y-114091289D01*
X141104534Y-114131785D01*
X141175922Y-114146959D01*
X141284878Y-114170119D01*
X141284883Y-114170119D01*
X141291335Y-114171491D01*
X141482309Y-114171491D01*
X141488761Y-114170119D01*
X141488766Y-114170119D01*
X141597722Y-114146959D01*
X141669110Y-114131785D01*
X141675137Y-114129102D01*
X141675145Y-114129099D01*
X141807412Y-114070210D01*
X141877779Y-114060776D01*
X141932721Y-114083381D01*
X142020185Y-114146927D01*
X142030070Y-114154109D01*
X142036098Y-114156793D01*
X142036100Y-114156794D01*
X142095816Y-114183381D01*
X142204534Y-114231785D01*
X142291301Y-114250228D01*
X142384878Y-114270119D01*
X142384883Y-114270119D01*
X142391335Y-114271491D01*
X142582309Y-114271491D01*
X142588761Y-114270119D01*
X142588766Y-114270119D01*
X142682343Y-114250228D01*
X142769110Y-114231785D01*
X142775137Y-114229102D01*
X142775145Y-114229099D01*
X142907412Y-114170210D01*
X142977779Y-114160776D01*
X143032721Y-114183381D01*
X143101232Y-114233157D01*
X143130070Y-114254109D01*
X143136098Y-114256793D01*
X143136100Y-114256794D01*
X143298503Y-114329100D01*
X143304534Y-114331785D01*
X143397934Y-114351638D01*
X143484878Y-114370119D01*
X143484883Y-114370119D01*
X143491335Y-114371491D01*
X143682309Y-114371491D01*
X143688761Y-114370119D01*
X143688766Y-114370119D01*
X143775710Y-114351638D01*
X143869110Y-114331785D01*
X143875141Y-114329100D01*
X144037544Y-114256794D01*
X144037546Y-114256793D01*
X144043574Y-114254109D01*
X144181581Y-114153841D01*
X144248447Y-114129983D01*
X144317599Y-114146063D01*
X144318992Y-114146959D01*
X144319011Y-114146927D01*
X144324729Y-114150228D01*
X144330070Y-114154109D01*
X144336098Y-114156793D01*
X144336100Y-114156794D01*
X144395816Y-114183381D01*
X144504534Y-114231785D01*
X144591301Y-114250228D01*
X144684878Y-114270119D01*
X144684883Y-114270119D01*
X144691335Y-114271491D01*
X144882309Y-114271491D01*
X144888761Y-114270119D01*
X144888766Y-114270119D01*
X144982343Y-114250228D01*
X145069110Y-114231785D01*
X145177828Y-114183381D01*
X145237544Y-114156794D01*
X145237546Y-114156793D01*
X145243574Y-114154109D01*
X145254649Y-114146063D01*
X145340922Y-114083381D01*
X145398075Y-114041857D01*
X145525862Y-113899935D01*
X145621349Y-113734547D01*
X145680364Y-113552919D01*
X145690215Y-113459197D01*
X145699636Y-113369556D01*
X145700326Y-113362991D01*
X145689816Y-113262991D01*
X145681054Y-113179626D01*
X145681054Y-113179624D01*
X145680364Y-113173063D01*
X145621349Y-112991435D01*
X145525862Y-112826047D01*
X145452685Y-112744776D01*
X145421969Y-112680770D01*
X145420322Y-112660467D01*
X145420322Y-109396585D01*
X145440324Y-109328464D01*
X145493980Y-109281971D01*
X145564254Y-109271867D01*
X145628834Y-109301361D01*
X145635417Y-109307490D01*
X148039700Y-111711773D01*
X148073726Y-111774085D01*
X148075914Y-111787694D01*
X148093280Y-111952919D01*
X148152295Y-112134547D01*
X148155598Y-112140269D01*
X148155599Y-112140270D01*
X148163132Y-112153318D01*
X148247782Y-112299935D01*
X148252200Y-112304842D01*
X148252201Y-112304843D01*
X148283872Y-112340017D01*
X148375569Y-112441857D01*
X148456990Y-112501013D01*
X148486822Y-112522687D01*
X148530070Y-112554109D01*
X148536098Y-112556793D01*
X148536100Y-112556794D01*
X148695810Y-112627901D01*
X148704534Y-112631785D01*
X148791061Y-112650177D01*
X148884878Y-112670119D01*
X148884883Y-112670119D01*
X148891335Y-112671491D01*
X149082309Y-112671491D01*
X149088761Y-112670119D01*
X149088766Y-112670119D01*
X149182583Y-112650177D01*
X149269110Y-112631785D01*
X149287326Y-112623675D01*
X149365126Y-112589036D01*
X149435574Y-112557671D01*
X149505940Y-112548237D01*
X149538069Y-112557671D01*
X149608518Y-112589036D01*
X149686319Y-112623675D01*
X149704534Y-112631785D01*
X149791061Y-112650177D01*
X149884878Y-112670119D01*
X149884883Y-112670119D01*
X149891335Y-112671491D01*
X150082309Y-112671491D01*
X150100215Y-112667685D01*
X150125637Y-112662282D01*
X150196428Y-112667685D01*
X150253060Y-112710502D01*
X150277553Y-112777140D01*
X150277833Y-112785529D01*
X150277833Y-121570073D01*
X150257831Y-121638194D01*
X150240928Y-121659168D01*
X147065363Y-124834732D01*
X147003051Y-124868758D01*
X146932235Y-124863693D01*
X146875400Y-124821146D01*
X146867545Y-124809318D01*
X146863879Y-124803059D01*
X146858164Y-124792103D01*
X146855788Y-124786946D01*
X146848797Y-124771772D01*
X146842901Y-124764997D01*
X146838030Y-124757465D01*
X146838531Y-124757141D01*
X146831892Y-124747513D01*
X146825564Y-124735683D01*
X146822907Y-124732065D01*
X146820863Y-124728821D01*
X146816598Y-124722333D01*
X146813471Y-124716994D01*
X146810396Y-124713225D01*
X146810390Y-124713216D01*
X146802879Y-124704009D01*
X146795802Y-124694445D01*
X146794220Y-124692082D01*
X146790339Y-124683996D01*
X146784343Y-124677323D01*
X146784340Y-124677319D01*
X146779551Y-124671989D01*
X146771719Y-124662358D01*
X146766561Y-124655334D01*
X146766559Y-124655332D01*
X146761246Y-124648097D01*
X146754115Y-124642643D01*
X146750426Y-124638882D01*
X146742752Y-124630306D01*
X146737230Y-124623537D01*
X146737229Y-124623536D01*
X146734395Y-124620062D01*
X146730033Y-124616045D01*
X146721677Y-124607586D01*
X146718861Y-124604452D01*
X146715609Y-124600833D01*
X146702022Y-124589749D01*
X146694390Y-124582834D01*
X146689622Y-124576440D01*
X146682455Y-124571041D01*
X146682451Y-124571037D01*
X146680331Y-124569440D01*
X146670795Y-124561490D01*
X146661067Y-124552531D01*
X146661064Y-124552529D01*
X146654462Y-124546449D01*
X146646418Y-124542466D01*
X146639017Y-124537381D01*
X146639342Y-124536907D01*
X146629420Y-124530520D01*
X146622146Y-124524586D01*
X146622145Y-124524586D01*
X146618678Y-124521757D01*
X146614844Y-124519449D01*
X146611707Y-124517241D01*
X146605263Y-124512891D01*
X146600320Y-124509167D01*
X146585727Y-124501361D01*
X146575449Y-124495219D01*
X146573442Y-124493886D01*
X146566742Y-124487909D01*
X146553646Y-124481680D01*
X146552013Y-124480903D01*
X146541130Y-124475057D01*
X146533274Y-124470326D01*
X146525589Y-124465698D01*
X146516912Y-124463412D01*
X146512059Y-124461362D01*
X146501683Y-124456408D01*
X146490256Y-124450296D01*
X146486037Y-124448761D01*
X146484853Y-124448330D01*
X146473816Y-124443710D01*
X146472799Y-124443227D01*
X146465774Y-124439885D01*
X146448790Y-124434826D01*
X146440877Y-124431991D01*
X146434921Y-124428416D01*
X146423423Y-124425405D01*
X146412266Y-124421923D01*
X146396573Y-124416213D01*
X146396570Y-124416212D01*
X146388139Y-124413145D01*
X146379183Y-124412567D01*
X146370397Y-124410725D01*
X146370519Y-124410142D01*
X146359004Y-124408081D01*
X146350186Y-124405455D01*
X146350184Y-124405455D01*
X146345885Y-124404174D01*
X146341453Y-124403516D01*
X146337077Y-124402545D01*
X146337097Y-124402453D01*
X146332324Y-124401477D01*
X146331481Y-124401325D01*
X146326763Y-124400089D01*
X146307294Y-124398102D01*
X146302631Y-124397626D01*
X146296964Y-124396917D01*
X146238396Y-124388230D01*
X146231519Y-124389180D01*
X146230956Y-124389157D01*
X146226399Y-124388447D01*
X146219087Y-124388447D01*
X146207223Y-124387843D01*
X146206558Y-124387823D01*
X146202102Y-124387368D01*
X146180860Y-124388230D01*
X146178075Y-124388343D01*
X146172966Y-124388447D01*
X133804332Y-124388447D01*
X133797686Y-124388272D01*
X133779480Y-124387310D01*
X133779474Y-124387310D01*
X133774625Y-124387054D01*
X133767484Y-124387783D01*
X133767353Y-124387796D01*
X133755468Y-124388401D01*
X133754822Y-124388447D01*
X133750345Y-124388447D01*
X133746539Y-124388992D01*
X133741518Y-124388236D01*
X133732620Y-124389445D01*
X133678683Y-124396773D01*
X133674512Y-124397269D01*
X133668124Y-124397921D01*
X133649964Y-124399774D01*
X133645610Y-124400858D01*
X133641191Y-124401629D01*
X133641174Y-124401534D01*
X133636463Y-124402438D01*
X133635556Y-124402633D01*
X133630730Y-124403289D01*
X133614606Y-124408092D01*
X133602984Y-124410960D01*
X133600615Y-124411426D01*
X133591649Y-124411895D01*
X133583180Y-124414859D01*
X133583176Y-124414860D01*
X133573500Y-124418247D01*
X133562313Y-124421589D01*
X133544516Y-124426019D01*
X133536762Y-124430546D01*
X133535664Y-124430992D01*
X133524175Y-124435028D01*
X133515137Y-124437720D01*
X133515133Y-124437722D01*
X133510841Y-124439000D01*
X133505607Y-124441412D01*
X133494511Y-124445897D01*
X133486121Y-124448834D01*
X133481829Y-124451130D01*
X133470915Y-124456968D01*
X133461584Y-124461354D01*
X133453845Y-124463292D01*
X133443424Y-124469396D01*
X133432479Y-124475104D01*
X133412147Y-124484472D01*
X133405372Y-124490368D01*
X133397840Y-124495239D01*
X133397516Y-124494738D01*
X133387888Y-124501377D01*
X133376058Y-124507705D01*
X133372440Y-124510362D01*
X133369196Y-124512406D01*
X133362710Y-124516670D01*
X133357369Y-124519798D01*
X133353600Y-124522873D01*
X133353591Y-124522879D01*
X133344384Y-124530390D01*
X133334820Y-124537467D01*
X133332457Y-124539049D01*
X133324371Y-124542930D01*
X133317698Y-124548926D01*
X133317694Y-124548929D01*
X133312364Y-124553718D01*
X133302733Y-124561550D01*
X133295709Y-124566708D01*
X133295707Y-124566710D01*
X133288472Y-124572023D01*
X133283018Y-124579154D01*
X133279257Y-124582843D01*
X133270681Y-124590517D01*
X133260437Y-124598874D01*
X133257401Y-124602171D01*
X133256422Y-124603234D01*
X133247963Y-124611590D01*
X133241208Y-124617660D01*
X133230891Y-124630306D01*
X133230127Y-124631243D01*
X133223209Y-124638879D01*
X133216815Y-124643647D01*
X133211416Y-124650814D01*
X133211412Y-124650818D01*
X133209815Y-124652938D01*
X133201865Y-124662474D01*
X133192906Y-124672202D01*
X133192904Y-124672205D01*
X133186824Y-124678807D01*
X133182841Y-124686851D01*
X133177756Y-124694252D01*
X133177282Y-124693927D01*
X133170895Y-124703849D01*
X133162132Y-124714591D01*
X133159824Y-124718425D01*
X133157616Y-124721562D01*
X133153266Y-124728006D01*
X133149542Y-124732949D01*
X133147244Y-124737244D01*
X133147244Y-124737245D01*
X133141736Y-124747542D01*
X133135594Y-124757820D01*
X133134261Y-124759827D01*
X133128284Y-124766527D01*
X133124427Y-124774636D01*
X133121278Y-124781256D01*
X133115433Y-124792138D01*
X133106073Y-124807680D01*
X133103787Y-124816357D01*
X133101737Y-124821210D01*
X133096783Y-124831586D01*
X133090671Y-124843013D01*
X133089137Y-124847230D01*
X133089136Y-124847232D01*
X133088705Y-124848416D01*
X133084085Y-124859453D01*
X133083602Y-124860470D01*
X133080260Y-124867495D01*
X133078872Y-124872156D01*
X133075201Y-124884479D01*
X133072366Y-124892392D01*
X133068791Y-124898348D01*
X133065782Y-124909839D01*
X133062299Y-124921000D01*
X133053520Y-124945130D01*
X133052942Y-124954086D01*
X133051100Y-124962872D01*
X133050517Y-124962750D01*
X133048456Y-124974265D01*
X133046217Y-124981785D01*
X133044549Y-124987384D01*
X133043891Y-124991816D01*
X133042920Y-124996192D01*
X133042828Y-124996172D01*
X133041852Y-125000945D01*
X133041699Y-125001788D01*
X133040464Y-125006506D01*
X133039970Y-125011351D01*
X133039969Y-125011354D01*
X133038756Y-125023243D01*
X133037018Y-125034875D01*
X133036299Y-125038516D01*
X133033326Y-125046993D01*
X133032852Y-125055959D01*
X133032851Y-125055966D01*
X133032322Y-125065976D01*
X133031135Y-125077811D01*
X133029921Y-125085995D01*
X133029921Y-125086000D01*
X133028605Y-125094873D01*
X133029833Y-125103762D01*
X133029827Y-125104942D01*
X133029178Y-125117099D01*
X133027743Y-125131167D01*
X133027999Y-125137475D01*
X133027927Y-125149208D01*
X133027685Y-125153786D01*
X133027685Y-125153792D01*
X133027429Y-125158643D01*
X133029249Y-125176473D01*
X133029646Y-125184878D01*
X133028611Y-125191751D01*
X133029820Y-125200649D01*
X133029820Y-125200653D01*
X133030077Y-125202544D01*
X133031121Y-125214402D01*
X133032149Y-125239743D01*
X133035018Y-125248255D01*
X133036649Y-125257079D01*
X133036134Y-125257174D01*
X133038682Y-125268929D01*
X133040149Y-125283304D01*
X133041231Y-125287651D01*
X133042001Y-125292064D01*
X133041908Y-125292080D01*
X133042826Y-125296871D01*
X133043009Y-125297722D01*
X133043664Y-125302539D01*
X133045050Y-125307191D01*
X133045051Y-125307197D01*
X133048469Y-125318670D01*
X133051337Y-125330290D01*
X133051802Y-125332652D01*
X133052271Y-125341620D01*
X133055238Y-125350096D01*
X133058617Y-125359749D01*
X133061961Y-125370941D01*
X133066394Y-125388753D01*
X133070921Y-125396507D01*
X133071367Y-125397604D01*
X133075400Y-125409083D01*
X133079375Y-125422428D01*
X133081787Y-125427662D01*
X133086272Y-125438757D01*
X133089209Y-125447148D01*
X133097353Y-125462374D01*
X133101730Y-125471686D01*
X133103667Y-125479424D01*
X133108204Y-125487169D01*
X133108205Y-125487173D01*
X133109767Y-125489839D01*
X133115485Y-125500800D01*
X133121091Y-125512969D01*
X133121093Y-125512972D01*
X133124848Y-125521122D01*
X133130743Y-125527894D01*
X133135614Y-125535427D01*
X133135112Y-125535752D01*
X133141754Y-125545384D01*
X133148080Y-125557211D01*
X133150735Y-125560826D01*
X133152818Y-125564132D01*
X133157040Y-125570553D01*
X133157707Y-125571692D01*
X133157713Y-125571701D01*
X133160173Y-125575901D01*
X133163256Y-125579680D01*
X133163258Y-125579683D01*
X133170762Y-125588882D01*
X133177840Y-125598446D01*
X133179422Y-125600810D01*
X133183305Y-125608898D01*
X133194095Y-125620906D01*
X133201919Y-125630527D01*
X133212399Y-125644797D01*
X133219524Y-125650246D01*
X133223219Y-125654014D01*
X133230889Y-125662585D01*
X133239249Y-125672832D01*
X133242546Y-125675868D01*
X133243609Y-125676847D01*
X133251965Y-125685306D01*
X133258035Y-125692061D01*
X133261806Y-125695137D01*
X133271622Y-125703145D01*
X133279256Y-125710062D01*
X133284022Y-125716454D01*
X133291193Y-125721856D01*
X133291195Y-125721858D01*
X133293313Y-125723454D01*
X133302849Y-125731404D01*
X133312577Y-125740363D01*
X133312580Y-125740365D01*
X133319182Y-125746445D01*
X133327226Y-125750428D01*
X133334627Y-125755513D01*
X133334301Y-125755988D01*
X133344230Y-125762378D01*
X133351493Y-125768304D01*
X133351502Y-125768310D01*
X133354967Y-125771137D01*
X133358799Y-125773445D01*
X133361953Y-125775664D01*
X133368377Y-125780000D01*
X133373324Y-125783727D01*
X133387920Y-125791534D01*
X133398188Y-125797670D01*
X133400204Y-125799009D01*
X133406903Y-125804985D01*
X133421643Y-125811996D01*
X133432510Y-125817835D01*
X133448055Y-125827196D01*
X133456730Y-125829481D01*
X133461590Y-125831535D01*
X133471970Y-125836491D01*
X133479426Y-125840479D01*
X133483388Y-125842598D01*
X133487613Y-125844135D01*
X133488791Y-125844564D01*
X133499828Y-125849184D01*
X133507870Y-125853009D01*
X133512527Y-125854396D01*
X133512537Y-125854400D01*
X133524843Y-125858065D01*
X133532766Y-125860902D01*
X133538722Y-125864478D01*
X133550244Y-125867496D01*
X133561377Y-125870971D01*
X133566015Y-125872658D01*
X133577071Y-125876681D01*
X133577074Y-125876682D01*
X133585505Y-125879749D01*
X133594461Y-125880327D01*
X133603246Y-125882169D01*
X133603124Y-125882753D01*
X133614643Y-125884813D01*
X133627759Y-125888720D01*
X133632203Y-125889379D01*
X133636574Y-125890349D01*
X133636553Y-125890443D01*
X133641277Y-125891409D01*
X133642161Y-125891569D01*
X133646880Y-125892805D01*
X133670999Y-125895266D01*
X133676673Y-125895976D01*
X133735249Y-125904665D01*
X133742132Y-125903715D01*
X133742685Y-125903737D01*
X133747245Y-125904447D01*
X133754556Y-125904447D01*
X133766420Y-125905051D01*
X133767085Y-125905071D01*
X133771541Y-125905526D01*
X133795568Y-125904551D01*
X133800677Y-125904447D01*
X145691458Y-125904447D01*
X145759579Y-125924449D01*
X145806072Y-125978105D01*
X145816176Y-126048379D01*
X145786682Y-126112959D01*
X145780553Y-126119542D01*
X145757509Y-126142586D01*
X145695197Y-126176612D01*
X145668414Y-126179491D01*
X137230028Y-126179491D01*
X137218845Y-126178964D01*
X137211352Y-126177289D01*
X137203426Y-126177538D01*
X137203425Y-126177538D01*
X137143262Y-126179429D01*
X137139304Y-126179491D01*
X137111404Y-126179491D01*
X137107414Y-126179995D01*
X137095580Y-126180927D01*
X137051371Y-126182317D01*
X137043755Y-126184530D01*
X137043753Y-126184530D01*
X137031912Y-126187970D01*
X137012553Y-126191979D01*
X137011243Y-126192145D01*
X136992463Y-126194517D01*
X136985097Y-126197433D01*
X136985091Y-126197435D01*
X136951358Y-126210791D01*
X136940128Y-126214636D01*
X136905277Y-126224761D01*
X136897667Y-126226972D01*
X136890844Y-126231007D01*
X136880226Y-126237286D01*
X136862473Y-126245983D01*
X136854828Y-126249010D01*
X136843643Y-126253439D01*
X136837228Y-126258100D01*
X136807872Y-126279428D01*
X136797955Y-126285942D01*
X136759898Y-126308449D01*
X136745577Y-126322770D01*
X136730544Y-126335610D01*
X136714153Y-126347519D01*
X136709102Y-126353625D01*
X136685962Y-126381596D01*
X136677972Y-126390375D01*
X135612082Y-127456264D01*
X135549770Y-127490290D01*
X135522987Y-127493169D01*
X135064448Y-127493169D01*
X135002266Y-127499924D01*
X134954996Y-127517645D01*
X134874281Y-127547903D01*
X134874278Y-127547905D01*
X134865877Y-127551054D01*
X134865618Y-127550362D01*
X134803208Y-127564012D01*
X134759197Y-127551089D01*
X134759044Y-127551497D01*
X134753470Y-127549407D01*
X134751548Y-127548843D01*
X134750643Y-127548348D01*
X134630188Y-127503191D01*
X134614933Y-127499564D01*
X134564068Y-127494038D01*
X134557254Y-127493669D01*
X134384697Y-127493669D01*
X134369458Y-127498144D01*
X134368253Y-127499534D01*
X134366582Y-127507217D01*
X134366582Y-129391553D01*
X134371057Y-129406792D01*
X134372447Y-129407997D01*
X134380130Y-129409668D01*
X134557251Y-129409668D01*
X134564072Y-129409298D01*
X134614934Y-129403774D01*
X134630185Y-129400148D01*
X134708852Y-129370657D01*
X134779659Y-129365474D01*
X134842028Y-129399395D01*
X134876158Y-129461650D01*
X134879082Y-129488639D01*
X134879082Y-130784984D01*
X134878555Y-130796167D01*
X134876880Y-130803660D01*
X134877129Y-130811586D01*
X134877129Y-130811587D01*
X134879020Y-130871737D01*
X134879082Y-130875696D01*
X134879082Y-130903607D01*
X134879579Y-130907541D01*
X134879579Y-130907542D01*
X134879587Y-130907607D01*
X134880520Y-130919444D01*
X134881909Y-130963640D01*
X134886045Y-130977875D01*
X134887560Y-130983090D01*
X134891569Y-131002451D01*
X134894108Y-131022548D01*
X134897027Y-131029919D01*
X134897027Y-131029921D01*
X134910386Y-131063663D01*
X134914231Y-131074893D01*
X134926564Y-131117344D01*
X134930597Y-131124163D01*
X134930599Y-131124168D01*
X134936875Y-131134779D01*
X134945570Y-131152527D01*
X134953030Y-131171368D01*
X134957692Y-131177784D01*
X134957692Y-131177785D01*
X134979018Y-131207138D01*
X134985534Y-131217058D01*
X134999870Y-131241298D01*
X135008040Y-131255113D01*
X135022361Y-131269434D01*
X135035201Y-131284467D01*
X135047110Y-131300858D01*
X135053214Y-131305908D01*
X135053219Y-131305913D01*
X135081180Y-131329044D01*
X135089961Y-131337034D01*
X135816418Y-132063492D01*
X135850443Y-132125804D01*
X135853322Y-132152587D01*
X135853322Y-132636125D01*
X135860077Y-132698307D01*
X135911207Y-132834696D01*
X135998561Y-132951252D01*
X136115117Y-133038606D01*
X136251506Y-133089736D01*
X136313688Y-133096491D01*
X137459956Y-133096491D01*
X137522138Y-133089736D01*
X137658527Y-133038606D01*
X137775083Y-132951252D01*
X137862437Y-132834696D01*
X137913567Y-132698307D01*
X137914890Y-132686125D01*
X141053322Y-132686125D01*
X141060077Y-132748307D01*
X141111207Y-132884696D01*
X141198561Y-133001252D01*
X141315117Y-133088606D01*
X141451506Y-133139736D01*
X141513688Y-133146491D01*
X142659956Y-133146491D01*
X142722138Y-133139736D01*
X142858527Y-133088606D01*
X142975083Y-133001252D01*
X143062437Y-132884696D01*
X143113567Y-132748307D01*
X143120322Y-132686125D01*
X143120322Y-131889857D01*
X143113567Y-131827675D01*
X143062437Y-131691286D01*
X142975083Y-131574730D01*
X142858527Y-131487376D01*
X142722138Y-131436246D01*
X142659956Y-131429491D01*
X141513688Y-131429491D01*
X141451506Y-131436246D01*
X141315117Y-131487376D01*
X141198561Y-131574730D01*
X141111207Y-131691286D01*
X141060077Y-131827675D01*
X141053322Y-131889857D01*
X141053322Y-132686125D01*
X137914890Y-132686125D01*
X137920322Y-132636125D01*
X137920322Y-131839857D01*
X137913567Y-131777675D01*
X137862437Y-131641286D01*
X137775083Y-131524730D01*
X137658527Y-131437376D01*
X137522138Y-131386246D01*
X137459956Y-131379491D01*
X136976417Y-131379491D01*
X136908296Y-131359489D01*
X136887321Y-131342586D01*
X136706322Y-131161586D01*
X136672297Y-131099274D01*
X136677362Y-131028458D01*
X136719909Y-130971623D01*
X136786430Y-130946812D01*
X136795418Y-130946491D01*
X137459956Y-130946491D01*
X137522138Y-130939736D01*
X137658527Y-130888606D01*
X137775083Y-130801252D01*
X137862437Y-130684696D01*
X137913567Y-130548307D01*
X137915267Y-130532660D01*
X141053823Y-130532660D01*
X141054193Y-130539481D01*
X141059717Y-130590343D01*
X141063343Y-130605595D01*
X141108498Y-130726045D01*
X141117036Y-130741640D01*
X141193537Y-130843715D01*
X141206098Y-130856276D01*
X141308173Y-130932777D01*
X141323768Y-130941315D01*
X141444216Y-130986469D01*
X141459471Y-130990096D01*
X141510336Y-130995622D01*
X141517150Y-130995991D01*
X141814707Y-130995991D01*
X141829946Y-130991516D01*
X141831151Y-130990126D01*
X141832822Y-130982443D01*
X141832822Y-130977875D01*
X142340822Y-130977875D01*
X142345297Y-130993114D01*
X142346687Y-130994319D01*
X142354370Y-130995990D01*
X142656491Y-130995990D01*
X142663312Y-130995620D01*
X142714174Y-130990096D01*
X142729426Y-130986470D01*
X142849876Y-130941315D01*
X142865471Y-130932777D01*
X142967546Y-130856276D01*
X142980107Y-130843715D01*
X143056608Y-130741640D01*
X143065146Y-130726045D01*
X143110300Y-130605597D01*
X143113927Y-130590342D01*
X143119453Y-130539477D01*
X143119822Y-130532660D01*
X143119822Y-130410106D01*
X143115347Y-130394867D01*
X143113957Y-130393662D01*
X143106274Y-130391991D01*
X142358937Y-130391991D01*
X142343698Y-130396466D01*
X142342493Y-130397856D01*
X142340822Y-130405539D01*
X142340822Y-130977875D01*
X141832822Y-130977875D01*
X141832822Y-130410106D01*
X141828347Y-130394867D01*
X141826957Y-130393662D01*
X141819274Y-130391991D01*
X141071938Y-130391991D01*
X141056699Y-130396466D01*
X141055494Y-130397856D01*
X141053823Y-130405539D01*
X141053823Y-130532660D01*
X137915267Y-130532660D01*
X137920322Y-130486125D01*
X137920322Y-129865876D01*
X141053822Y-129865876D01*
X141058297Y-129881115D01*
X141059687Y-129882320D01*
X141067370Y-129883991D01*
X141814707Y-129883991D01*
X141829946Y-129879516D01*
X141831151Y-129878126D01*
X141832822Y-129870443D01*
X141832822Y-129865876D01*
X142340822Y-129865876D01*
X142345297Y-129881115D01*
X142346687Y-129882320D01*
X142354370Y-129883991D01*
X143101706Y-129883991D01*
X143116945Y-129879516D01*
X143118150Y-129878126D01*
X143119821Y-129870443D01*
X143119821Y-129743322D01*
X143119451Y-129736501D01*
X143113927Y-129685639D01*
X143110300Y-129670385D01*
X143080623Y-129591220D01*
X143075440Y-129520413D01*
X143109361Y-129458044D01*
X143171616Y-129423915D01*
X143198605Y-129420991D01*
X143214707Y-129420991D01*
X143229946Y-129416516D01*
X143231151Y-129415126D01*
X143232822Y-129407443D01*
X143232822Y-128735106D01*
X143228347Y-128719867D01*
X143226957Y-128718662D01*
X143219274Y-128716991D01*
X142596938Y-128716991D01*
X142581699Y-128721466D01*
X142580494Y-128722856D01*
X142578823Y-128730539D01*
X142578823Y-128957660D01*
X142579193Y-128964481D01*
X142584717Y-129015343D01*
X142588344Y-129030597D01*
X142618021Y-129109762D01*
X142623204Y-129180569D01*
X142589283Y-129242938D01*
X142527028Y-129277067D01*
X142500039Y-129279991D01*
X142358937Y-129279991D01*
X142343698Y-129284466D01*
X142342493Y-129285856D01*
X142340822Y-129293539D01*
X142340822Y-129865876D01*
X141832822Y-129865876D01*
X141832822Y-129298107D01*
X141828347Y-129282868D01*
X141826957Y-129281663D01*
X141819274Y-129279992D01*
X141517153Y-129279992D01*
X141510332Y-129280362D01*
X141459470Y-129285886D01*
X141444218Y-129289512D01*
X141323768Y-129334667D01*
X141308173Y-129343205D01*
X141206098Y-129419706D01*
X141193537Y-129432267D01*
X141117036Y-129534342D01*
X141108498Y-129549937D01*
X141063344Y-129670385D01*
X141059717Y-129685640D01*
X141054191Y-129736505D01*
X141053822Y-129743319D01*
X141053822Y-129865876D01*
X137920322Y-129865876D01*
X137920322Y-129689857D01*
X137913567Y-129627675D01*
X137862437Y-129491286D01*
X137775083Y-129374730D01*
X137658527Y-129287376D01*
X137522138Y-129236246D01*
X137459956Y-129229491D01*
X136514586Y-129229491D01*
X136446465Y-129209489D01*
X136399972Y-129155833D01*
X136389868Y-129085559D01*
X136396604Y-129059261D01*
X136398902Y-129053130D01*
X136414327Y-129011985D01*
X136421082Y-128949803D01*
X136421082Y-128491263D01*
X136441084Y-128423142D01*
X136457987Y-128402168D01*
X137376759Y-127483396D01*
X137439071Y-127449370D01*
X137465854Y-127446491D01*
X142625123Y-127446491D01*
X142693244Y-127466493D01*
X142739737Y-127520149D01*
X142749841Y-127590423D01*
X142722930Y-127649347D01*
X142723918Y-127650087D01*
X142720524Y-127654616D01*
X142720347Y-127655003D01*
X142719766Y-127655627D01*
X142642036Y-127759342D01*
X142633498Y-127774937D01*
X142588344Y-127895385D01*
X142584717Y-127910640D01*
X142579191Y-127961505D01*
X142578822Y-127968319D01*
X142578822Y-128190876D01*
X142583297Y-128206115D01*
X142584687Y-128207320D01*
X142592370Y-128208991D01*
X143614822Y-128208991D01*
X143682943Y-128228993D01*
X143729436Y-128282649D01*
X143740822Y-128334991D01*
X143740822Y-129402875D01*
X143745297Y-129418114D01*
X143746687Y-129419319D01*
X143754370Y-129420990D01*
X143931491Y-129420990D01*
X143938312Y-129420620D01*
X143989174Y-129415096D01*
X144004425Y-129411470D01*
X144083092Y-129381979D01*
X144153899Y-129376796D01*
X144216268Y-129410717D01*
X144250398Y-129472972D01*
X144253322Y-129499961D01*
X144253322Y-130809224D01*
X144252795Y-130820407D01*
X144251120Y-130827900D01*
X144251369Y-130835826D01*
X144251369Y-130835827D01*
X144253260Y-130895977D01*
X144253322Y-130899936D01*
X144253322Y-130927847D01*
X144253819Y-130931781D01*
X144253819Y-130931782D01*
X144253827Y-130931847D01*
X144254760Y-130943684D01*
X144256149Y-130987880D01*
X144261800Y-131007330D01*
X144265809Y-131026691D01*
X144268348Y-131046788D01*
X144271267Y-131054159D01*
X144271267Y-131054161D01*
X144284626Y-131087903D01*
X144288471Y-131099133D01*
X144300804Y-131141584D01*
X144304837Y-131148403D01*
X144304839Y-131148408D01*
X144311115Y-131159019D01*
X144319810Y-131176767D01*
X144327270Y-131195608D01*
X144331932Y-131202024D01*
X144331932Y-131202025D01*
X144353258Y-131231378D01*
X144359774Y-131241298D01*
X144376414Y-131269434D01*
X144382280Y-131279353D01*
X144396601Y-131293674D01*
X144409441Y-131308707D01*
X144421350Y-131325098D01*
X144427454Y-131330148D01*
X144427459Y-131330153D01*
X144455420Y-131353284D01*
X144464201Y-131361274D01*
X145216418Y-132113492D01*
X145250443Y-132175804D01*
X145253322Y-132202587D01*
X145253322Y-132686125D01*
X145260077Y-132748307D01*
X145311207Y-132884696D01*
X145398561Y-133001252D01*
X145515117Y-133088606D01*
X145651506Y-133139736D01*
X145713688Y-133146491D01*
X146859956Y-133146491D01*
X146922138Y-133139736D01*
X147058527Y-133088606D01*
X147175083Y-133001252D01*
X147262437Y-132884696D01*
X147313567Y-132748307D01*
X147320322Y-132686125D01*
X147320322Y-131889857D01*
X147313567Y-131827675D01*
X147262437Y-131691286D01*
X147175083Y-131574730D01*
X147058527Y-131487376D01*
X146922138Y-131436246D01*
X146859956Y-131429491D01*
X146376417Y-131429491D01*
X146308296Y-131409489D01*
X146287321Y-131392586D01*
X146106322Y-131211586D01*
X146072297Y-131149274D01*
X146077362Y-131078458D01*
X146119909Y-131021623D01*
X146186430Y-130996812D01*
X146195418Y-130996491D01*
X146859956Y-130996491D01*
X146922138Y-130989736D01*
X147058527Y-130938606D01*
X147175083Y-130851252D01*
X147262437Y-130734696D01*
X147313567Y-130598307D01*
X147320322Y-130536125D01*
X147320322Y-129739857D01*
X147313567Y-129677675D01*
X147262437Y-129541286D01*
X147175083Y-129424730D01*
X147058527Y-129337376D01*
X146922138Y-129286246D01*
X146859956Y-129279491D01*
X145874326Y-129279491D01*
X145806205Y-129259489D01*
X145759712Y-129205833D01*
X145749608Y-129135559D01*
X145756345Y-129109260D01*
X145777388Y-129053130D01*
X145820030Y-128996366D01*
X145831228Y-128988908D01*
X145867371Y-128967533D01*
X145881692Y-128953212D01*
X145896726Y-128940371D01*
X145906703Y-128933122D01*
X145913116Y-128928463D01*
X145941307Y-128894386D01*
X145949297Y-128885607D01*
X152038227Y-122796677D01*
X152100539Y-122762651D01*
X152171354Y-122767716D01*
X152228190Y-122810263D01*
X152253001Y-122876783D01*
X152253322Y-122885772D01*
X152253322Y-133734224D01*
X152252795Y-133745407D01*
X152251120Y-133752900D01*
X152251369Y-133760826D01*
X152251369Y-133760827D01*
X152253260Y-133820977D01*
X152253322Y-133824936D01*
X152253322Y-133852847D01*
X152253819Y-133856781D01*
X152253819Y-133856782D01*
X152253827Y-133856847D01*
X152254760Y-133868684D01*
X152256149Y-133912880D01*
X152261800Y-133932330D01*
X152265809Y-133951691D01*
X152268348Y-133971788D01*
X152271267Y-133979159D01*
X152271267Y-133979161D01*
X152284626Y-134012903D01*
X152288471Y-134024133D01*
X152293832Y-134042586D01*
X152300804Y-134066584D01*
X152304837Y-134073403D01*
X152304839Y-134073408D01*
X152311115Y-134084019D01*
X152319810Y-134101767D01*
X152327270Y-134120608D01*
X152331932Y-134127024D01*
X152331932Y-134127025D01*
X152353258Y-134156378D01*
X152359774Y-134166298D01*
X152365540Y-134176047D01*
X152382280Y-134204353D01*
X152396601Y-134218674D01*
X152409441Y-134233707D01*
X152421350Y-134250098D01*
X152427456Y-134255149D01*
X152455427Y-134278289D01*
X152464206Y-134286279D01*
X153283165Y-135105238D01*
X153290709Y-135113528D01*
X153294822Y-135120009D01*
X153300599Y-135125434D01*
X153344489Y-135166649D01*
X153347331Y-135169404D01*
X153367052Y-135189125D01*
X153370247Y-135191603D01*
X153379269Y-135199309D01*
X153411501Y-135229577D01*
X153418450Y-135233397D01*
X153429254Y-135239337D01*
X153445778Y-135250190D01*
X153461781Y-135262604D01*
X153502365Y-135280167D01*
X153512995Y-135285374D01*
X153551762Y-135306686D01*
X153559439Y-135308657D01*
X153559444Y-135308659D01*
X153571380Y-135311723D01*
X153590088Y-135318128D01*
X153608677Y-135326172D01*
X153616505Y-135327412D01*
X153616512Y-135327414D01*
X153652346Y-135333090D01*
X153663966Y-135335496D01*
X153699111Y-135344519D01*
X153706792Y-135346491D01*
X153727046Y-135346491D01*
X153746756Y-135348042D01*
X153766765Y-135351211D01*
X153774657Y-135350465D01*
X153810783Y-135347050D01*
X153822641Y-135346491D01*
X155327322Y-135346491D01*
X155395443Y-135366493D01*
X155441936Y-135420149D01*
X155453322Y-135472491D01*
X155453322Y-135648642D01*
X155433320Y-135716763D01*
X155379664Y-135763256D01*
X155309390Y-135773360D01*
X155275160Y-135763290D01*
X155270368Y-135760518D01*
X155070551Y-135691130D01*
X155064616Y-135690269D01*
X155064614Y-135690269D01*
X154867158Y-135661639D01*
X154867155Y-135661639D01*
X154861218Y-135660778D01*
X154649923Y-135670558D01*
X154518745Y-135702172D01*
X154450121Y-135718710D01*
X154450119Y-135718711D01*
X154444288Y-135720116D01*
X154438830Y-135722598D01*
X154438826Y-135722599D01*
X154323781Y-135774907D01*
X154251735Y-135807665D01*
X154079211Y-135930045D01*
X154075069Y-135934372D01*
X153943218Y-136072106D01*
X153932941Y-136082841D01*
X153818202Y-136260539D01*
X153795534Y-136316785D01*
X153743129Y-136446821D01*
X153739136Y-136456728D01*
X153698594Y-136664328D01*
X153698322Y-136669890D01*
X153698322Y-136679478D01*
X153678320Y-136747599D01*
X153624664Y-136794092D01*
X153559153Y-136804788D01*
X153423128Y-136790491D01*
X153330516Y-136790491D01*
X153222880Y-136801804D01*
X153198684Y-136804347D01*
X153198683Y-136804347D01*
X153192120Y-136805037D01*
X153015491Y-136862427D01*
X152854653Y-136955287D01*
X152849746Y-136959705D01*
X152849745Y-136959706D01*
X152721548Y-137075135D01*
X152716637Y-137079557D01*
X152712756Y-137084899D01*
X152712754Y-137084901D01*
X152634389Y-137192762D01*
X152607474Y-137229807D01*
X152604790Y-137235835D01*
X152604789Y-137235837D01*
X152534620Y-137393439D01*
X152531935Y-137399470D01*
X152520647Y-137452578D01*
X152513680Y-137485352D01*
X152479951Y-137547826D01*
X152417802Y-137582147D01*
X152346963Y-137577419D01*
X152316372Y-137561091D01*
X152198916Y-137475754D01*
X152198915Y-137475753D01*
X152193574Y-137471873D01*
X152187546Y-137469189D01*
X152187544Y-137469188D01*
X152025141Y-137396882D01*
X152025140Y-137396882D01*
X152019110Y-137394197D01*
X151925710Y-137374344D01*
X151838766Y-137355863D01*
X151838761Y-137355863D01*
X151832309Y-137354491D01*
X151641335Y-137354491D01*
X151634883Y-137355863D01*
X151634878Y-137355863D01*
X151547934Y-137374344D01*
X151454534Y-137394197D01*
X151448504Y-137396882D01*
X151448503Y-137396882D01*
X151286100Y-137469188D01*
X151286098Y-137469189D01*
X151280070Y-137471873D01*
X151125569Y-137584125D01*
X151121148Y-137589035D01*
X151121147Y-137589036D01*
X151080458Y-137634226D01*
X151020012Y-137671466D01*
X150949029Y-137670114D01*
X150893186Y-137634226D01*
X150852497Y-137589036D01*
X150852496Y-137589035D01*
X150848075Y-137584125D01*
X150693574Y-137471873D01*
X150687546Y-137469189D01*
X150687544Y-137469188D01*
X150525141Y-137396882D01*
X150525140Y-137396882D01*
X150519110Y-137394197D01*
X150425710Y-137374344D01*
X150338766Y-137355863D01*
X150338761Y-137355863D01*
X150332309Y-137354491D01*
X150141335Y-137354491D01*
X150134883Y-137355863D01*
X150134878Y-137355863D01*
X150047934Y-137374344D01*
X149954534Y-137394197D01*
X149948504Y-137396882D01*
X149948503Y-137396882D01*
X149786100Y-137469188D01*
X149786098Y-137469189D01*
X149780070Y-137471873D01*
X149625569Y-137584125D01*
X149621148Y-137589035D01*
X149621147Y-137589036D01*
X149533740Y-137686112D01*
X149497782Y-137726047D01*
X149402295Y-137891435D01*
X149343280Y-138073063D01*
X149342590Y-138079624D01*
X149342590Y-138079626D01*
X149332791Y-138172856D01*
X149323318Y-138262991D01*
X149324008Y-138269556D01*
X149337298Y-138395999D01*
X149343280Y-138452919D01*
X149402295Y-138634547D01*
X149405598Y-138640269D01*
X149405599Y-138640270D01*
X149492329Y-138790491D01*
X149509067Y-138859487D01*
X149485846Y-138926578D01*
X149430039Y-138970465D01*
X149383210Y-138979491D01*
X126001417Y-138979491D01*
X125933296Y-138959489D01*
X125912322Y-138942586D01*
X125657227Y-138687491D01*
X125623201Y-138625179D01*
X125620322Y-138598396D01*
X125620322Y-137968522D01*
X125640324Y-137900401D01*
X125693980Y-137853908D01*
X125764254Y-137843804D01*
X125828834Y-137873298D01*
X125867227Y-137933051D01*
X125882914Y-137986525D01*
X125885658Y-137991852D01*
X125885658Y-137991853D01*
X125976721Y-138168662D01*
X125979764Y-138174571D01*
X126110426Y-138340911D01*
X126114957Y-138344843D01*
X126114960Y-138344846D01*
X126200880Y-138419403D01*
X126270185Y-138479543D01*
X126275371Y-138482543D01*
X126275375Y-138482546D01*
X126401837Y-138555706D01*
X126453276Y-138585464D01*
X126653093Y-138654852D01*
X126659028Y-138655713D01*
X126659030Y-138655713D01*
X126856486Y-138684343D01*
X126856489Y-138684343D01*
X126862426Y-138685204D01*
X127073721Y-138675424D01*
X127215937Y-138641150D01*
X127273523Y-138627272D01*
X127273525Y-138627271D01*
X127279356Y-138625866D01*
X127284814Y-138623384D01*
X127284818Y-138623383D01*
X127433908Y-138555595D01*
X127471909Y-138538317D01*
X127644433Y-138415937D01*
X127655891Y-138403968D01*
X127717445Y-138368593D01*
X127788354Y-138372112D01*
X127820404Y-138388869D01*
X127824653Y-138392695D01*
X127985491Y-138485555D01*
X128058688Y-138509338D01*
X128154112Y-138540343D01*
X128162120Y-138542945D01*
X128168683Y-138543635D01*
X128168684Y-138543635D01*
X128192880Y-138546178D01*
X128300516Y-138557491D01*
X128393128Y-138557491D01*
X128500764Y-138546178D01*
X128524960Y-138543635D01*
X128524961Y-138543635D01*
X128531524Y-138542945D01*
X128539533Y-138540343D01*
X128634956Y-138509338D01*
X128708153Y-138485555D01*
X128868991Y-138392695D01*
X128874900Y-138387375D01*
X129002096Y-138272847D01*
X129002097Y-138272846D01*
X129007007Y-138268425D01*
X129014505Y-138258106D01*
X129112289Y-138123517D01*
X129112290Y-138123516D01*
X129116170Y-138118175D01*
X129130744Y-138085443D01*
X129189024Y-137954543D01*
X129189024Y-137954542D01*
X129191709Y-137948512D01*
X129213965Y-137843804D01*
X129228950Y-137773308D01*
X129228950Y-137773304D01*
X129230322Y-137766851D01*
X133243322Y-137766851D01*
X133244694Y-137773304D01*
X133244694Y-137773308D01*
X133259679Y-137843804D01*
X133281935Y-137948512D01*
X133284619Y-137954541D01*
X133284620Y-137954543D01*
X133345144Y-138090480D01*
X133357474Y-138118174D01*
X133361354Y-138123515D01*
X133361355Y-138123516D01*
X133459140Y-138258106D01*
X133466637Y-138268425D01*
X133471547Y-138272846D01*
X133471548Y-138272847D01*
X133598745Y-138387375D01*
X133604653Y-138392695D01*
X133765491Y-138485555D01*
X133838688Y-138509338D01*
X133934112Y-138540343D01*
X133942120Y-138542945D01*
X133948683Y-138543635D01*
X133948684Y-138543635D01*
X133972880Y-138546178D01*
X134080516Y-138557491D01*
X134173128Y-138557491D01*
X134280764Y-138546178D01*
X134304960Y-138543635D01*
X134304961Y-138543635D01*
X134311524Y-138542945D01*
X134319533Y-138540343D01*
X134414956Y-138509338D01*
X134488153Y-138485555D01*
X134648991Y-138392695D01*
X134653895Y-138388280D01*
X134655140Y-138387375D01*
X134722008Y-138363519D01*
X134791159Y-138379602D01*
X134811772Y-138394145D01*
X134910185Y-138479543D01*
X134915371Y-138482543D01*
X134915375Y-138482546D01*
X135041837Y-138555706D01*
X135093276Y-138585464D01*
X135293093Y-138654852D01*
X135299028Y-138655713D01*
X135299030Y-138655713D01*
X135496486Y-138684343D01*
X135496489Y-138684343D01*
X135502426Y-138685204D01*
X135713721Y-138675424D01*
X135855937Y-138641150D01*
X135913523Y-138627272D01*
X135913525Y-138627271D01*
X135919356Y-138625866D01*
X135924814Y-138623384D01*
X135924818Y-138623383D01*
X136073908Y-138555595D01*
X136111909Y-138538317D01*
X136284433Y-138415937D01*
X136430703Y-138263141D01*
X136545442Y-138085443D01*
X136598196Y-137954543D01*
X136622264Y-137894823D01*
X136622265Y-137894820D01*
X136624508Y-137889254D01*
X136665050Y-137681654D01*
X136665322Y-137676092D01*
X136665322Y-137625837D01*
X145058322Y-137625837D01*
X145073370Y-137783557D01*
X145132914Y-137986525D01*
X145135658Y-137991852D01*
X145135658Y-137991853D01*
X145226721Y-138168662D01*
X145229764Y-138174571D01*
X145360426Y-138340911D01*
X145364957Y-138344843D01*
X145364960Y-138344846D01*
X145450880Y-138419403D01*
X145520185Y-138479543D01*
X145525371Y-138482543D01*
X145525375Y-138482546D01*
X145651837Y-138555706D01*
X145703276Y-138585464D01*
X145903093Y-138654852D01*
X145909028Y-138655713D01*
X145909030Y-138655713D01*
X146106486Y-138684343D01*
X146106489Y-138684343D01*
X146112426Y-138685204D01*
X146323721Y-138675424D01*
X146465937Y-138641150D01*
X146523523Y-138627272D01*
X146523525Y-138627271D01*
X146529356Y-138625866D01*
X146534814Y-138623384D01*
X146534818Y-138623383D01*
X146683908Y-138555595D01*
X146721909Y-138538317D01*
X146894433Y-138415937D01*
X146905891Y-138403968D01*
X146967445Y-138368593D01*
X147038354Y-138372112D01*
X147070404Y-138388869D01*
X147074653Y-138392695D01*
X147235491Y-138485555D01*
X147308688Y-138509338D01*
X147404112Y-138540343D01*
X147412120Y-138542945D01*
X147418683Y-138543635D01*
X147418684Y-138543635D01*
X147442880Y-138546178D01*
X147550516Y-138557491D01*
X147643128Y-138557491D01*
X147750764Y-138546178D01*
X147774960Y-138543635D01*
X147774961Y-138543635D01*
X147781524Y-138542945D01*
X147789533Y-138540343D01*
X147884956Y-138509338D01*
X147958153Y-138485555D01*
X148118991Y-138392695D01*
X148124900Y-138387375D01*
X148252096Y-138272847D01*
X148252097Y-138272846D01*
X148257007Y-138268425D01*
X148264505Y-138258106D01*
X148362289Y-138123517D01*
X148362290Y-138123516D01*
X148366170Y-138118175D01*
X148380744Y-138085443D01*
X148439024Y-137954543D01*
X148439024Y-137954542D01*
X148441709Y-137948512D01*
X148463965Y-137843804D01*
X148478950Y-137773308D01*
X148478950Y-137773304D01*
X148480322Y-137766851D01*
X148480322Y-137581131D01*
X148476063Y-137561091D01*
X148458131Y-137476730D01*
X148441709Y-137399470D01*
X148439024Y-137393439D01*
X148368855Y-137235838D01*
X148368854Y-137235836D01*
X148366170Y-137229808D01*
X148320217Y-137166559D01*
X148260890Y-137084901D01*
X148260888Y-137084899D01*
X148257007Y-137079557D01*
X148252096Y-137075135D01*
X148123899Y-136959706D01*
X148123898Y-136959705D01*
X148118991Y-136955287D01*
X147958153Y-136862427D01*
X147781524Y-136805037D01*
X147774961Y-136804347D01*
X147774960Y-136804347D01*
X147750764Y-136801804D01*
X147643128Y-136790491D01*
X147550516Y-136790491D01*
X147412120Y-136805037D01*
X147411823Y-136802210D01*
X147353486Y-136797771D01*
X147296845Y-136754965D01*
X147272626Y-136691885D01*
X147260844Y-136568401D01*
X147260274Y-136562425D01*
X147200730Y-136359457D01*
X147181986Y-136323063D01*
X147106626Y-136176742D01*
X147106624Y-136176739D01*
X147103880Y-136171411D01*
X146973218Y-136005071D01*
X146968687Y-136001139D01*
X146968684Y-136001136D01*
X146817989Y-135870370D01*
X146813459Y-135866439D01*
X146808273Y-135863439D01*
X146808269Y-135863436D01*
X146635564Y-135763524D01*
X146630368Y-135760518D01*
X146430551Y-135691130D01*
X146424616Y-135690269D01*
X146424614Y-135690269D01*
X146227158Y-135661639D01*
X146227155Y-135661639D01*
X146221218Y-135660778D01*
X146009923Y-135670558D01*
X145878745Y-135702172D01*
X145810121Y-135718710D01*
X145810119Y-135718711D01*
X145804288Y-135720116D01*
X145798830Y-135722598D01*
X145798826Y-135722599D01*
X145683781Y-135774907D01*
X145611735Y-135807665D01*
X145439211Y-135930045D01*
X145435069Y-135934372D01*
X145303218Y-136072106D01*
X145292941Y-136082841D01*
X145178202Y-136260539D01*
X145155534Y-136316785D01*
X145103129Y-136446821D01*
X145099136Y-136456728D01*
X145058594Y-136664328D01*
X145058322Y-136669890D01*
X145058322Y-137625837D01*
X136665322Y-137625837D01*
X136665322Y-136720145D01*
X136650274Y-136562425D01*
X136590730Y-136359457D01*
X136571986Y-136323063D01*
X136496626Y-136176742D01*
X136496624Y-136176739D01*
X136493880Y-136171411D01*
X136363218Y-136005071D01*
X136358687Y-136001139D01*
X136358684Y-136001136D01*
X136207989Y-135870370D01*
X136203459Y-135866439D01*
X136198273Y-135863439D01*
X136198269Y-135863436D01*
X136025564Y-135763524D01*
X136020368Y-135760518D01*
X135820551Y-135691130D01*
X135814616Y-135690269D01*
X135814614Y-135690269D01*
X135617158Y-135661639D01*
X135617155Y-135661639D01*
X135611218Y-135660778D01*
X135399923Y-135670558D01*
X135268745Y-135702172D01*
X135200121Y-135718710D01*
X135200119Y-135718711D01*
X135194288Y-135720116D01*
X135188830Y-135722598D01*
X135188826Y-135722599D01*
X135073781Y-135774907D01*
X135001735Y-135807665D01*
X134829211Y-135930045D01*
X134825069Y-135934372D01*
X134693218Y-136072106D01*
X134682941Y-136082841D01*
X134568202Y-136260539D01*
X134545534Y-136316785D01*
X134493129Y-136446821D01*
X134489136Y-136456728D01*
X134448594Y-136664328D01*
X134448322Y-136669890D01*
X134448322Y-136679478D01*
X134428320Y-136747599D01*
X134374664Y-136794092D01*
X134309153Y-136804788D01*
X134173128Y-136790491D01*
X134080516Y-136790491D01*
X133972880Y-136801804D01*
X133948684Y-136804347D01*
X133948683Y-136804347D01*
X133942120Y-136805037D01*
X133765491Y-136862427D01*
X133604653Y-136955287D01*
X133599746Y-136959705D01*
X133599745Y-136959706D01*
X133471548Y-137075135D01*
X133466637Y-137079557D01*
X133462756Y-137084899D01*
X133462754Y-137084901D01*
X133384389Y-137192762D01*
X133357474Y-137229807D01*
X133354790Y-137235835D01*
X133354789Y-137235837D01*
X133284620Y-137393439D01*
X133281935Y-137399470D01*
X133265513Y-137476730D01*
X133247582Y-137561091D01*
X133243322Y-137581131D01*
X133243322Y-137766851D01*
X129230322Y-137766851D01*
X129230322Y-137581131D01*
X129226063Y-137561091D01*
X129208131Y-137476730D01*
X129191709Y-137399470D01*
X129189024Y-137393439D01*
X129118855Y-137235838D01*
X129118854Y-137235836D01*
X129116170Y-137229808D01*
X129070217Y-137166559D01*
X129010890Y-137084901D01*
X129010888Y-137084899D01*
X129007007Y-137079557D01*
X129002096Y-137075135D01*
X128873899Y-136959706D01*
X128873898Y-136959705D01*
X128868991Y-136955287D01*
X128708153Y-136862427D01*
X128531524Y-136805037D01*
X128524961Y-136804347D01*
X128524960Y-136804347D01*
X128500764Y-136801804D01*
X128393128Y-136790491D01*
X128300516Y-136790491D01*
X128162120Y-136805037D01*
X128161823Y-136802210D01*
X128103486Y-136797771D01*
X128046845Y-136754965D01*
X128022626Y-136691885D01*
X128010844Y-136568401D01*
X128010274Y-136562425D01*
X127950730Y-136359457D01*
X127931986Y-136323063D01*
X127856626Y-136176742D01*
X127856624Y-136176739D01*
X127853880Y-136171411D01*
X127723218Y-136005071D01*
X127718687Y-136001139D01*
X127718684Y-136001136D01*
X127567989Y-135870370D01*
X127563459Y-135866439D01*
X127558273Y-135863439D01*
X127558269Y-135863436D01*
X127385564Y-135763524D01*
X127380368Y-135760518D01*
X127180551Y-135691130D01*
X127174616Y-135690269D01*
X127174614Y-135690269D01*
X126977158Y-135661639D01*
X126977155Y-135661639D01*
X126971218Y-135660778D01*
X126759923Y-135670558D01*
X126628745Y-135702172D01*
X126560121Y-135718710D01*
X126560119Y-135718711D01*
X126554288Y-135720116D01*
X126548830Y-135722598D01*
X126548826Y-135722599D01*
X126433781Y-135774907D01*
X126361735Y-135807665D01*
X126189211Y-135930045D01*
X126185069Y-135934372D01*
X126053218Y-136072106D01*
X126042941Y-136082841D01*
X125928202Y-136260539D01*
X125905534Y-136316785D01*
X125853129Y-136446821D01*
X125849136Y-136456728D01*
X125848029Y-136462396D01*
X125809545Y-136521967D01*
X125744894Y-136551307D01*
X125674644Y-136541036D01*
X125621099Y-136494416D01*
X125605985Y-136459649D01*
X125605296Y-136454194D01*
X125596904Y-136432997D01*
X125589022Y-136413088D01*
X125585177Y-136401861D01*
X125584543Y-136399678D01*
X125572840Y-136359398D01*
X125562529Y-136341963D01*
X125553834Y-136324215D01*
X125546374Y-136305374D01*
X125520386Y-136269604D01*
X125513870Y-136259684D01*
X125495402Y-136228456D01*
X125495400Y-136228453D01*
X125491364Y-136221629D01*
X125477043Y-136207308D01*
X125464202Y-136192274D01*
X125456954Y-136182298D01*
X125452294Y-136175884D01*
X125420409Y-136149507D01*
X125418229Y-136147703D01*
X125409448Y-136139713D01*
X124890469Y-135620733D01*
X124882935Y-135612454D01*
X124878822Y-135605973D01*
X124829170Y-135559347D01*
X124826329Y-135556593D01*
X124806592Y-135536856D01*
X124803395Y-135534376D01*
X124794373Y-135526671D01*
X124780944Y-135514060D01*
X124762143Y-135496405D01*
X124755197Y-135492586D01*
X124755194Y-135492584D01*
X124744388Y-135486643D01*
X124727869Y-135475792D01*
X124723613Y-135472491D01*
X124711863Y-135463377D01*
X124704594Y-135460232D01*
X124704590Y-135460229D01*
X124671285Y-135445817D01*
X124660635Y-135440600D01*
X124621882Y-135419296D01*
X124602259Y-135414258D01*
X124583556Y-135407854D01*
X124572242Y-135402958D01*
X124572241Y-135402958D01*
X124564967Y-135399810D01*
X124557144Y-135398571D01*
X124557134Y-135398568D01*
X124521298Y-135392892D01*
X124509678Y-135390486D01*
X124474533Y-135381463D01*
X124474532Y-135381463D01*
X124466852Y-135379491D01*
X124446598Y-135379491D01*
X124426887Y-135377940D01*
X124414708Y-135376011D01*
X124406879Y-135374771D01*
X124367886Y-135378457D01*
X124362861Y-135378932D01*
X124351003Y-135379491D01*
X119865590Y-135379491D01*
X119854407Y-135378964D01*
X119846914Y-135377289D01*
X119838988Y-135377538D01*
X119838987Y-135377538D01*
X119778824Y-135379429D01*
X119774866Y-135379491D01*
X119746966Y-135379491D01*
X119742976Y-135379995D01*
X119731142Y-135380927D01*
X119686933Y-135382317D01*
X119679319Y-135384529D01*
X119679314Y-135384530D01*
X119667481Y-135387968D01*
X119648118Y-135391979D01*
X119628025Y-135394517D01*
X119620658Y-135397434D01*
X119620653Y-135397435D01*
X119586914Y-135410793D01*
X119575687Y-135414637D01*
X119533229Y-135426973D01*
X119526403Y-135431010D01*
X119515794Y-135437284D01*
X119498046Y-135445979D01*
X119479205Y-135453439D01*
X119472789Y-135458101D01*
X119472788Y-135458101D01*
X119443435Y-135479427D01*
X119433515Y-135485943D01*
X119402287Y-135504411D01*
X119402284Y-135504413D01*
X119395460Y-135508449D01*
X119381139Y-135522770D01*
X119366106Y-135535610D01*
X119349715Y-135547519D01*
X119323589Y-135579100D01*
X119321534Y-135581584D01*
X119313544Y-135590365D01*
X118894528Y-136009380D01*
X118886249Y-136016914D01*
X118879768Y-136021027D01*
X118833143Y-136070678D01*
X118830388Y-136073520D01*
X118810651Y-136093257D01*
X118808171Y-136096454D01*
X118800468Y-136105474D01*
X118770200Y-136137706D01*
X118766381Y-136144652D01*
X118766379Y-136144655D01*
X118760438Y-136155461D01*
X118749587Y-136171980D01*
X118737172Y-136187986D01*
X118734025Y-136195257D01*
X118729988Y-136202084D01*
X118727380Y-136200542D01*
X118691056Y-136244202D01*
X118623351Y-136265568D01*
X118554842Y-136246937D01*
X118507282Y-136194225D01*
X118494822Y-136139593D01*
X118494822Y-117395423D01*
X118514824Y-117327302D01*
X118568480Y-117280809D01*
X118638754Y-117270705D01*
X118693093Y-117292210D01*
X118849145Y-117401479D01*
X118854127Y-117403802D01*
X118854132Y-117403805D01*
X119038085Y-117489583D01*
X119050626Y-117495431D01*
X119055934Y-117496853D01*
X119055936Y-117496854D01*
X119079407Y-117503143D01*
X119265359Y-117552969D01*
X119486822Y-117572344D01*
X119708285Y-117552969D01*
X119894237Y-117503143D01*
X119917708Y-117496854D01*
X119917710Y-117496853D01*
X119923018Y-117495431D01*
X119935559Y-117489583D01*
X120119512Y-117403805D01*
X120119517Y-117403802D01*
X120124499Y-117401479D01*
X120250603Y-117313180D01*
X120302092Y-117277127D01*
X120302095Y-117277125D01*
X120306603Y-117273968D01*
X120313227Y-117267344D01*
X120375539Y-117233318D01*
X120446354Y-117238383D01*
X120503190Y-117280930D01*
X120528001Y-117347450D01*
X120528322Y-117356439D01*
X120528322Y-122345921D01*
X120526889Y-122364871D01*
X120523623Y-122386340D01*
X120524216Y-122393632D01*
X120524216Y-122393635D01*
X120527907Y-122439009D01*
X120528322Y-122449224D01*
X120528322Y-122457284D01*
X120528747Y-122460928D01*
X120531611Y-122485498D01*
X120532044Y-122489873D01*
X120537962Y-122562628D01*
X120540218Y-122569592D01*
X120541409Y-122575551D01*
X120542793Y-122581406D01*
X120543640Y-122588672D01*
X120568557Y-122657318D01*
X120569974Y-122661446D01*
X120592471Y-122730890D01*
X120596267Y-122737145D01*
X120598773Y-122742619D01*
X120601492Y-122748049D01*
X120603989Y-122754928D01*
X120608002Y-122761048D01*
X120608002Y-122761049D01*
X120644008Y-122815967D01*
X120646345Y-122819671D01*
X120684227Y-122882098D01*
X120687943Y-122886306D01*
X120687944Y-122886307D01*
X120691625Y-122890475D01*
X120691598Y-122890499D01*
X120694251Y-122893491D01*
X120696954Y-122896724D01*
X120700966Y-122902843D01*
X120706278Y-122907875D01*
X120757205Y-122956119D01*
X120759647Y-122958497D01*
X121503052Y-123701902D01*
X121515438Y-123716314D01*
X121523971Y-123727909D01*
X121523976Y-123727914D01*
X121528314Y-123733809D01*
X121533892Y-123738548D01*
X121533895Y-123738551D01*
X121568590Y-123768026D01*
X121576106Y-123774956D01*
X121581801Y-123780651D01*
X121584683Y-123782931D01*
X121604073Y-123798272D01*
X121607477Y-123801063D01*
X121657525Y-123843582D01*
X121663107Y-123848324D01*
X121669623Y-123851652D01*
X121674672Y-123855019D01*
X121679801Y-123858186D01*
X121685538Y-123862725D01*
X121751697Y-123893646D01*
X121755591Y-123895549D01*
X121820630Y-123928760D01*
X121827739Y-123930499D01*
X121833373Y-123932595D01*
X121839143Y-123934514D01*
X121845772Y-123937613D01*
X121852935Y-123939103D01*
X121852938Y-123939104D01*
X121903652Y-123949652D01*
X121917257Y-123952482D01*
X121921523Y-123953448D01*
X121992432Y-123970799D01*
X121998034Y-123971147D01*
X121998037Y-123971147D01*
X122003586Y-123971491D01*
X122003584Y-123971526D01*
X122007556Y-123971766D01*
X122011777Y-123972143D01*
X122018937Y-123973632D01*
X122096364Y-123971537D01*
X122099772Y-123971491D01*
X122548253Y-123971491D01*
X122616374Y-123991493D01*
X122662867Y-124045149D01*
X122671792Y-124099821D01*
X122674008Y-124099821D01*
X122674008Y-124106426D01*
X122673318Y-124112991D01*
X122674008Y-124119556D01*
X122688858Y-124260842D01*
X122693280Y-124302919D01*
X122752295Y-124484547D01*
X122755598Y-124490269D01*
X122755599Y-124490270D01*
X122788034Y-124546449D01*
X122847782Y-124649935D01*
X122852200Y-124654842D01*
X122852201Y-124654843D01*
X122952762Y-124766527D01*
X122975569Y-124791857D01*
X123061162Y-124854044D01*
X123122141Y-124898348D01*
X123130070Y-124904109D01*
X123136098Y-124906793D01*
X123136100Y-124906794D01*
X123298503Y-124979100D01*
X123304534Y-124981785D01*
X123394674Y-125000945D01*
X123484878Y-125020119D01*
X123484883Y-125020119D01*
X123491335Y-125021491D01*
X123682309Y-125021491D01*
X123688761Y-125020119D01*
X123688766Y-125020119D01*
X123778970Y-125000945D01*
X123869110Y-124981785D01*
X123884889Y-124974760D01*
X123937639Y-124951274D01*
X123985574Y-124929932D01*
X124055940Y-124920498D01*
X124088068Y-124929931D01*
X124136005Y-124951274D01*
X124188756Y-124974760D01*
X124204534Y-124981785D01*
X124294674Y-125000945D01*
X124384878Y-125020119D01*
X124384883Y-125020119D01*
X124391335Y-125021491D01*
X124582309Y-125021491D01*
X124588761Y-125020119D01*
X124588766Y-125020119D01*
X124678970Y-125000945D01*
X124769110Y-124981785D01*
X124775141Y-124979100D01*
X124937544Y-124906794D01*
X124937546Y-124906793D01*
X124943574Y-124904109D01*
X124951504Y-124898348D01*
X125012482Y-124854044D01*
X125098075Y-124791857D01*
X125120882Y-124766527D01*
X125221443Y-124654843D01*
X125221444Y-124654842D01*
X125225862Y-124649935D01*
X125285610Y-124546449D01*
X125318045Y-124490270D01*
X125318046Y-124490269D01*
X125321349Y-124484547D01*
X125380364Y-124302919D01*
X125384787Y-124260842D01*
X125399636Y-124119556D01*
X125400326Y-124112991D01*
X125381366Y-123932595D01*
X125381054Y-123929626D01*
X125381054Y-123929624D01*
X125380364Y-123923063D01*
X125321349Y-123741435D01*
X125312433Y-123725992D01*
X125295694Y-123656998D01*
X125312433Y-123599989D01*
X125318046Y-123590268D01*
X125321349Y-123584547D01*
X125380364Y-123402919D01*
X125400326Y-123212991D01*
X125395528Y-123167339D01*
X125408300Y-123097501D01*
X125456802Y-123045654D01*
X125488226Y-123032462D01*
X125658235Y-122986908D01*
X125658240Y-122986906D01*
X125663544Y-122985485D01*
X125869069Y-122889648D01*
X125873567Y-122886499D01*
X125873573Y-122886495D01*
X126050317Y-122762736D01*
X126050319Y-122762734D01*
X126054828Y-122759577D01*
X126215179Y-122599226D01*
X126219481Y-122593083D01*
X126237147Y-122567853D01*
X126292605Y-122523524D01*
X126363224Y-122516216D01*
X126426585Y-122548247D01*
X126462569Y-122609449D01*
X126465623Y-122626517D01*
X126468494Y-122652951D01*
X126468495Y-122652955D01*
X126469348Y-122660807D01*
X126520478Y-122797196D01*
X126607832Y-122913752D01*
X126724388Y-123001106D01*
X126860777Y-123052236D01*
X126922959Y-123058991D01*
X128594227Y-123058991D01*
X128656409Y-123052236D01*
X128792798Y-123001106D01*
X128909354Y-122913752D01*
X128996708Y-122797196D01*
X129047838Y-122660807D01*
X129054593Y-122598625D01*
X129054593Y-120927357D01*
X129047838Y-120865175D01*
X128996708Y-120728786D01*
X128909354Y-120612230D01*
X128792798Y-120524876D01*
X128656409Y-120473746D01*
X128594227Y-120466991D01*
X126922959Y-120466991D01*
X126860777Y-120473746D01*
X126724388Y-120524876D01*
X126607832Y-120612230D01*
X126520478Y-120728786D01*
X126469348Y-120865175D01*
X126468495Y-120873027D01*
X126468494Y-120873031D01*
X126465623Y-120899465D01*
X126438381Y-120965027D01*
X126380019Y-121005454D01*
X126309064Y-121007910D01*
X126248046Y-120971615D01*
X126237147Y-120958129D01*
X126218338Y-120931267D01*
X126218336Y-120931264D01*
X126215179Y-120926756D01*
X126054828Y-120766405D01*
X126013111Y-120737194D01*
X125873573Y-120639487D01*
X125873567Y-120639483D01*
X125869069Y-120636334D01*
X125663544Y-120540497D01*
X125658240Y-120539076D01*
X125658235Y-120539074D01*
X125508853Y-120499047D01*
X125444501Y-120481804D01*
X125218593Y-120462040D01*
X124992685Y-120481804D01*
X124773642Y-120540497D01*
X124677469Y-120585343D01*
X124573105Y-120634008D01*
X124573102Y-120634010D01*
X124568118Y-120636334D01*
X124464213Y-120709089D01*
X124386869Y-120763246D01*
X124386866Y-120763248D01*
X124382358Y-120766405D01*
X124222007Y-120926756D01*
X124091936Y-121112516D01*
X124089613Y-121117498D01*
X124089610Y-121117503D01*
X124062788Y-121175024D01*
X124015871Y-121228309D01*
X123947593Y-121247770D01*
X123879633Y-121227228D01*
X123834398Y-121175024D01*
X123807576Y-121117503D01*
X123807573Y-121117498D01*
X123805250Y-121112516D01*
X123675179Y-120926756D01*
X123514828Y-120766405D01*
X123473111Y-120737194D01*
X123333573Y-120639487D01*
X123333567Y-120639483D01*
X123329069Y-120636334D01*
X123123544Y-120540497D01*
X123118240Y-120539076D01*
X123118235Y-120539074D01*
X122968853Y-120499047D01*
X122904501Y-120481804D01*
X122678593Y-120462040D01*
X122452685Y-120481804D01*
X122233642Y-120540497D01*
X122228656Y-120542822D01*
X122224568Y-120544728D01*
X122154376Y-120555386D01*
X122089564Y-120526404D01*
X122050710Y-120466983D01*
X122045322Y-120430531D01*
X122045322Y-120136399D01*
X122065324Y-120068278D01*
X122118980Y-120021785D01*
X122189254Y-120011681D01*
X122224570Y-120022203D01*
X122247060Y-120032690D01*
X122257352Y-120036436D01*
X122465686Y-120092259D01*
X122476481Y-120094162D01*
X122691347Y-120112961D01*
X122702297Y-120112961D01*
X122917163Y-120094162D01*
X122927958Y-120092259D01*
X123136292Y-120036436D01*
X123146584Y-120032690D01*
X123342066Y-119941536D01*
X123351552Y-119936058D01*
X123400896Y-119901508D01*
X123409271Y-119891030D01*
X123408771Y-119890078D01*
X124524289Y-119890078D01*
X124533586Y-119902094D01*
X124582092Y-119936058D01*
X124591578Y-119941536D01*
X124787060Y-120032690D01*
X124797352Y-120036436D01*
X125005686Y-120092259D01*
X125016481Y-120094162D01*
X125231347Y-120112961D01*
X125242297Y-120112961D01*
X125457163Y-120094162D01*
X125467958Y-120092259D01*
X125676292Y-120036436D01*
X125686584Y-120032690D01*
X125882066Y-119941536D01*
X125891552Y-119936058D01*
X125940896Y-119901508D01*
X125949271Y-119891030D01*
X125942203Y-119877582D01*
X125249634Y-119185013D01*
X125235690Y-119177399D01*
X125233857Y-119177530D01*
X125227242Y-119181781D01*
X124530719Y-119878304D01*
X124524289Y-119890078D01*
X123408771Y-119890078D01*
X123402203Y-119877582D01*
X122426707Y-118902086D01*
X122392681Y-118839774D01*
X122394516Y-118814123D01*
X123061230Y-118814123D01*
X123061361Y-118815956D01*
X123065612Y-118822571D01*
X123762135Y-119519094D01*
X123773909Y-119525524D01*
X123785924Y-119516228D01*
X123819889Y-119467720D01*
X123825368Y-119458230D01*
X123852627Y-119399774D01*
X123899544Y-119346489D01*
X123967822Y-119327028D01*
X124035781Y-119347570D01*
X124081017Y-119399774D01*
X124108276Y-119458230D01*
X124113755Y-119467720D01*
X124148307Y-119517067D01*
X124158783Y-119525441D01*
X124172230Y-119518373D01*
X124864800Y-118825803D01*
X124871178Y-118814123D01*
X125601230Y-118814123D01*
X125601361Y-118815956D01*
X125605612Y-118822571D01*
X126302135Y-119519094D01*
X126316079Y-119526708D01*
X126346423Y-119524538D01*
X126415797Y-119539629D01*
X126465999Y-119589831D01*
X126481228Y-119643404D01*
X126481692Y-119651980D01*
X126487217Y-119702843D01*
X126490843Y-119718095D01*
X126535998Y-119838545D01*
X126544536Y-119854140D01*
X126621037Y-119956215D01*
X126633598Y-119968776D01*
X126735673Y-120045277D01*
X126751268Y-120053815D01*
X126871716Y-120098969D01*
X126886971Y-120102596D01*
X126937836Y-120108122D01*
X126944650Y-120108491D01*
X127504707Y-120108491D01*
X127519946Y-120104016D01*
X127521151Y-120102626D01*
X127522822Y-120094943D01*
X127522822Y-120090375D01*
X128030822Y-120090375D01*
X128035297Y-120105614D01*
X128036687Y-120106819D01*
X128044370Y-120108490D01*
X128608991Y-120108490D01*
X128615812Y-120108120D01*
X128666674Y-120102596D01*
X128681926Y-120098970D01*
X128802376Y-120053815D01*
X128817971Y-120045277D01*
X128920046Y-119968776D01*
X128932607Y-119956215D01*
X129009108Y-119854140D01*
X129017646Y-119838545D01*
X129062800Y-119718097D01*
X129066427Y-119702842D01*
X129071953Y-119651977D01*
X129072322Y-119645163D01*
X129072322Y-119085106D01*
X129067847Y-119069867D01*
X129066457Y-119068662D01*
X129058774Y-119066991D01*
X128048937Y-119066991D01*
X128033698Y-119071466D01*
X128032493Y-119072856D01*
X128030822Y-119080539D01*
X128030822Y-120090375D01*
X127522822Y-120090375D01*
X127522822Y-117535607D01*
X127518347Y-117520368D01*
X127516957Y-117519163D01*
X127509274Y-117517492D01*
X126944653Y-117517492D01*
X126937832Y-117517862D01*
X126886970Y-117523386D01*
X126871718Y-117527012D01*
X126751268Y-117572167D01*
X126735673Y-117580705D01*
X126633598Y-117657206D01*
X126621037Y-117669767D01*
X126544536Y-117771842D01*
X126535998Y-117787437D01*
X126490844Y-117907885D01*
X126487217Y-117923140D01*
X126481691Y-117974005D01*
X126481175Y-117983532D01*
X126457517Y-118050471D01*
X126401425Y-118093994D01*
X126342385Y-118102047D01*
X126316996Y-118099419D01*
X126301414Y-118107609D01*
X125608844Y-118800179D01*
X125601230Y-118814123D01*
X124871178Y-118814123D01*
X124872414Y-118811859D01*
X124872283Y-118810026D01*
X124868032Y-118803411D01*
X124171509Y-118106888D01*
X124159735Y-118100458D01*
X124147720Y-118109754D01*
X124113755Y-118158262D01*
X124108276Y-118167752D01*
X124081017Y-118226208D01*
X124034100Y-118279493D01*
X123965822Y-118298954D01*
X123897863Y-118278412D01*
X123852627Y-118226208D01*
X123825368Y-118167752D01*
X123819889Y-118158262D01*
X123785337Y-118108915D01*
X123774861Y-118100541D01*
X123761414Y-118107609D01*
X123068844Y-118800179D01*
X123061230Y-118814123D01*
X122394516Y-118814123D01*
X122397746Y-118768959D01*
X122426707Y-118723896D01*
X123402925Y-117747678D01*
X123409355Y-117735904D01*
X123408618Y-117734952D01*
X124524372Y-117734952D01*
X124531440Y-117748399D01*
X125224010Y-118440969D01*
X125237954Y-118448583D01*
X125239787Y-118448452D01*
X125246402Y-118444201D01*
X125942925Y-117747678D01*
X125949355Y-117735904D01*
X125940058Y-117723888D01*
X125891552Y-117689924D01*
X125882066Y-117684446D01*
X125686584Y-117593292D01*
X125676292Y-117589546D01*
X125467958Y-117533723D01*
X125457163Y-117531820D01*
X125242297Y-117513021D01*
X125231347Y-117513021D01*
X125016481Y-117531820D01*
X125005686Y-117533723D01*
X124797352Y-117589546D01*
X124787060Y-117593292D01*
X124591583Y-117684445D01*
X124582093Y-117689924D01*
X124532746Y-117724476D01*
X124524372Y-117734952D01*
X123408618Y-117734952D01*
X123400058Y-117723888D01*
X123351552Y-117689924D01*
X123342066Y-117684446D01*
X123146584Y-117593292D01*
X123136292Y-117589546D01*
X122927958Y-117533723D01*
X122917163Y-117531820D01*
X122702297Y-117513021D01*
X122691347Y-117513021D01*
X122476481Y-117531820D01*
X122465686Y-117533723D01*
X122257352Y-117589546D01*
X122247060Y-117593292D01*
X122224570Y-117603779D01*
X122154379Y-117614439D01*
X122089566Y-117585458D01*
X122050711Y-117526038D01*
X122045322Y-117489583D01*
X122045322Y-91408116D01*
X127948602Y-91408116D01*
X127949348Y-91416008D01*
X127952763Y-91452134D01*
X127953322Y-91463992D01*
X127953322Y-116134224D01*
X127952795Y-116145407D01*
X127951120Y-116152900D01*
X127951369Y-116160826D01*
X127951369Y-116160827D01*
X127953260Y-116220977D01*
X127953322Y-116224936D01*
X127953322Y-116252847D01*
X127953819Y-116256781D01*
X127953819Y-116256782D01*
X127953827Y-116256847D01*
X127954760Y-116268684D01*
X127956149Y-116312880D01*
X127961800Y-116332330D01*
X127965809Y-116351691D01*
X127968348Y-116371788D01*
X127971267Y-116379159D01*
X127971267Y-116379161D01*
X127984626Y-116412903D01*
X127988471Y-116424133D01*
X128000804Y-116466584D01*
X128004837Y-116473403D01*
X128004839Y-116473408D01*
X128011115Y-116484019D01*
X128019810Y-116501767D01*
X128027270Y-116520608D01*
X128031932Y-116527024D01*
X128031932Y-116527025D01*
X128053258Y-116556378D01*
X128059774Y-116566298D01*
X128082280Y-116604353D01*
X128096601Y-116618674D01*
X128109441Y-116633707D01*
X128121350Y-116650098D01*
X128127456Y-116655149D01*
X128155427Y-116678289D01*
X128164206Y-116686279D01*
X128791107Y-117313180D01*
X128825133Y-117375492D01*
X128820068Y-117446307D01*
X128777521Y-117503143D01*
X128711001Y-117527954D01*
X128672866Y-117524858D01*
X128666674Y-117523386D01*
X128615808Y-117517860D01*
X128608994Y-117517491D01*
X128048937Y-117517491D01*
X128033698Y-117521966D01*
X128032493Y-117523356D01*
X128030822Y-117531039D01*
X128030822Y-118540876D01*
X128035297Y-118556115D01*
X128036687Y-118557320D01*
X128044370Y-118558991D01*
X129054206Y-118558991D01*
X129069445Y-118554516D01*
X129070650Y-118553126D01*
X129072321Y-118545443D01*
X129072321Y-117980822D01*
X129071951Y-117974001D01*
X129066427Y-117923138D01*
X129064954Y-117916941D01*
X129068659Y-117846041D01*
X129110108Y-117788400D01*
X129176140Y-117762318D01*
X129245791Y-117776075D01*
X129276628Y-117798701D01*
X129816419Y-118338493D01*
X129850443Y-118400803D01*
X129853322Y-118427586D01*
X129853322Y-132760538D01*
X129833320Y-132828659D01*
X129779664Y-132875152D01*
X129753520Y-132883785D01*
X129704534Y-132894197D01*
X129698504Y-132896882D01*
X129698503Y-132896882D01*
X129536100Y-132969188D01*
X129536098Y-132969189D01*
X129530070Y-132971873D01*
X129375569Y-133084125D01*
X129371148Y-133089035D01*
X129371147Y-133089036D01*
X129316792Y-133149404D01*
X129247782Y-133226047D01*
X129152295Y-133391435D01*
X129093280Y-133573063D01*
X129092590Y-133579624D01*
X129092590Y-133579626D01*
X129076341Y-133734224D01*
X129073318Y-133762991D01*
X129074008Y-133769556D01*
X129083183Y-133856847D01*
X129093280Y-133952919D01*
X129152295Y-134134547D01*
X129247782Y-134299935D01*
X129375569Y-134441857D01*
X129530070Y-134554109D01*
X129536098Y-134556793D01*
X129536100Y-134556794D01*
X129698503Y-134629100D01*
X129704534Y-134631785D01*
X129797935Y-134651638D01*
X129884878Y-134670119D01*
X129884883Y-134670119D01*
X129891335Y-134671491D01*
X130082309Y-134671491D01*
X130088761Y-134670119D01*
X130088766Y-134670119D01*
X130175709Y-134651638D01*
X130269110Y-134631785D01*
X130275141Y-134629100D01*
X130437544Y-134556794D01*
X130437546Y-134556793D01*
X130443574Y-134554109D01*
X130598075Y-134441857D01*
X130643186Y-134391756D01*
X130703632Y-134354516D01*
X130774615Y-134355868D01*
X130830458Y-134391756D01*
X130875569Y-134441857D01*
X131030070Y-134554109D01*
X131036098Y-134556793D01*
X131036100Y-134556794D01*
X131198503Y-134629100D01*
X131204534Y-134631785D01*
X131297935Y-134651638D01*
X131384878Y-134670119D01*
X131384883Y-134670119D01*
X131391335Y-134671491D01*
X131582309Y-134671491D01*
X131588761Y-134670119D01*
X131588766Y-134670119D01*
X131675709Y-134651638D01*
X131769110Y-134631785D01*
X131775141Y-134629100D01*
X131937544Y-134556794D01*
X131937546Y-134556793D01*
X131943574Y-134554109D01*
X132098075Y-134441857D01*
X132225862Y-134299935D01*
X132321349Y-134134547D01*
X132380364Y-133952919D01*
X132390462Y-133856847D01*
X132399636Y-133769556D01*
X132400326Y-133762991D01*
X132397303Y-133734224D01*
X132381054Y-133579626D01*
X132381054Y-133579624D01*
X132380364Y-133573063D01*
X132321349Y-133391435D01*
X132260182Y-133285491D01*
X132243444Y-133216496D01*
X132266664Y-133149404D01*
X132322471Y-133105517D01*
X132369301Y-133096491D01*
X133259956Y-133096491D01*
X133322138Y-133089736D01*
X133458527Y-133038606D01*
X133575083Y-132951252D01*
X133662437Y-132834696D01*
X133713567Y-132698307D01*
X133720322Y-132636125D01*
X133720322Y-131839857D01*
X133713567Y-131777675D01*
X133662437Y-131641286D01*
X133575083Y-131524730D01*
X133458527Y-131437376D01*
X133322138Y-131386246D01*
X133259956Y-131379491D01*
X132113688Y-131379491D01*
X132051506Y-131386246D01*
X131915117Y-131437376D01*
X131875765Y-131466869D01*
X131821887Y-131507248D01*
X131755381Y-131532096D01*
X131685998Y-131517043D01*
X131635768Y-131466869D01*
X131620322Y-131406422D01*
X131620322Y-130918935D01*
X131640324Y-130850814D01*
X131693980Y-130804321D01*
X131764254Y-130794217D01*
X131821887Y-130818109D01*
X131908173Y-130882777D01*
X131923768Y-130891315D01*
X132044216Y-130936469D01*
X132059471Y-130940096D01*
X132110336Y-130945622D01*
X132117150Y-130945991D01*
X132414707Y-130945991D01*
X132429946Y-130941516D01*
X132431151Y-130940126D01*
X132432822Y-130932443D01*
X132432822Y-130927875D01*
X132940822Y-130927875D01*
X132945297Y-130943114D01*
X132946687Y-130944319D01*
X132954370Y-130945990D01*
X133256491Y-130945990D01*
X133263312Y-130945620D01*
X133314174Y-130940096D01*
X133329426Y-130936470D01*
X133449876Y-130891315D01*
X133465471Y-130882777D01*
X133567546Y-130806276D01*
X133580107Y-130793715D01*
X133656608Y-130691640D01*
X133665146Y-130676045D01*
X133710300Y-130555597D01*
X133713927Y-130540342D01*
X133719453Y-130489477D01*
X133719822Y-130482663D01*
X133719822Y-130360106D01*
X133715347Y-130344867D01*
X133713957Y-130343662D01*
X133706274Y-130341991D01*
X132958937Y-130341991D01*
X132943698Y-130346466D01*
X132942493Y-130347856D01*
X132940822Y-130355539D01*
X132940822Y-130927875D01*
X132432822Y-130927875D01*
X132432822Y-129815876D01*
X132940822Y-129815876D01*
X132945297Y-129831115D01*
X132946687Y-129832320D01*
X132954370Y-129833991D01*
X133701706Y-129833991D01*
X133716945Y-129829516D01*
X133718150Y-129828126D01*
X133719821Y-129820443D01*
X133719821Y-129693322D01*
X133719451Y-129686501D01*
X133713927Y-129635639D01*
X133710300Y-129620384D01*
X133695123Y-129579898D01*
X133689940Y-129509091D01*
X133723861Y-129446722D01*
X133786117Y-129412593D01*
X133813105Y-129409669D01*
X133840467Y-129409669D01*
X133855706Y-129405194D01*
X133856911Y-129403804D01*
X133858582Y-129396121D01*
X133858582Y-128723784D01*
X133854107Y-128708545D01*
X133852717Y-128707340D01*
X133845034Y-128705669D01*
X133222698Y-128705669D01*
X133207459Y-128710144D01*
X133206254Y-128711534D01*
X133204583Y-128719217D01*
X133204583Y-128946338D01*
X133204953Y-128953159D01*
X133210477Y-129004021D01*
X133214104Y-129019276D01*
X133229281Y-129059762D01*
X133234464Y-129130569D01*
X133200543Y-129192938D01*
X133138287Y-129227067D01*
X133111299Y-129229991D01*
X132958937Y-129229991D01*
X132943698Y-129234466D01*
X132942493Y-129235856D01*
X132940822Y-129243539D01*
X132940822Y-129815876D01*
X132432822Y-129815876D01*
X132432822Y-129248107D01*
X132428347Y-129232868D01*
X132426957Y-129231663D01*
X132419274Y-129229992D01*
X132117153Y-129229992D01*
X132110332Y-129230362D01*
X132059470Y-129235886D01*
X132044218Y-129239512D01*
X131923768Y-129284667D01*
X131908173Y-129293205D01*
X131821887Y-129357873D01*
X131755380Y-129382721D01*
X131685998Y-129367668D01*
X131635768Y-129317494D01*
X131620322Y-129257047D01*
X131620322Y-128179554D01*
X133204582Y-128179554D01*
X133209057Y-128194793D01*
X133210447Y-128195998D01*
X133218130Y-128197669D01*
X133840467Y-128197669D01*
X133855706Y-128193194D01*
X133856911Y-128191804D01*
X133858582Y-128184121D01*
X133858582Y-127511785D01*
X133854107Y-127496546D01*
X133852717Y-127495341D01*
X133845034Y-127493670D01*
X133667913Y-127493670D01*
X133661092Y-127494040D01*
X133610230Y-127499564D01*
X133594978Y-127503190D01*
X133474528Y-127548345D01*
X133458933Y-127556883D01*
X133356858Y-127633384D01*
X133344297Y-127645945D01*
X133267796Y-127748020D01*
X133259258Y-127763615D01*
X133214104Y-127884063D01*
X133210477Y-127899318D01*
X133204951Y-127950183D01*
X133204582Y-127956997D01*
X133204582Y-128179554D01*
X131620322Y-128179554D01*
X131620322Y-117991758D01*
X131620849Y-117980575D01*
X131622524Y-117973082D01*
X131620384Y-117905005D01*
X131620322Y-117901046D01*
X131620322Y-117873135D01*
X131619817Y-117869135D01*
X131618884Y-117857292D01*
X131618531Y-117846041D01*
X131617495Y-117813101D01*
X131611844Y-117793649D01*
X131607836Y-117774297D01*
X131606289Y-117762054D01*
X131605296Y-117754194D01*
X131597678Y-117734952D01*
X131589022Y-117713088D01*
X131585177Y-117701861D01*
X131580117Y-117684445D01*
X131572840Y-117659398D01*
X131568806Y-117652576D01*
X131568803Y-117652570D01*
X131562528Y-117641959D01*
X131553832Y-117624209D01*
X131549294Y-117612747D01*
X131549291Y-117612742D01*
X131546374Y-117605374D01*
X131520395Y-117569616D01*
X131513879Y-117559698D01*
X131498517Y-117533723D01*
X131491364Y-117521628D01*
X131477040Y-117507304D01*
X131464198Y-117492269D01*
X131452294Y-117475884D01*
X131418228Y-117447702D01*
X131409449Y-117439713D01*
X129706747Y-115737011D01*
X129672721Y-115674699D01*
X129669842Y-115647916D01*
X129669842Y-93078065D01*
X129689844Y-93009944D01*
X129706747Y-92988970D01*
X129937321Y-92758396D01*
X129999633Y-92724370D01*
X130026416Y-92721491D01*
X130082309Y-92721491D01*
X130088761Y-92720119D01*
X130088766Y-92720119D01*
X130175709Y-92701638D01*
X130269110Y-92681785D01*
X130275141Y-92679100D01*
X130437544Y-92606794D01*
X130437546Y-92606793D01*
X130443574Y-92604109D01*
X130598075Y-92491857D01*
X130712948Y-92364278D01*
X130721443Y-92354843D01*
X130721444Y-92354842D01*
X130725862Y-92349935D01*
X130821349Y-92184547D01*
X130880364Y-92002919D01*
X130881113Y-91995798D01*
X130899636Y-91819556D01*
X130900326Y-91812991D01*
X130880364Y-91623063D01*
X130821349Y-91441435D01*
X130818035Y-91435694D01*
X130779180Y-91368397D01*
X130725862Y-91276047D01*
X130702435Y-91250028D01*
X130602497Y-91139036D01*
X130602496Y-91139035D01*
X130598075Y-91134125D01*
X130443574Y-91021873D01*
X130437541Y-91019187D01*
X130437536Y-91019184D01*
X130405767Y-91005039D01*
X130351671Y-90959059D01*
X130331022Y-90891132D01*
X130337183Y-90850996D01*
X130351769Y-90806108D01*
X130380364Y-90718101D01*
X130381503Y-90707270D01*
X130399636Y-90534738D01*
X130400326Y-90528173D01*
X130389508Y-90425242D01*
X130381054Y-90344808D01*
X130381054Y-90344806D01*
X130380364Y-90338245D01*
X130321349Y-90156617D01*
X130225862Y-89991229D01*
X130217632Y-89982088D01*
X130102497Y-89854218D01*
X130102496Y-89854217D01*
X130098075Y-89849307D01*
X129943574Y-89737055D01*
X129937546Y-89734371D01*
X129937544Y-89734370D01*
X129775141Y-89662064D01*
X129775140Y-89662064D01*
X129769110Y-89659379D01*
X129675709Y-89639526D01*
X129588766Y-89621045D01*
X129588761Y-89621045D01*
X129582309Y-89619673D01*
X129391335Y-89619673D01*
X129384883Y-89621045D01*
X129384878Y-89621045D01*
X129297935Y-89639526D01*
X129204534Y-89659379D01*
X129198504Y-89662064D01*
X129198503Y-89662064D01*
X129036100Y-89734370D01*
X129036098Y-89734371D01*
X129030070Y-89737055D01*
X128875569Y-89849307D01*
X128871148Y-89854217D01*
X128871147Y-89854218D01*
X128756013Y-89982088D01*
X128747782Y-89991229D01*
X128652295Y-90156617D01*
X128593280Y-90338245D01*
X128592590Y-90344806D01*
X128592590Y-90344808D01*
X128575915Y-90503465D01*
X128548902Y-90569122D01*
X128539700Y-90579390D01*
X128194569Y-90924521D01*
X128186283Y-90932061D01*
X128179804Y-90936173D01*
X128174379Y-90941950D01*
X128133179Y-90985824D01*
X128130424Y-90988666D01*
X128110687Y-91008403D01*
X128108207Y-91011600D01*
X128100504Y-91020620D01*
X128070236Y-91052852D01*
X128066417Y-91059798D01*
X128066415Y-91059801D01*
X128060474Y-91070607D01*
X128049623Y-91087126D01*
X128037208Y-91103132D01*
X128034063Y-91110401D01*
X128034060Y-91110405D01*
X128019648Y-91143710D01*
X128014431Y-91154360D01*
X127993127Y-91193113D01*
X127991156Y-91200788D01*
X127991156Y-91200789D01*
X127988089Y-91212735D01*
X127981685Y-91231439D01*
X127973641Y-91250028D01*
X127972402Y-91257851D01*
X127972399Y-91257861D01*
X127966723Y-91293697D01*
X127964317Y-91305317D01*
X127955294Y-91340462D01*
X127953322Y-91348143D01*
X127953322Y-91368397D01*
X127951771Y-91388107D01*
X127948602Y-91408116D01*
X122045322Y-91408116D01*
X122045322Y-82379362D01*
X122065324Y-82311241D01*
X122082227Y-82290267D01*
X122643153Y-81729341D01*
X122706050Y-81695190D01*
X122762646Y-81683160D01*
X122762655Y-81683157D01*
X122769110Y-81681785D01*
X122781017Y-81676484D01*
X122804315Y-81666111D01*
X122885574Y-81629932D01*
X122955940Y-81620498D01*
X122988068Y-81629931D01*
X123069329Y-81666111D01*
X123092628Y-81676484D01*
X123104534Y-81681785D01*
X123196274Y-81701285D01*
X123284878Y-81720119D01*
X123284883Y-81720119D01*
X123291335Y-81721491D01*
X123482309Y-81721491D01*
X123488761Y-81720119D01*
X123488766Y-81720119D01*
X123577370Y-81701285D01*
X123669110Y-81681785D01*
X123675141Y-81679100D01*
X123837544Y-81606794D01*
X123837546Y-81606793D01*
X123843574Y-81604109D01*
X123998075Y-81491857D01*
X124019455Y-81468112D01*
X124121443Y-81354843D01*
X124121444Y-81354842D01*
X124125862Y-81349935D01*
X124221349Y-81184547D01*
X124280364Y-81002919D01*
X124285038Y-80958454D01*
X124299636Y-80819556D01*
X124300326Y-80812991D01*
X124282442Y-80642833D01*
X124281054Y-80629626D01*
X124281054Y-80629624D01*
X124280364Y-80623063D01*
X124221349Y-80441435D01*
X124212433Y-80425992D01*
X124195694Y-80356998D01*
X124212433Y-80299989D01*
X124214845Y-80295813D01*
X124221349Y-80284547D01*
X124280364Y-80102919D01*
X124289002Y-80020738D01*
X124299636Y-79919556D01*
X124300326Y-79912991D01*
X124293018Y-79843458D01*
X124281054Y-79729626D01*
X124281054Y-79729624D01*
X124280364Y-79723063D01*
X124221349Y-79541435D01*
X124125862Y-79376047D01*
X124118039Y-79367358D01*
X124002497Y-79239036D01*
X124002496Y-79239035D01*
X123998075Y-79234125D01*
X123843574Y-79121873D01*
X123837546Y-79119189D01*
X123837544Y-79119188D01*
X123675141Y-79046882D01*
X123675140Y-79046882D01*
X123669110Y-79044197D01*
X123575709Y-79024344D01*
X123488766Y-79005863D01*
X123488761Y-79005863D01*
X123482309Y-79004491D01*
X123291335Y-79004491D01*
X123284883Y-79005863D01*
X123284878Y-79005863D01*
X123197935Y-79024344D01*
X123104534Y-79044197D01*
X123098504Y-79046882D01*
X123098503Y-79046882D01*
X123069329Y-79059871D01*
X122988070Y-79096050D01*
X122917704Y-79105484D01*
X122885576Y-79096051D01*
X122804315Y-79059871D01*
X122775141Y-79046882D01*
X122775140Y-79046882D01*
X122769110Y-79044197D01*
X122675709Y-79024344D01*
X122588766Y-79005863D01*
X122588761Y-79005863D01*
X122582309Y-79004491D01*
X122391335Y-79004491D01*
X122384883Y-79005863D01*
X122384878Y-79005863D01*
X122297935Y-79024344D01*
X122204534Y-79044197D01*
X122198504Y-79046882D01*
X122198503Y-79046882D01*
X122036100Y-79119188D01*
X122036098Y-79119189D01*
X122030070Y-79121873D01*
X121875569Y-79234125D01*
X121871148Y-79239035D01*
X121871147Y-79239036D01*
X121755606Y-79367358D01*
X121747782Y-79376047D01*
X121652295Y-79541435D01*
X121593280Y-79723063D01*
X121592590Y-79729624D01*
X121592590Y-79729626D01*
X121580626Y-79843458D01*
X121573318Y-79912991D01*
X121574008Y-79919556D01*
X121584643Y-80020738D01*
X121593280Y-80102919D01*
X121652295Y-80284547D01*
X121658800Y-80295813D01*
X121661211Y-80299989D01*
X121677950Y-80368984D01*
X121661212Y-80425991D01*
X121652295Y-80441435D01*
X121635152Y-80494197D01*
X121597435Y-80610276D01*
X121566697Y-80660435D01*
X120868414Y-81358718D01*
X120806102Y-81392744D01*
X120735287Y-81387679D01*
X120678451Y-81345132D01*
X120653640Y-81278612D01*
X120665124Y-81216373D01*
X120682939Y-81178169D01*
X120682940Y-81178168D01*
X120685262Y-81173187D01*
X120686978Y-81166785D01*
X120713851Y-81066493D01*
X120742800Y-80958454D01*
X120762175Y-80736991D01*
X120742800Y-80515528D01*
X120685262Y-80300795D01*
X120680353Y-80290268D01*
X120593636Y-80104302D01*
X120593633Y-80104297D01*
X120591310Y-80099315D01*
X120530143Y-80011959D01*
X120466958Y-79921721D01*
X120466956Y-79921718D01*
X120463799Y-79917210D01*
X120306603Y-79760014D01*
X120302095Y-79756857D01*
X120302092Y-79756855D01*
X120211549Y-79693456D01*
X120124499Y-79632503D01*
X120119517Y-79630180D01*
X120119512Y-79630177D01*
X120014449Y-79581186D01*
X119961164Y-79534269D01*
X119941703Y-79465992D01*
X119962245Y-79398032D01*
X120014449Y-79352796D01*
X120119512Y-79303805D01*
X120119517Y-79303802D01*
X120124499Y-79301479D01*
X120230434Y-79227302D01*
X120302092Y-79177127D01*
X120302095Y-79177125D01*
X120306603Y-79173968D01*
X120463799Y-79016772D01*
X120472399Y-79004491D01*
X120588153Y-78839176D01*
X120588154Y-78839174D01*
X120591310Y-78834667D01*
X120593633Y-78829685D01*
X120593636Y-78829680D01*
X120682939Y-78638169D01*
X120682940Y-78638168D01*
X120685262Y-78633187D01*
X120699013Y-78581870D01*
X120720157Y-78502958D01*
X120742800Y-78418454D01*
X120762175Y-78196991D01*
X120742800Y-77975528D01*
X120738465Y-77959349D01*
X120732336Y-77936475D01*
X120734026Y-77865498D01*
X120764948Y-77814769D01*
X121096321Y-77483396D01*
X121158633Y-77449370D01*
X121185416Y-77446491D01*
X128372228Y-77446491D01*
X128440349Y-77466493D01*
G37*
%TD.AperFunction*%
%TA.AperFunction,Conductor*%
G36*
X135333189Y-85158018D02*
G01*
X135350177Y-85172250D01*
X138048045Y-87870119D01*
X140716417Y-90538491D01*
X140750443Y-90600803D01*
X140753322Y-90627586D01*
X140753322Y-112539365D01*
X140733320Y-112607486D01*
X140679664Y-112653979D01*
X140609390Y-112664083D01*
X140544810Y-112634589D01*
X140533686Y-112623675D01*
X140502497Y-112589036D01*
X140502496Y-112589035D01*
X140498075Y-112584125D01*
X140360033Y-112483831D01*
X140348916Y-112475754D01*
X140348915Y-112475753D01*
X140343574Y-112471873D01*
X140337546Y-112469189D01*
X140337544Y-112469188D01*
X140226420Y-112419713D01*
X140169110Y-112394197D01*
X140165632Y-112393458D01*
X140107958Y-112354021D01*
X140080321Y-112288625D01*
X140079500Y-112274262D01*
X140079500Y-100639863D01*
X140099502Y-100571742D01*
X140113650Y-100553610D01*
X140122491Y-100544195D01*
X140127919Y-100538415D01*
X140137679Y-100520662D01*
X140148532Y-100504139D01*
X140156086Y-100494400D01*
X140160946Y-100488135D01*
X140178509Y-100447551D01*
X140183716Y-100436921D01*
X140205028Y-100398154D01*
X140206999Y-100390477D01*
X140207001Y-100390472D01*
X140210065Y-100378536D01*
X140216471Y-100359824D01*
X140221366Y-100348513D01*
X140224514Y-100341239D01*
X140225754Y-100333411D01*
X140225756Y-100333404D01*
X140231432Y-100297570D01*
X140233838Y-100285950D01*
X140242861Y-100250805D01*
X140242861Y-100250804D01*
X140244833Y-100243124D01*
X140244833Y-100222870D01*
X140246384Y-100203159D01*
X140248313Y-100190980D01*
X140249553Y-100183151D01*
X140245392Y-100139132D01*
X140244833Y-100127275D01*
X140244833Y-90924727D01*
X140245360Y-90913543D01*
X140247034Y-90906055D01*
X140244895Y-90837996D01*
X140244833Y-90834039D01*
X140244833Y-90806108D01*
X140244327Y-90802102D01*
X140243394Y-90790256D01*
X140242255Y-90754001D01*
X140242006Y-90746074D01*
X140236355Y-90726622D01*
X140232347Y-90707270D01*
X140230800Y-90695027D01*
X140229807Y-90687167D01*
X140226889Y-90679796D01*
X140213533Y-90646061D01*
X140209688Y-90634834D01*
X140207582Y-90627586D01*
X140197351Y-90592371D01*
X140193317Y-90585549D01*
X140193314Y-90585543D01*
X140187039Y-90574932D01*
X140178343Y-90557182D01*
X140173805Y-90545720D01*
X140173802Y-90545715D01*
X140170885Y-90538347D01*
X140144906Y-90502589D01*
X140138390Y-90492671D01*
X140119908Y-90461421D01*
X140115875Y-90454601D01*
X140101551Y-90440277D01*
X140088709Y-90425242D01*
X140076805Y-90408857D01*
X140042739Y-90380675D01*
X140033960Y-90372686D01*
X135185589Y-85524315D01*
X135151563Y-85462003D01*
X135149374Y-85422050D01*
X135149636Y-85419557D01*
X135149636Y-85419556D01*
X135150326Y-85412991D01*
X135149636Y-85406426D01*
X135135772Y-85274515D01*
X135148544Y-85204677D01*
X135197046Y-85152830D01*
X135265879Y-85135436D01*
X135333189Y-85158018D01*
G37*
%TD.AperFunction*%
%TA.AperFunction,Conductor*%
G36*
X150826936Y-77591004D02*
G01*
X150873429Y-77644660D01*
X150884125Y-77710171D01*
X150873318Y-77812991D01*
X150874008Y-77819556D01*
X150891504Y-77986017D01*
X150893280Y-78002919D01*
X150952295Y-78184547D01*
X150955598Y-78190269D01*
X150955599Y-78190270D01*
X150966244Y-78208707D01*
X151047782Y-78349935D01*
X151120959Y-78431206D01*
X151151675Y-78495212D01*
X151153322Y-78515515D01*
X151153322Y-80685243D01*
X151133320Y-80753364D01*
X151079664Y-80799857D01*
X151009390Y-80809961D01*
X151001128Y-80808490D01*
X150988773Y-80805864D01*
X150988764Y-80805863D01*
X150982309Y-80804491D01*
X150791335Y-80804491D01*
X150784883Y-80805863D01*
X150784878Y-80805863D01*
X150697935Y-80824344D01*
X150604534Y-80844197D01*
X150598504Y-80846882D01*
X150598503Y-80846882D01*
X150436100Y-80919188D01*
X150436098Y-80919189D01*
X150430070Y-80921873D01*
X150275569Y-81034125D01*
X150271148Y-81039035D01*
X150271147Y-81039036D01*
X150156122Y-81166785D01*
X150147782Y-81176047D01*
X150052295Y-81341435D01*
X149993280Y-81523063D01*
X149992590Y-81529624D01*
X149992590Y-81529626D01*
X149986321Y-81589276D01*
X149973318Y-81712991D01*
X149974008Y-81719556D01*
X149987250Y-81845542D01*
X149993280Y-81902919D01*
X150052295Y-82084547D01*
X150055598Y-82090269D01*
X150055599Y-82090270D01*
X150083290Y-82138232D01*
X150147782Y-82249935D01*
X150229611Y-82340815D01*
X150260327Y-82404821D01*
X150261974Y-82425124D01*
X150261974Y-93718262D01*
X150261447Y-93729445D01*
X150259772Y-93736938D01*
X150260021Y-93744864D01*
X150260021Y-93744865D01*
X150261912Y-93805015D01*
X150261974Y-93808974D01*
X150261974Y-93836885D01*
X150262471Y-93840819D01*
X150262471Y-93840820D01*
X150262479Y-93840885D01*
X150263412Y-93852722D01*
X150264801Y-93896918D01*
X150270452Y-93916368D01*
X150274461Y-93935729D01*
X150276839Y-93954553D01*
X150277833Y-93970345D01*
X150277833Y-110653907D01*
X150257831Y-110722028D01*
X150204175Y-110768521D01*
X150133901Y-110778625D01*
X150069321Y-110749131D01*
X150062738Y-110743002D01*
X147457227Y-108137491D01*
X147423201Y-108075179D01*
X147420322Y-108048396D01*
X147420322Y-82065515D01*
X147440324Y-81997394D01*
X147452680Y-81981212D01*
X147525862Y-81899935D01*
X147621349Y-81734547D01*
X147680364Y-81552919D01*
X147682566Y-81531973D01*
X147699636Y-81369556D01*
X147700326Y-81362991D01*
X147691458Y-81278612D01*
X147681054Y-81179626D01*
X147681054Y-81179624D01*
X147680364Y-81173063D01*
X147621349Y-80991435D01*
X147606522Y-80965753D01*
X147565814Y-80895246D01*
X147525862Y-80826047D01*
X147520426Y-80820009D01*
X147402497Y-80689036D01*
X147402496Y-80689035D01*
X147398075Y-80684125D01*
X147296431Y-80610276D01*
X147248916Y-80575754D01*
X147248915Y-80575753D01*
X147243574Y-80571873D01*
X147237546Y-80569189D01*
X147237544Y-80569188D01*
X147075141Y-80496882D01*
X147075140Y-80496882D01*
X147069110Y-80494197D01*
X146975709Y-80474344D01*
X146888766Y-80455863D01*
X146888761Y-80455863D01*
X146882309Y-80454491D01*
X146691335Y-80454491D01*
X146684883Y-80455863D01*
X146684878Y-80455863D01*
X146597935Y-80474344D01*
X146504534Y-80494197D01*
X146498504Y-80496882D01*
X146498503Y-80496882D01*
X146444317Y-80521007D01*
X146338070Y-80568311D01*
X146267704Y-80577745D01*
X146235575Y-80568311D01*
X146129327Y-80521007D01*
X146075141Y-80496882D01*
X146075140Y-80496882D01*
X146069110Y-80494197D01*
X145975709Y-80474344D01*
X145888766Y-80455863D01*
X145888761Y-80455863D01*
X145882309Y-80454491D01*
X145691335Y-80454491D01*
X145684883Y-80455863D01*
X145684878Y-80455863D01*
X145597935Y-80474344D01*
X145504534Y-80494197D01*
X145498504Y-80496882D01*
X145498503Y-80496882D01*
X145336100Y-80569188D01*
X145336098Y-80569189D01*
X145330070Y-80571873D01*
X145324729Y-80575753D01*
X145324728Y-80575754D01*
X145277213Y-80610276D01*
X145175569Y-80684125D01*
X145171148Y-80689035D01*
X145171147Y-80689036D01*
X145053219Y-80820009D01*
X145047782Y-80826047D01*
X145007830Y-80895246D01*
X144967123Y-80965753D01*
X144952295Y-80991435D01*
X144893280Y-81173063D01*
X144892590Y-81179624D01*
X144892590Y-81179626D01*
X144882186Y-81278612D01*
X144873318Y-81362991D01*
X144874008Y-81369556D01*
X144891079Y-81531973D01*
X144893280Y-81552919D01*
X144952295Y-81734547D01*
X145047782Y-81899935D01*
X145120959Y-81981206D01*
X145151675Y-82045212D01*
X145153322Y-82065515D01*
X145153322Y-86111117D01*
X145133320Y-86179238D01*
X145079664Y-86225731D01*
X145009390Y-86235835D01*
X144944810Y-86206341D01*
X144938227Y-86200212D01*
X141296621Y-82558605D01*
X137458754Y-78720738D01*
X137451214Y-78712452D01*
X137447102Y-78705973D01*
X137397450Y-78659347D01*
X137394609Y-78656593D01*
X137374872Y-78636856D01*
X137371675Y-78634376D01*
X137362653Y-78626671D01*
X137336202Y-78601832D01*
X137330423Y-78596405D01*
X137323477Y-78592586D01*
X137323474Y-78592584D01*
X137312668Y-78586643D01*
X137296149Y-78575792D01*
X137295685Y-78575432D01*
X137280143Y-78563377D01*
X137272874Y-78560232D01*
X137272870Y-78560229D01*
X137239565Y-78545817D01*
X137228915Y-78540600D01*
X137190162Y-78519296D01*
X137170539Y-78514258D01*
X137151836Y-78507854D01*
X137140522Y-78502958D01*
X137140521Y-78502958D01*
X137133247Y-78499810D01*
X137125424Y-78498571D01*
X137125414Y-78498568D01*
X137089578Y-78492892D01*
X137077958Y-78490486D01*
X137042813Y-78481463D01*
X137042812Y-78481463D01*
X137035132Y-78479491D01*
X137014878Y-78479491D01*
X136995167Y-78477940D01*
X136982988Y-78476011D01*
X136975159Y-78474771D01*
X136967267Y-78475517D01*
X136931141Y-78478932D01*
X136919283Y-78479491D01*
X134495022Y-78479491D01*
X134426901Y-78459489D01*
X134407675Y-78443148D01*
X134407402Y-78443451D01*
X134402490Y-78439028D01*
X134398075Y-78434125D01*
X134385798Y-78425206D01*
X134262559Y-78335666D01*
X134219205Y-78279443D01*
X134213130Y-78208707D01*
X134220237Y-78186473D01*
X134221349Y-78184547D01*
X134280364Y-78002919D01*
X134282141Y-77986017D01*
X134289293Y-77917968D01*
X134297729Y-77837697D01*
X134324742Y-77772041D01*
X134333944Y-77761773D01*
X134487810Y-77607907D01*
X134550122Y-77573881D01*
X134576905Y-77571002D01*
X150758815Y-77571002D01*
X150826936Y-77591004D01*
G37*
%TD.AperFunction*%
%TA.AperFunction,Conductor*%
G36*
X160420540Y-74540993D02*
G01*
X160467033Y-74594649D01*
X160477137Y-74664923D01*
X160447643Y-74729503D01*
X160445436Y-74731874D01*
X160443922Y-74733678D01*
X160440023Y-74737577D01*
X160312512Y-74919682D01*
X160310189Y-74924664D01*
X160310186Y-74924669D01*
X160220883Y-75116180D01*
X160218560Y-75121162D01*
X160161022Y-75335895D01*
X160141647Y-75557358D01*
X160161022Y-75778821D01*
X160218560Y-75993554D01*
X160220882Y-75998535D01*
X160220883Y-75998536D01*
X160310186Y-76190047D01*
X160310189Y-76190052D01*
X160312512Y-76195034D01*
X160315668Y-76199541D01*
X160315669Y-76199543D01*
X160426692Y-76358100D01*
X160440023Y-76377139D01*
X160597219Y-76534335D01*
X160601727Y-76537492D01*
X160601730Y-76537494D01*
X160673139Y-76587495D01*
X160779323Y-76661846D01*
X160784305Y-76664169D01*
X160784310Y-76664172D01*
X160889373Y-76713163D01*
X160942658Y-76760080D01*
X160962119Y-76828357D01*
X160941577Y-76896317D01*
X160889373Y-76941553D01*
X160784311Y-76990544D01*
X160784306Y-76990547D01*
X160779324Y-76992870D01*
X160774817Y-76996026D01*
X160774815Y-76996027D01*
X160601730Y-77117222D01*
X160601727Y-77117224D01*
X160597219Y-77120381D01*
X160440023Y-77277577D01*
X160436866Y-77282085D01*
X160436864Y-77282088D01*
X160315669Y-77455173D01*
X160312512Y-77459682D01*
X160310189Y-77464664D01*
X160310186Y-77464669D01*
X160228272Y-77640335D01*
X160218560Y-77661162D01*
X160161022Y-77875895D01*
X160141647Y-78097358D01*
X160161022Y-78318821D01*
X160191135Y-78431204D01*
X160214878Y-78519811D01*
X160218560Y-78533554D01*
X160220882Y-78538535D01*
X160220883Y-78538536D01*
X160310186Y-78730047D01*
X160310189Y-78730052D01*
X160312512Y-78735034D01*
X160315668Y-78739541D01*
X160315669Y-78739543D01*
X160382276Y-78834667D01*
X160440023Y-78917139D01*
X160597219Y-79074335D01*
X160601727Y-79077492D01*
X160601730Y-79077494D01*
X160665110Y-79121873D01*
X160779323Y-79201846D01*
X160784305Y-79204169D01*
X160784310Y-79204172D01*
X160889373Y-79253163D01*
X160942658Y-79300080D01*
X160962119Y-79368357D01*
X160941577Y-79436317D01*
X160889373Y-79481553D01*
X160784311Y-79530544D01*
X160784306Y-79530547D01*
X160779324Y-79532870D01*
X160774817Y-79536026D01*
X160774815Y-79536027D01*
X160601730Y-79657222D01*
X160601727Y-79657224D01*
X160597219Y-79660381D01*
X160440023Y-79817577D01*
X160436866Y-79822085D01*
X160436864Y-79822088D01*
X160360788Y-79930736D01*
X160312512Y-79999682D01*
X160310189Y-80004664D01*
X160310186Y-80004669D01*
X160261444Y-80109197D01*
X160218560Y-80201162D01*
X160161022Y-80415895D01*
X160141647Y-80637358D01*
X160161022Y-80858821D01*
X160189675Y-80965753D01*
X160212501Y-81050940D01*
X160218560Y-81073554D01*
X160220882Y-81078535D01*
X160220883Y-81078536D01*
X160310186Y-81270047D01*
X160310189Y-81270052D01*
X160312512Y-81275034D01*
X160315668Y-81279541D01*
X160315669Y-81279543D01*
X160425197Y-81435965D01*
X160440023Y-81457139D01*
X160597219Y-81614335D01*
X160601727Y-81617492D01*
X160601730Y-81617494D01*
X160634418Y-81640382D01*
X160779323Y-81741846D01*
X160784305Y-81744169D01*
X160784310Y-81744172D01*
X160889373Y-81793163D01*
X160942658Y-81840080D01*
X160962119Y-81908357D01*
X160941577Y-81976317D01*
X160889373Y-82021553D01*
X160784311Y-82070544D01*
X160784306Y-82070547D01*
X160779324Y-82072870D01*
X160774817Y-82076026D01*
X160774815Y-82076027D01*
X160601730Y-82197222D01*
X160601727Y-82197224D01*
X160597219Y-82200381D01*
X160440023Y-82357577D01*
X160436866Y-82362085D01*
X160436864Y-82362088D01*
X160370259Y-82457210D01*
X160312512Y-82539682D01*
X160310189Y-82544664D01*
X160310186Y-82544669D01*
X160297700Y-82571446D01*
X160218560Y-82741162D01*
X160161022Y-82955895D01*
X160141647Y-83177358D01*
X160161022Y-83398821D01*
X160218560Y-83613554D01*
X160220882Y-83618535D01*
X160220883Y-83618536D01*
X160310186Y-83810047D01*
X160310189Y-83810052D01*
X160312512Y-83815034D01*
X160315668Y-83819541D01*
X160315669Y-83819543D01*
X160350689Y-83869556D01*
X160440023Y-83997139D01*
X160597219Y-84154335D01*
X160601727Y-84157492D01*
X160601730Y-84157494D01*
X160673139Y-84207495D01*
X160779323Y-84281846D01*
X160784305Y-84284169D01*
X160784310Y-84284172D01*
X160889373Y-84333163D01*
X160942658Y-84380080D01*
X160962119Y-84448357D01*
X160941577Y-84516317D01*
X160889373Y-84561553D01*
X160784311Y-84610544D01*
X160784306Y-84610547D01*
X160779324Y-84612870D01*
X160774817Y-84616026D01*
X160774815Y-84616027D01*
X160601730Y-84737222D01*
X160601727Y-84737224D01*
X160597219Y-84740381D01*
X160440023Y-84897577D01*
X160312512Y-85079682D01*
X160310189Y-85084664D01*
X160310186Y-85084669D01*
X160220883Y-85276180D01*
X160218560Y-85281162D01*
X160161022Y-85495895D01*
X160141647Y-85717358D01*
X160161022Y-85938821D01*
X160218560Y-86153554D01*
X160220882Y-86158535D01*
X160220883Y-86158536D01*
X160310186Y-86350047D01*
X160310189Y-86350052D01*
X160312512Y-86355034D01*
X160315668Y-86359541D01*
X160315669Y-86359543D01*
X160366240Y-86431765D01*
X160440023Y-86537139D01*
X160597219Y-86694335D01*
X160601727Y-86697492D01*
X160601730Y-86697494D01*
X160673139Y-86747495D01*
X160779323Y-86821846D01*
X160784305Y-86824169D01*
X160784310Y-86824172D01*
X160889373Y-86873163D01*
X160942658Y-86920080D01*
X160962119Y-86988357D01*
X160941577Y-87056317D01*
X160889373Y-87101553D01*
X160784311Y-87150544D01*
X160784306Y-87150547D01*
X160779324Y-87152870D01*
X160774817Y-87156026D01*
X160774815Y-87156027D01*
X160601730Y-87277222D01*
X160601727Y-87277224D01*
X160597219Y-87280381D01*
X160440023Y-87437577D01*
X160436866Y-87442085D01*
X160436864Y-87442088D01*
X160315669Y-87615173D01*
X160312512Y-87619682D01*
X160310189Y-87624664D01*
X160310186Y-87624669D01*
X160251637Y-87750228D01*
X160218560Y-87821162D01*
X160217138Y-87826470D01*
X160217137Y-87826472D01*
X160215346Y-87833157D01*
X160161022Y-88035895D01*
X160141647Y-88257358D01*
X160161022Y-88478821D01*
X160218560Y-88693554D01*
X160220882Y-88698535D01*
X160220883Y-88698536D01*
X160310186Y-88890047D01*
X160310189Y-88890052D01*
X160312512Y-88895034D01*
X160440023Y-89077139D01*
X160597219Y-89234335D01*
X160601727Y-89237492D01*
X160601730Y-89237494D01*
X160673139Y-89287495D01*
X160779323Y-89361846D01*
X160784305Y-89364169D01*
X160784310Y-89364172D01*
X160889373Y-89413163D01*
X160942658Y-89460080D01*
X160962119Y-89528357D01*
X160941577Y-89596317D01*
X160889373Y-89641553D01*
X160784311Y-89690544D01*
X160784306Y-89690547D01*
X160779324Y-89692870D01*
X160774817Y-89696026D01*
X160774815Y-89696027D01*
X160601730Y-89817222D01*
X160601727Y-89817224D01*
X160597219Y-89820381D01*
X160440023Y-89977577D01*
X160436866Y-89982085D01*
X160436864Y-89982088D01*
X160426460Y-89996947D01*
X160312512Y-90159682D01*
X160310189Y-90164664D01*
X160310186Y-90164669D01*
X160232174Y-90331967D01*
X160218560Y-90361162D01*
X160161022Y-90575895D01*
X160141647Y-90797358D01*
X160161022Y-91018821D01*
X160181936Y-91096872D01*
X160212982Y-91212735D01*
X160218560Y-91233554D01*
X160220882Y-91238535D01*
X160220883Y-91238536D01*
X160310186Y-91430047D01*
X160310189Y-91430052D01*
X160312512Y-91435034D01*
X160315668Y-91439541D01*
X160315669Y-91439543D01*
X160434554Y-91609328D01*
X160440023Y-91617139D01*
X160597219Y-91774335D01*
X160601727Y-91777492D01*
X160601730Y-91777494D01*
X160652425Y-91812991D01*
X160779323Y-91901846D01*
X160784305Y-91904169D01*
X160784310Y-91904172D01*
X160889373Y-91953163D01*
X160942658Y-92000080D01*
X160962119Y-92068357D01*
X160941577Y-92136317D01*
X160889373Y-92181553D01*
X160784311Y-92230544D01*
X160784306Y-92230547D01*
X160779324Y-92232870D01*
X160774817Y-92236026D01*
X160774815Y-92236027D01*
X160601730Y-92357222D01*
X160601727Y-92357224D01*
X160597219Y-92360381D01*
X160440023Y-92517577D01*
X160436866Y-92522085D01*
X160436864Y-92522088D01*
X160324083Y-92683157D01*
X160312512Y-92699682D01*
X160310189Y-92704664D01*
X160310186Y-92704669D01*
X160285133Y-92758396D01*
X160218560Y-92901162D01*
X160161022Y-93115895D01*
X160141647Y-93337358D01*
X160161022Y-93558821D01*
X160218560Y-93773554D01*
X160220882Y-93778535D01*
X160220883Y-93778536D01*
X160310186Y-93970047D01*
X160310189Y-93970052D01*
X160312512Y-93975034D01*
X160440023Y-94157139D01*
X160597219Y-94314335D01*
X160601727Y-94317492D01*
X160601730Y-94317494D01*
X160673139Y-94367495D01*
X160779323Y-94441846D01*
X160784305Y-94444169D01*
X160784310Y-94444172D01*
X160889373Y-94493163D01*
X160942658Y-94540080D01*
X160962119Y-94608357D01*
X160941577Y-94676317D01*
X160889373Y-94721553D01*
X160784311Y-94770544D01*
X160784306Y-94770547D01*
X160779324Y-94772870D01*
X160774817Y-94776026D01*
X160774815Y-94776027D01*
X160601730Y-94897222D01*
X160601727Y-94897224D01*
X160597219Y-94900381D01*
X160440023Y-95057577D01*
X160312512Y-95239682D01*
X160310189Y-95244664D01*
X160310186Y-95244669D01*
X160220883Y-95436180D01*
X160218560Y-95441162D01*
X160161022Y-95655895D01*
X160141647Y-95877358D01*
X160161022Y-96098821D01*
X160218560Y-96313554D01*
X160220882Y-96318535D01*
X160220883Y-96318536D01*
X160310186Y-96510047D01*
X160310189Y-96510052D01*
X160312512Y-96515034D01*
X160440023Y-96697139D01*
X160597219Y-96854335D01*
X160601727Y-96857492D01*
X160601730Y-96857494D01*
X160673139Y-96907495D01*
X160779323Y-96981846D01*
X160784305Y-96984169D01*
X160784310Y-96984172D01*
X160889373Y-97033163D01*
X160942658Y-97080080D01*
X160962119Y-97148357D01*
X160941577Y-97216317D01*
X160889373Y-97261553D01*
X160784311Y-97310544D01*
X160784306Y-97310547D01*
X160779324Y-97312870D01*
X160774817Y-97316026D01*
X160774815Y-97316027D01*
X160601730Y-97437222D01*
X160601727Y-97437224D01*
X160597219Y-97440381D01*
X160440023Y-97597577D01*
X160312512Y-97779682D01*
X160310189Y-97784664D01*
X160310186Y-97784669D01*
X160220883Y-97976180D01*
X160218560Y-97981162D01*
X160161022Y-98195895D01*
X160141647Y-98417358D01*
X160161022Y-98638821D01*
X160218560Y-98853554D01*
X160220882Y-98858535D01*
X160220883Y-98858536D01*
X160310186Y-99050047D01*
X160310189Y-99050052D01*
X160312512Y-99055034D01*
X160315668Y-99059541D01*
X160315669Y-99059543D01*
X160434036Y-99228588D01*
X160440023Y-99237139D01*
X160597219Y-99394335D01*
X160601727Y-99397492D01*
X160601730Y-99397494D01*
X160673139Y-99447495D01*
X160779323Y-99521846D01*
X160784305Y-99524169D01*
X160784310Y-99524172D01*
X160889373Y-99573163D01*
X160942658Y-99620080D01*
X160962119Y-99688357D01*
X160941577Y-99756317D01*
X160889373Y-99801553D01*
X160784311Y-99850544D01*
X160784306Y-99850547D01*
X160779324Y-99852870D01*
X160774817Y-99856026D01*
X160774815Y-99856027D01*
X160601730Y-99977222D01*
X160601727Y-99977224D01*
X160597219Y-99980381D01*
X160440023Y-100137577D01*
X160436866Y-100142085D01*
X160436864Y-100142088D01*
X160327995Y-100297570D01*
X160312512Y-100319682D01*
X160310189Y-100324664D01*
X160310186Y-100324669D01*
X160233961Y-100488135D01*
X160218560Y-100521162D01*
X160217138Y-100526470D01*
X160217137Y-100526472D01*
X160205007Y-100571742D01*
X160161022Y-100735895D01*
X160141647Y-100957358D01*
X160161022Y-101178821D01*
X160218560Y-101393554D01*
X160220882Y-101398535D01*
X160220883Y-101398536D01*
X160310186Y-101590047D01*
X160310189Y-101590052D01*
X160312512Y-101595034D01*
X160440023Y-101777139D01*
X160597219Y-101934335D01*
X160601727Y-101937492D01*
X160601730Y-101937494D01*
X160673139Y-101987495D01*
X160779323Y-102061846D01*
X160784305Y-102064169D01*
X160784310Y-102064172D01*
X160889373Y-102113163D01*
X160942658Y-102160080D01*
X160962119Y-102228357D01*
X160941577Y-102296317D01*
X160889373Y-102341553D01*
X160784311Y-102390544D01*
X160784306Y-102390547D01*
X160779324Y-102392870D01*
X160774817Y-102396026D01*
X160774815Y-102396027D01*
X160601730Y-102517222D01*
X160601727Y-102517224D01*
X160597219Y-102520381D01*
X160440023Y-102677577D01*
X160312512Y-102859682D01*
X160310189Y-102864664D01*
X160310186Y-102864669D01*
X160220883Y-103056180D01*
X160218560Y-103061162D01*
X160161022Y-103275895D01*
X160141647Y-103497358D01*
X160161022Y-103718821D01*
X160218560Y-103933554D01*
X160220882Y-103938535D01*
X160220883Y-103938536D01*
X160310186Y-104130047D01*
X160310189Y-104130052D01*
X160312512Y-104135034D01*
X160440023Y-104317139D01*
X160597219Y-104474335D01*
X160601727Y-104477492D01*
X160601730Y-104477494D01*
X160644259Y-104507273D01*
X160779323Y-104601846D01*
X160784305Y-104604169D01*
X160784310Y-104604172D01*
X160889373Y-104653163D01*
X160942658Y-104700080D01*
X160962119Y-104768357D01*
X160941577Y-104836317D01*
X160889373Y-104881553D01*
X160784311Y-104930544D01*
X160784306Y-104930547D01*
X160779324Y-104932870D01*
X160774817Y-104936026D01*
X160774815Y-104936027D01*
X160601730Y-105057222D01*
X160601727Y-105057224D01*
X160597219Y-105060381D01*
X160440023Y-105217577D01*
X160436866Y-105222085D01*
X160436864Y-105222088D01*
X160430671Y-105230933D01*
X160312512Y-105399682D01*
X160310189Y-105404664D01*
X160310186Y-105404669D01*
X160305532Y-105414650D01*
X160218560Y-105601162D01*
X160161022Y-105815895D01*
X160141647Y-106037358D01*
X160161022Y-106258821D01*
X160218560Y-106473554D01*
X160220882Y-106478535D01*
X160220883Y-106478536D01*
X160310186Y-106670047D01*
X160310189Y-106670052D01*
X160312512Y-106675034D01*
X160440023Y-106857139D01*
X160597219Y-107014335D01*
X160601727Y-107017492D01*
X160601730Y-107017494D01*
X160673139Y-107067495D01*
X160779323Y-107141846D01*
X160784305Y-107144169D01*
X160784310Y-107144172D01*
X160889373Y-107193163D01*
X160942658Y-107240080D01*
X160962119Y-107308357D01*
X160941577Y-107376317D01*
X160889373Y-107421553D01*
X160784311Y-107470544D01*
X160784306Y-107470547D01*
X160779324Y-107472870D01*
X160774817Y-107476026D01*
X160774815Y-107476027D01*
X160601730Y-107597222D01*
X160601727Y-107597224D01*
X160597219Y-107600381D01*
X160440023Y-107757577D01*
X160436866Y-107762085D01*
X160436864Y-107762088D01*
X160347209Y-107890129D01*
X160291752Y-107934457D01*
X160243996Y-107943858D01*
X159933240Y-107943858D01*
X159865119Y-107923856D01*
X159844145Y-107906953D01*
X158801816Y-106864623D01*
X157735393Y-105798200D01*
X157722607Y-105783242D01*
X157722126Y-105782581D01*
X157715564Y-105772598D01*
X157693053Y-105734535D01*
X157678732Y-105720214D01*
X157665891Y-105705180D01*
X157658643Y-105695204D01*
X157653983Y-105688790D01*
X157619912Y-105660604D01*
X157611133Y-105652615D01*
X157404802Y-105446284D01*
X157370776Y-105383972D01*
X157368587Y-105370360D01*
X157353933Y-105230933D01*
X157353932Y-105230930D01*
X157353243Y-105224371D01*
X157294228Y-105042743D01*
X157290141Y-105035663D01*
X157257015Y-104978289D01*
X157198741Y-104877355D01*
X157124977Y-104795431D01*
X157075376Y-104740344D01*
X157075375Y-104740343D01*
X157070954Y-104735433D01*
X156949856Y-104647450D01*
X156921795Y-104627062D01*
X156921794Y-104627061D01*
X156916453Y-104623181D01*
X156910425Y-104620497D01*
X156910423Y-104620496D01*
X156748020Y-104548190D01*
X156748019Y-104548190D01*
X156741989Y-104545505D01*
X156648589Y-104525652D01*
X156561645Y-104507171D01*
X156561640Y-104507171D01*
X156555188Y-104505799D01*
X156364214Y-104505799D01*
X156357762Y-104507171D01*
X156357757Y-104507171D01*
X156270813Y-104525652D01*
X156177413Y-104545505D01*
X156004748Y-104622380D01*
X155934382Y-104631814D01*
X155870085Y-104601708D01*
X155832271Y-104541619D01*
X155827500Y-104507273D01*
X155827500Y-78310768D01*
X155828027Y-78299585D01*
X155829702Y-78292092D01*
X155829305Y-78279443D01*
X155827562Y-78224002D01*
X155827500Y-78220044D01*
X155827500Y-78192144D01*
X155826996Y-78188153D01*
X155826063Y-78176311D01*
X155824923Y-78140036D01*
X155824674Y-78132111D01*
X155819021Y-78112652D01*
X155815012Y-78093293D01*
X155814834Y-78091883D01*
X155812474Y-78073203D01*
X155809558Y-78065837D01*
X155809556Y-78065831D01*
X155796200Y-78032098D01*
X155792355Y-78020868D01*
X155782230Y-77986017D01*
X155782230Y-77986016D01*
X155780019Y-77978407D01*
X155769705Y-77960966D01*
X155761008Y-77943213D01*
X155756472Y-77931758D01*
X155753552Y-77924383D01*
X155727563Y-77888612D01*
X155721047Y-77878692D01*
X155714844Y-77868203D01*
X155698542Y-77840638D01*
X155684221Y-77826317D01*
X155671380Y-77811283D01*
X155664131Y-77801306D01*
X155659472Y-77794893D01*
X155625395Y-77766702D01*
X155616616Y-77758712D01*
X154403154Y-76545249D01*
X154395614Y-76536963D01*
X154391502Y-76530484D01*
X154341850Y-76483858D01*
X154339009Y-76481104D01*
X154319272Y-76461367D01*
X154316075Y-76458887D01*
X154307053Y-76451182D01*
X154280602Y-76426343D01*
X154274823Y-76420916D01*
X154267877Y-76417097D01*
X154267874Y-76417095D01*
X154257068Y-76411154D01*
X154240549Y-76400303D01*
X154240085Y-76399943D01*
X154224543Y-76387888D01*
X154217274Y-76384743D01*
X154217270Y-76384740D01*
X154183965Y-76370328D01*
X154173315Y-76365111D01*
X154134562Y-76343807D01*
X154114939Y-76338769D01*
X154096236Y-76332365D01*
X154084922Y-76327469D01*
X154084921Y-76327469D01*
X154077647Y-76324321D01*
X154069824Y-76323082D01*
X154069814Y-76323079D01*
X154033978Y-76317403D01*
X154022358Y-76314997D01*
X153987213Y-76305974D01*
X153987212Y-76305974D01*
X153979532Y-76304002D01*
X153959278Y-76304002D01*
X153939567Y-76302451D01*
X153927388Y-76300522D01*
X153919559Y-76299282D01*
X153911667Y-76300028D01*
X153875541Y-76303443D01*
X153863683Y-76304002D01*
X134569155Y-76304002D01*
X134540673Y-76299949D01*
X134540353Y-76299810D01*
X134532525Y-76298570D01*
X134532518Y-76298568D01*
X134496684Y-76292892D01*
X134485064Y-76290486D01*
X134449919Y-76281463D01*
X134449918Y-76281463D01*
X134442238Y-76279491D01*
X134421984Y-76279491D01*
X134402273Y-76277940D01*
X134401819Y-76277868D01*
X134382265Y-76274771D01*
X134374373Y-76275517D01*
X134357849Y-76277079D01*
X134346906Y-76277079D01*
X134346913Y-76277289D01*
X134278836Y-76279429D01*
X134274877Y-76279491D01*
X134246966Y-76279491D01*
X134243032Y-76279988D01*
X134243031Y-76279988D01*
X134242966Y-76279996D01*
X134231129Y-76280929D01*
X134199312Y-76281929D01*
X134194851Y-76282069D01*
X134186932Y-76282318D01*
X134169276Y-76287447D01*
X134167480Y-76287969D01*
X134148128Y-76291977D01*
X134141057Y-76292871D01*
X134128025Y-76294517D01*
X134120656Y-76297434D01*
X134120654Y-76297435D01*
X134086919Y-76310791D01*
X134075691Y-76314636D01*
X134033229Y-76326973D01*
X134026407Y-76331007D01*
X134026401Y-76331010D01*
X134015790Y-76337285D01*
X133998040Y-76345981D01*
X133986578Y-76350519D01*
X133986573Y-76350522D01*
X133979205Y-76353439D01*
X133972790Y-76358100D01*
X133943447Y-76379418D01*
X133933529Y-76385934D01*
X133914841Y-76396986D01*
X133895459Y-76408449D01*
X133881135Y-76422773D01*
X133866103Y-76435612D01*
X133849715Y-76447519D01*
X133828335Y-76473363D01*
X133821534Y-76481584D01*
X133813544Y-76490364D01*
X133436322Y-76867586D01*
X133374010Y-76901612D01*
X133347227Y-76904491D01*
X133291335Y-76904491D01*
X133284883Y-76905863D01*
X133284878Y-76905863D01*
X133197935Y-76924344D01*
X133104534Y-76944197D01*
X133098504Y-76946882D01*
X133098503Y-76946882D01*
X132936100Y-77019188D01*
X132936098Y-77019189D01*
X132930070Y-77021873D01*
X132775569Y-77134125D01*
X132771148Y-77139035D01*
X132771147Y-77139036D01*
X132709795Y-77207175D01*
X132647782Y-77276047D01*
X132552295Y-77441435D01*
X132493280Y-77623063D01*
X132492590Y-77629624D01*
X132492590Y-77629626D01*
X132484124Y-77710173D01*
X132473318Y-77812991D01*
X132470310Y-77812675D01*
X132454006Y-77868203D01*
X132400350Y-77914696D01*
X132330076Y-77924800D01*
X132265496Y-77895306D01*
X132258913Y-77889177D01*
X129105822Y-74736086D01*
X129071796Y-74673774D01*
X129076861Y-74602959D01*
X129119408Y-74546123D01*
X129185928Y-74521312D01*
X129194917Y-74520991D01*
X160352419Y-74520991D01*
X160420540Y-74540993D01*
G37*
%TD.AperFunction*%
%TA.AperFunction,Conductor*%
G36*
X128340349Y-75766493D02*
G01*
X128361323Y-75783396D01*
X128542323Y-75964396D01*
X128576349Y-76026708D01*
X128571284Y-76097523D01*
X128528737Y-76154359D01*
X128462217Y-76179170D01*
X128453228Y-76179491D01*
X120949590Y-76179491D01*
X120938407Y-76178964D01*
X120930914Y-76177289D01*
X120922988Y-76177538D01*
X120922987Y-76177538D01*
X120862824Y-76179429D01*
X120858866Y-76179491D01*
X120830966Y-76179491D01*
X120830966Y-76178809D01*
X120764940Y-76163856D01*
X120715167Y-76113228D01*
X120700667Y-76043728D01*
X120704558Y-76021176D01*
X120741376Y-75883767D01*
X120742800Y-75878454D01*
X120744282Y-75861511D01*
X120770144Y-75795394D01*
X120827646Y-75753753D01*
X120869803Y-75746491D01*
X128272228Y-75746491D01*
X128340349Y-75766493D01*
G37*
%TD.AperFunction*%
%TD*%
M02*
