%TF.GenerationSoftware,KiCad,Pcbnew,(6.0.2)*%
%TF.CreationDate,2022-08-25T15:18:49+08:00*%
%TF.ProjectId,ESP32S3_LCD_Card,45535033-3253-4335-9f4c-43445f436172,rev?*%
%TF.SameCoordinates,Original*%
%TF.FileFunction,Legend,Bot*%
%TF.FilePolarity,Positive*%
%FSLAX46Y46*%
G04 Gerber Fmt 4.6, Leading zero omitted, Abs format (unit mm)*
G04 Created by KiCad (PCBNEW (6.0.2)) date 2022-08-25 15:18:49*
%MOMM*%
%LPD*%
G01*
G04 APERTURE LIST*
%ADD10C,0.125000*%
%ADD11C,0.254000*%
G04 APERTURE END LIST*
D10*
%TO.C,C5*%
X135018678Y-127432571D02*
X135042488Y-127456380D01*
X135113916Y-127480190D01*
X135161535Y-127480190D01*
X135232964Y-127456380D01*
X135280583Y-127408761D01*
X135304392Y-127361142D01*
X135328202Y-127265904D01*
X135328202Y-127194476D01*
X135304392Y-127099238D01*
X135280583Y-127051619D01*
X135232964Y-127004000D01*
X135161535Y-126980190D01*
X135113916Y-126980190D01*
X135042488Y-127004000D01*
X135018678Y-127027809D01*
X134566297Y-126980190D02*
X134804392Y-126980190D01*
X134828202Y-127218285D01*
X134804392Y-127194476D01*
X134756773Y-127170666D01*
X134637726Y-127170666D01*
X134590107Y-127194476D01*
X134566297Y-127218285D01*
X134542488Y-127265904D01*
X134542488Y-127384952D01*
X134566297Y-127432571D01*
X134590107Y-127456380D01*
X134637726Y-127480190D01*
X134756773Y-127480190D01*
X134804392Y-127456380D01*
X134828202Y-127432571D01*
%TO.C,GC9A1*%
X141654250Y-89920000D02*
X141701869Y-89896190D01*
X141773297Y-89896190D01*
X141844726Y-89920000D01*
X141892345Y-89967619D01*
X141916154Y-90015238D01*
X141939964Y-90110476D01*
X141939964Y-90181904D01*
X141916154Y-90277142D01*
X141892345Y-90324761D01*
X141844726Y-90372380D01*
X141773297Y-90396190D01*
X141725678Y-90396190D01*
X141654250Y-90372380D01*
X141630440Y-90348571D01*
X141630440Y-90181904D01*
X141725678Y-90181904D01*
X141130440Y-90348571D02*
X141154250Y-90372380D01*
X141225678Y-90396190D01*
X141273297Y-90396190D01*
X141344726Y-90372380D01*
X141392345Y-90324761D01*
X141416154Y-90277142D01*
X141439964Y-90181904D01*
X141439964Y-90110476D01*
X141416154Y-90015238D01*
X141392345Y-89967619D01*
X141344726Y-89920000D01*
X141273297Y-89896190D01*
X141225678Y-89896190D01*
X141154250Y-89920000D01*
X141130440Y-89943809D01*
X140892345Y-90396190D02*
X140797107Y-90396190D01*
X140749488Y-90372380D01*
X140725678Y-90348571D01*
X140678059Y-90277142D01*
X140654250Y-90181904D01*
X140654250Y-89991428D01*
X140678059Y-89943809D01*
X140701869Y-89920000D01*
X140749488Y-89896190D01*
X140844726Y-89896190D01*
X140892345Y-89920000D01*
X140916154Y-89943809D01*
X140939964Y-89991428D01*
X140939964Y-90110476D01*
X140916154Y-90158095D01*
X140892345Y-90181904D01*
X140844726Y-90205714D01*
X140749488Y-90205714D01*
X140701869Y-90181904D01*
X140678059Y-90158095D01*
X140654250Y-90110476D01*
X140463773Y-90253333D02*
X140225678Y-90253333D01*
X140511392Y-90396190D02*
X140344726Y-89896190D01*
X140178059Y-90396190D01*
X139749488Y-90396190D02*
X140035202Y-90396190D01*
X139892345Y-90396190D02*
X139892345Y-89896190D01*
X139939964Y-89967619D01*
X139987583Y-90015238D01*
X140035202Y-90039047D01*
%TO.C,C7*%
X144166988Y-127391562D02*
X144190797Y-127415371D01*
X144262226Y-127439181D01*
X144309845Y-127439181D01*
X144381273Y-127415371D01*
X144428892Y-127367752D01*
X144452702Y-127320133D01*
X144476511Y-127224895D01*
X144476511Y-127153467D01*
X144452702Y-127058229D01*
X144428892Y-127010610D01*
X144381273Y-126962991D01*
X144309845Y-126939181D01*
X144262226Y-126939181D01*
X144190797Y-126962991D01*
X144166988Y-126986800D01*
X144000321Y-126939181D02*
X143666988Y-126939181D01*
X143881273Y-127439181D01*
%TO.C,C11*%
X161612347Y-141040786D02*
X161636156Y-141064595D01*
X161707585Y-141088405D01*
X161755204Y-141088405D01*
X161826632Y-141064595D01*
X161874251Y-141016976D01*
X161898061Y-140969357D01*
X161921870Y-140874119D01*
X161921870Y-140802691D01*
X161898061Y-140707453D01*
X161874251Y-140659834D01*
X161826632Y-140612215D01*
X161755204Y-140588405D01*
X161707585Y-140588405D01*
X161636156Y-140612215D01*
X161612347Y-140636024D01*
X161136156Y-141088405D02*
X161421870Y-141088405D01*
X161279013Y-141088405D02*
X161279013Y-140588405D01*
X161326632Y-140659834D01*
X161374251Y-140707453D01*
X161421870Y-140731262D01*
X160659966Y-141088405D02*
X160945680Y-141088405D01*
X160802823Y-141088405D02*
X160802823Y-140588405D01*
X160850442Y-140659834D01*
X160898061Y-140707453D01*
X160945680Y-140731262D01*
%TO.C,BOOT*%
X122823035Y-137029150D02*
X122751607Y-137052960D01*
X122727797Y-137076769D01*
X122703988Y-137124388D01*
X122703988Y-137195817D01*
X122727797Y-137243436D01*
X122751607Y-137267245D01*
X122799226Y-137291055D01*
X122989702Y-137291055D01*
X122989702Y-136791055D01*
X122823035Y-136791055D01*
X122775416Y-136814865D01*
X122751607Y-136838674D01*
X122727797Y-136886293D01*
X122727797Y-136933912D01*
X122751607Y-136981531D01*
X122775416Y-137005341D01*
X122823035Y-137029150D01*
X122989702Y-137029150D01*
X122394464Y-136791055D02*
X122299226Y-136791055D01*
X122251607Y-136814865D01*
X122203988Y-136862484D01*
X122180178Y-136957722D01*
X122180178Y-137124388D01*
X122203988Y-137219626D01*
X122251607Y-137267245D01*
X122299226Y-137291055D01*
X122394464Y-137291055D01*
X122442083Y-137267245D01*
X122489702Y-137219626D01*
X122513511Y-137124388D01*
X122513511Y-136957722D01*
X122489702Y-136862484D01*
X122442083Y-136814865D01*
X122394464Y-136791055D01*
X121870654Y-136791055D02*
X121775416Y-136791055D01*
X121727797Y-136814865D01*
X121680178Y-136862484D01*
X121656369Y-136957722D01*
X121656369Y-137124388D01*
X121680178Y-137219626D01*
X121727797Y-137267245D01*
X121775416Y-137291055D01*
X121870654Y-137291055D01*
X121918273Y-137267245D01*
X121965892Y-137219626D01*
X121989702Y-137124388D01*
X121989702Y-136957722D01*
X121965892Y-136862484D01*
X121918273Y-136814865D01*
X121870654Y-136791055D01*
X121513511Y-136791055D02*
X121227797Y-136791055D01*
X121370654Y-137291055D02*
X121370654Y-136791055D01*
%TO.C,RES*%
X158563446Y-137601768D02*
X158730112Y-137363673D01*
X158849160Y-137601768D02*
X158849160Y-137101768D01*
X158658684Y-137101768D01*
X158611065Y-137125578D01*
X158587255Y-137149387D01*
X158563446Y-137197006D01*
X158563446Y-137268435D01*
X158587255Y-137316054D01*
X158611065Y-137339863D01*
X158658684Y-137363673D01*
X158849160Y-137363673D01*
X158349160Y-137339863D02*
X158182493Y-137339863D01*
X158111065Y-137601768D02*
X158349160Y-137601768D01*
X158349160Y-137101768D01*
X158111065Y-137101768D01*
X157920588Y-137577958D02*
X157849160Y-137601768D01*
X157730112Y-137601768D01*
X157682493Y-137577958D01*
X157658684Y-137554149D01*
X157634874Y-137506530D01*
X157634874Y-137458911D01*
X157658684Y-137411292D01*
X157682493Y-137387482D01*
X157730112Y-137363673D01*
X157825350Y-137339863D01*
X157872969Y-137316054D01*
X157896779Y-137292244D01*
X157920588Y-137244625D01*
X157920588Y-137197006D01*
X157896779Y-137149387D01*
X157872969Y-137125578D01*
X157825350Y-137101768D01*
X157706303Y-137101768D01*
X157634874Y-137125578D01*
%TO.C,C10*%
X119550774Y-140730069D02*
X119574583Y-140753878D01*
X119646012Y-140777688D01*
X119693631Y-140777688D01*
X119765059Y-140753878D01*
X119812678Y-140706259D01*
X119836488Y-140658640D01*
X119860297Y-140563402D01*
X119860297Y-140491974D01*
X119836488Y-140396736D01*
X119812678Y-140349117D01*
X119765059Y-140301498D01*
X119693631Y-140277688D01*
X119646012Y-140277688D01*
X119574583Y-140301498D01*
X119550774Y-140325307D01*
X119074583Y-140777688D02*
X119360297Y-140777688D01*
X119217440Y-140777688D02*
X119217440Y-140277688D01*
X119265059Y-140349117D01*
X119312678Y-140396736D01*
X119360297Y-140420545D01*
X118765059Y-140277688D02*
X118717440Y-140277688D01*
X118669821Y-140301498D01*
X118646012Y-140325307D01*
X118622202Y-140372926D01*
X118598393Y-140468164D01*
X118598393Y-140587212D01*
X118622202Y-140682450D01*
X118646012Y-140730069D01*
X118669821Y-140753878D01*
X118717440Y-140777688D01*
X118765059Y-140777688D01*
X118812678Y-140753878D01*
X118836488Y-140730069D01*
X118860297Y-140682450D01*
X118884107Y-140587212D01*
X118884107Y-140468164D01*
X118860297Y-140372926D01*
X118836488Y-140325307D01*
X118812678Y-140301498D01*
X118765059Y-140277688D01*
%TO.C,KEY2*%
X145217336Y-133719593D02*
X145217336Y-133219593D01*
X144931621Y-133719593D02*
X145145907Y-133433879D01*
X144931621Y-133219593D02*
X145217336Y-133505307D01*
X144717336Y-133457688D02*
X144550669Y-133457688D01*
X144479241Y-133719593D02*
X144717336Y-133719593D01*
X144717336Y-133219593D01*
X144479241Y-133219593D01*
X144169717Y-133481498D02*
X144169717Y-133719593D01*
X144336383Y-133219593D02*
X144169717Y-133481498D01*
X144003050Y-133219593D01*
X143860193Y-133267212D02*
X143836383Y-133243403D01*
X143788764Y-133219593D01*
X143669717Y-133219593D01*
X143622098Y-133243403D01*
X143598288Y-133267212D01*
X143574479Y-133314831D01*
X143574479Y-133362450D01*
X143598288Y-133433879D01*
X143884002Y-133719593D01*
X143574479Y-133719593D01*
%TO.C,KEY1*%
X135478344Y-133644611D02*
X135478344Y-133144611D01*
X135192630Y-133644611D02*
X135406915Y-133358897D01*
X135192630Y-133144611D02*
X135478344Y-133430325D01*
X134978344Y-133382706D02*
X134811677Y-133382706D01*
X134740249Y-133644611D02*
X134978344Y-133644611D01*
X134978344Y-133144611D01*
X134740249Y-133144611D01*
X134430725Y-133406516D02*
X134430725Y-133644611D01*
X134597392Y-133144611D02*
X134430725Y-133406516D01*
X134264058Y-133144611D01*
X133835487Y-133644611D02*
X134121201Y-133644611D01*
X133978344Y-133644611D02*
X133978344Y-133144611D01*
X134025963Y-133216040D01*
X134073582Y-133263659D01*
X134121201Y-133287468D01*
D11*
%TO.C,C5*%
X133422582Y-128051669D02*
X133422582Y-128851669D01*
X134532582Y-127741669D02*
X133732582Y-127741669D01*
X136217582Y-128045669D02*
X136217582Y-128845669D01*
X134532582Y-129161669D02*
X133732582Y-129161669D01*
X135108582Y-129155669D02*
X135908582Y-129155669D01*
X135108582Y-127736669D02*
X135908582Y-127736669D01*
X135908557Y-129155669D02*
G75*
G03*
X136218582Y-128845669I25J310000D01*
G01*
X136217582Y-128045669D02*
G75*
G03*
X135908582Y-127736669I-309000J0D01*
G01*
X133422582Y-128851669D02*
G75*
G03*
X133732582Y-129161669I310000J0D01*
G01*
X133732607Y-127741669D02*
G75*
G03*
X133422582Y-128051669I-25J-310000D01*
G01*
%TO.C,GC9A1*%
X134486822Y-125146447D02*
X135914822Y-125154447D01*
X146986822Y-124646447D02*
X133986822Y-124646447D01*
X137565822Y-125154447D02*
X137567822Y-124646447D01*
X133986822Y-124646447D02*
X132426822Y-121467447D01*
X144986822Y-125146447D02*
X137565822Y-125154447D01*
X144986822Y-124646447D02*
X144986822Y-125146447D01*
X134486822Y-124646447D02*
X134486822Y-125146447D01*
X135914822Y-125154447D02*
X135914822Y-124646447D01*
X146986822Y-124646447D02*
X148553822Y-121463447D01*
X148598822Y-121440447D02*
G75*
G03*
X132424299Y-121465681I-8112000J15844000D01*
G01*
X156686822Y-105596447D02*
G75*
G03*
X156686822Y-105596447I-16200000J0D01*
G01*
%TO.C,C7*%
X145591822Y-128056991D02*
X145591822Y-128856991D01*
X144482822Y-129166991D02*
X145282822Y-129166991D01*
X144482822Y-127747991D02*
X145282822Y-127747991D01*
X143906822Y-129172991D02*
X143106822Y-129172991D01*
X143906822Y-127752991D02*
X143106822Y-127752991D01*
X142796822Y-128062991D02*
X142796822Y-128862991D01*
X142796822Y-128862991D02*
G75*
G03*
X143106822Y-129172991I310000J0D01*
G01*
X145591822Y-128056991D02*
G75*
G03*
X145282822Y-127747991I-309000J0D01*
G01*
X145282797Y-129166991D02*
G75*
G03*
X145592822Y-128856991I25J310000D01*
G01*
X143106847Y-127752991D02*
G75*
G03*
X142796822Y-128062991I-25J-310000D01*
G01*
%TO.C,C11*%
X160521822Y-138527435D02*
X160521822Y-137727435D01*
X161946822Y-139103435D02*
X161946822Y-139903435D01*
X160836822Y-140213435D02*
X161636822Y-140213435D01*
X161940822Y-138527435D02*
X161940822Y-137727435D01*
X160830822Y-137418435D02*
X161630822Y-137418435D01*
X160526822Y-139103435D02*
X160526822Y-139903435D01*
X161940822Y-137727460D02*
G75*
G03*
X161630822Y-137417435I-310000J25D01*
G01*
X160526822Y-139903410D02*
G75*
G03*
X160836822Y-140213435I310000J-25D01*
G01*
X161636822Y-140213435D02*
G75*
G03*
X161946822Y-139903435I0J310000D01*
G01*
X160830822Y-137418435D02*
G75*
G03*
X160521822Y-137727435I0J-309000D01*
G01*
%TO.C,BOOT*%
X121692822Y-137812991D02*
X122780822Y-137812991D01*
X123252822Y-139504991D02*
X123252822Y-140520991D01*
X121692822Y-142212991D02*
X122780822Y-142212991D01*
X121220822Y-139504991D02*
X121220822Y-140520991D01*
X123786822Y-138631991D02*
X123786822Y-141393991D01*
X120712822Y-141378991D02*
X120712822Y-138646991D01*
X121220822Y-140520991D02*
G75*
G03*
X123252822Y-140520991I1016000J0D01*
G01*
X123252822Y-139504991D02*
G75*
G03*
X121220822Y-139504991I-1016000J0D01*
G01*
%TO.C,RES*%
X158780822Y-138062991D02*
X157692822Y-138062991D01*
X159760822Y-138896991D02*
X159760822Y-141628991D01*
X159252822Y-140770991D02*
X159252822Y-139754991D01*
X157220822Y-140770991D02*
X157220822Y-139754991D01*
X156686822Y-141643991D02*
X156686822Y-138881991D01*
X158780822Y-142462991D02*
X157692822Y-142462991D01*
X159252822Y-139754991D02*
G75*
G03*
X157220822Y-139754991I-1016000J0D01*
G01*
X157220822Y-140770991D02*
G75*
G03*
X159252822Y-140770991I1016000J0D01*
G01*
%TO.C,C10*%
X118576786Y-138888195D02*
X118576786Y-139688195D01*
X119990786Y-138312195D02*
X119990786Y-137512195D01*
X118571786Y-138312195D02*
X118571786Y-137512195D01*
X118880786Y-137203195D02*
X119680786Y-137203195D01*
X118886786Y-139998195D02*
X119686786Y-139998195D01*
X119996786Y-138888195D02*
X119996786Y-139688195D01*
X118880786Y-137203195D02*
G75*
G03*
X118571786Y-137512195I0J-309000D01*
G01*
X118576786Y-139688170D02*
G75*
G03*
X118886786Y-139998195I310000J-25D01*
G01*
X119990786Y-137512220D02*
G75*
G03*
X119680786Y-137202195I-310000J25D01*
G01*
X119686786Y-139998195D02*
G75*
G03*
X119996786Y-139688195I0J310000D01*
G01*
%TO.C,KEY2*%
X145552822Y-132736991D02*
X142820822Y-132736991D01*
X141986822Y-131756991D02*
X141986822Y-130668991D01*
X143678822Y-130196991D02*
X144694822Y-130196991D01*
X146386822Y-131756991D02*
X146386822Y-130668991D01*
X143678822Y-132228991D02*
X144694822Y-132228991D01*
X142805822Y-129662991D02*
X145567822Y-129662991D01*
X144694822Y-132228991D02*
G75*
G03*
X144694822Y-130196991I0J1016000D01*
G01*
X143678822Y-130196991D02*
G75*
G03*
X143678822Y-132228991I0J-1016000D01*
G01*
%TO.C,KEY1*%
X134278822Y-132178991D02*
X135294822Y-132178991D01*
X136986822Y-131706991D02*
X136986822Y-130618991D01*
X133405822Y-129612991D02*
X136167822Y-129612991D01*
X136152822Y-132686991D02*
X133420822Y-132686991D01*
X134278822Y-130146991D02*
X135294822Y-130146991D01*
X132586822Y-131706991D02*
X132586822Y-130618991D01*
X135294822Y-132178991D02*
G75*
G03*
X135294822Y-130146991I0J1016000D01*
G01*
X134278822Y-130146991D02*
G75*
G03*
X134278822Y-132178991I0J-1016000D01*
G01*
%TD*%
M02*
