M48
; DRILL file {KiCad (6.0.2)} date Thu Aug 25 15:18:45 2022
; FORMAT={-:-/ absolute / inch / decimal}
; #@! TF.CreationDate,2022-08-25T15:18:45+08:00
; #@! TF.GenerationSoftware,Kicad,Pcbnew,(6.0.2)
; #@! TF.FileFunction,Plated,1,2,PTH
FMAT,2
INCH
; #@! TA.AperFunction,Plated,PTH,ViaDrill
T1C0.0118
; #@! TA.AperFunction,Plated,PTH,ViaDrill
T2C0.0157
; #@! TA.AperFunction,Plated,PTH,ComponentDrill
T3C0.0276
; #@! TA.AperFunction,Plated,PTH,ComponentDrill
T4C0.0350
; #@! TA.AperFunction,Plated,PTH,ComponentDrill
T5C0.0360
%
G90
G05
T1
X6.152Y-4.242
X6.1598Y-4.1502
X6.16Y-4.19
T2
X4.6806Y-4.8627
X4.6806Y-4.8981
X4.6806Y-4.9336
X4.6806Y-4.969
X4.6806Y-5.2446
X4.6806Y-5.28
X4.6806Y-5.3155
X4.716Y-4.8627
X4.716Y-4.8981
X4.716Y-4.9336
X4.716Y-4.969
X4.716Y-5.2446
X4.716Y-5.28
X4.716Y-5.3155
X4.7514Y-4.8627
X4.7514Y-4.8981
X4.7514Y-4.9336
X4.7514Y-4.969
X4.7646Y-2.995
X4.775Y-3.065
X4.775Y-3.1004
X4.775Y-3.1359
X4.8Y-2.995
X4.8223Y-3.1462
X4.8223Y-3.1816
X4.845Y-5.1546
X4.845Y-5.19
X4.8577Y-3.1462
X4.8577Y-3.1816
X4.8656Y-4.8509
X4.8656Y-4.8863
X4.8735Y-3.8627
X4.8735Y-3.8981
X4.8735Y-3.9336
X4.8735Y-4.5084
X4.8735Y-4.5438
X4.8735Y-4.5793
X4.8846Y-3.24
X4.9011Y-4.8509
X4.9011Y-4.8863
X4.9046Y-5.62
X4.9089Y-3.8627
X4.9089Y-3.8981
X4.9089Y-3.9336
X4.9089Y-4.5084
X4.9089Y-4.5438
X4.9089Y-4.5793
X4.92Y-3.24
X4.9291Y-2.99
X4.94Y-5.62
X4.9444Y-3.8627
X4.9444Y-3.8981
X4.9444Y-3.9336
X4.9444Y-4.5084
X4.9444Y-4.5438
X4.9444Y-4.5793
X4.9646Y-2.99
X4.9719Y-5.0399
X4.9719Y-5.0753
X4.9798Y-3.8627
X4.9798Y-3.8981
X4.9798Y-3.9336
X4.9798Y-4.5084
X4.9798Y-4.5438
X4.9798Y-4.5793
X4.9996Y-5.33
X5.0Y-2.99
X5.0074Y-5.0399
X5.0074Y-5.0753
X5.025Y-3.2365
X5.0346Y-5.465
X5.035Y-5.33
X5.0428Y-5.0399
X5.0428Y-5.0753
X5.06Y-3.2365
X5.0696Y-5.54
X5.07Y-5.465
X5.0979Y-3.5641
X5.105Y-5.54
X5.1176Y-3.6147
X5.1176Y-4.4808
X5.1176Y-4.5163
X5.1176Y-4.5517
X5.1176Y-5.2663
X5.125Y-3.685
X5.125Y-3.7204
X5.125Y-3.7559
X5.153Y-4.4808
X5.153Y-4.5163
X5.153Y-4.5517
X5.1766Y-5.2663
X5.1963Y-4.9218
X5.1963Y-4.9572
X5.1963Y-4.9926
X5.2003Y-4.2092
X5.2003Y-4.2446
X5.2003Y-4.28
X5.2046Y-5.54
X5.2318Y-4.9218
X5.2318Y-4.9572
X5.2318Y-4.9926
X5.2346Y-5.465
X5.2357Y-4.2092
X5.2357Y-4.2446
X5.2357Y-4.28
X5.24Y-5.54
X5.2514Y-3.0635
X5.2633Y-3.1659
X5.2672Y-3.1147
X5.27Y-5.465
X5.2711Y-3.5084
X5.2711Y-3.5438
X5.2711Y-3.5793
X5.2711Y-4.2092
X5.2711Y-4.2446
X5.2711Y-4.28
X5.279Y-3.4237
X5.2849Y-3.3627
X5.2946Y-5.32
X5.3026Y-2.9651
X5.3026Y-3.0005
X5.3066Y-3.5084
X5.3066Y-3.5438
X5.3066Y-3.5793
X5.3066Y-4.2092
X5.3066Y-4.2446
X5.3066Y-4.28
X5.3144Y-3.3017
X5.3203Y-3.2431
X5.3296Y-4.495
X5.3296Y-4.69
X5.33Y-5.32
X5.3381Y-2.9651
X5.3381Y-3.0005
X5.365Y-4.495
X5.365Y-4.69
X5.37Y-4.0946
X5.37Y-4.13
X5.3735Y-2.9651
X5.3735Y-3.0005
X5.4522Y-5.0753
X5.4522Y-5.1107
X5.4522Y-5.1462
X5.4522Y-5.217
X5.4522Y-5.2525
X5.4533Y-5.3896
X5.4533Y-5.5291
X5.468Y-3.9316
X5.4759Y-3.0596
X5.4759Y-3.095
X5.4759Y-3.1304
X5.4877Y-5.0753
X5.4877Y-5.1107
X5.4877Y-5.1462
X5.4877Y-5.217
X5.4877Y-5.2525
X5.4887Y-5.3896
X5.4887Y-5.425
X5.4887Y-5.4604
X5.4887Y-5.5291
X5.4887Y-5.5646
X5.4887Y-5.6
X5.5074Y-4.4592
X5.5113Y-3.0596
X5.5113Y-3.095
X5.5113Y-3.1304
X5.5231Y-5.217
X5.5231Y-5.2525
X5.5241Y-5.3896
X5.5241Y-5.5291
X5.53Y-3.8546
X5.53Y-3.89
X5.53Y-4.3346
X5.53Y-4.37
X5.5349Y-4.6659
X5.5349Y-4.7013
X5.5349Y-4.7367
X5.5467Y-3.0596
X5.5467Y-3.095
X5.5467Y-3.1304
X5.5596Y-5.3896
X5.5596Y-5.5291
X5.5664Y-4.4592
X5.5703Y-4.6659
X5.5703Y-4.7013
X5.5703Y-4.7367
X5.58Y-5.0346
X5.58Y-5.07
X5.5822Y-3.0596
X5.5822Y-3.095
X5.5822Y-3.1304
X5.595Y-5.3896
X5.595Y-5.425
X5.595Y-5.4604
X5.595Y-5.5291
X5.595Y-5.5646
X5.595Y-5.6
X5.6058Y-4.6659
X5.6058Y-4.7013
X5.6058Y-4.7367
X5.6097Y-4.4631
X5.6304Y-5.3896
X5.6304Y-5.5291
X5.6412Y-4.6659
X5.6412Y-4.7013
X5.6412Y-4.7367
X5.653Y-4.467
X5.6688Y-3.0596
X5.6688Y-3.095
X5.6688Y-3.2446
X5.6688Y-3.28
X5.6688Y-3.3155
X5.7003Y-4.4631
X5.7042Y-3.0596
X5.7042Y-3.095
X5.7042Y-3.2446
X5.7042Y-3.28
X5.7042Y-3.3155
X5.7146Y-4.505
X5.7396Y-3.0596
X5.7396Y-3.095
X5.7396Y-3.2033
X5.74Y-4.3391
X5.74Y-4.3746
X5.74Y-4.41
X5.7496Y-2.985
X5.7496Y-5.27
X5.75Y-4.505
X5.779Y-3.2033
X5.785Y-2.985
X5.785Y-5.27
X5.7948Y-4.4375
X5.7948Y-4.473
X5.7948Y-4.5084
X5.7948Y-4.5635
X5.7948Y-4.5989
X5.7948Y-4.6344
X5.7948Y-4.6856
X5.7948Y-4.721
X5.7948Y-4.7564
X5.8046Y-5.525
X5.83Y-3.8546
X5.83Y-3.89
X5.8302Y-4.4375
X5.8302Y-4.473
X5.8302Y-4.5084
X5.8302Y-4.5635
X5.8302Y-4.5989
X5.8302Y-4.6344
X5.8302Y-4.6856
X5.8302Y-4.721
X5.8302Y-4.7564
X5.84Y-5.525
X5.8459Y-5.1029
X5.8459Y-5.1383
X5.8656Y-4.4001
X5.8679Y-4.0455
X5.8679Y-4.2627
X5.8702Y-4.1308
X5.8814Y-5.1029
X5.8814Y-5.1383
X5.9034Y-4.0455
X5.9034Y-4.2627
X5.905Y-4.4001
X5.9056Y-4.1308
X5.9148Y-5.4434
X5.9168Y-5.1029
X5.9168Y-5.1383
X5.9404Y-3.217
X5.9446Y-5.27
X5.945Y-4.895
X5.945Y-4.9304
X5.9739Y-5.4434
X5.9746Y-5.315
X5.9759Y-3.0635
X5.98Y-5.27
X6.0096Y-5.525
X6.01Y-5.315
X6.0146Y-5.465
X6.02Y-3.6335
X6.045Y-5.525
X6.05Y-5.465
X6.06Y-4.36
X6.06Y-4.3954
X6.0696Y-5.26
X6.07Y-3.95
X6.0891Y-2.9446
X6.0891Y-2.98
X6.105Y-5.26
X6.11Y-4.97
X6.1246Y-2.9446
X6.1246Y-2.98
X6.16Y-2.9446
X6.16Y-2.98
X6.16Y-3.9846
X6.16Y-4.02
X6.1646Y-4.5183
X6.1646Y-4.5537
X6.1646Y-4.5891
X6.1646Y-4.6246
X6.1646Y-4.66
X6.1646Y-4.6954
X6.1646Y-4.7309
X6.1688Y-5.3037
X6.1691Y-3.1046
X6.1691Y-3.14
X6.1691Y-3.1754
X6.2Y-4.5183
X6.2Y-4.5537
X6.2Y-4.5891
X6.2Y-4.6246
X6.2Y-4.66
X6.2Y-4.6954
X6.2Y-4.7309
X6.2046Y-3.1046
X6.2046Y-3.14
X6.2046Y-3.1754
X6.2318Y-5.2919
X6.2318Y-5.3273
X6.2318Y-5.3627
X6.2354Y-4.5183
X6.2354Y-4.5537
X6.2354Y-4.5891
X6.2354Y-4.6246
X6.2354Y-4.66
X6.2354Y-4.6954
X6.2354Y-4.7309
X6.24Y-3.1046
X6.24Y-3.14
X6.24Y-3.1754
X6.2672Y-5.2919
X6.2672Y-5.3273
X6.2672Y-5.3627
X6.2696Y-5.225
X6.2709Y-4.66
X6.2709Y-4.6954
X6.2709Y-4.7309
X6.2754Y-3.1046
X6.2754Y-3.14
X6.2754Y-3.1754
X6.305Y-5.225
X6.3446Y-4.8491
X6.3446Y-4.8846
X6.3446Y-4.92
X6.3479Y-5.3745
X6.35Y-5.57
X6.35Y-5.6054
X6.38Y-4.8491
X6.38Y-4.8846
X6.38Y-4.92
T4
X4.9299Y-4.7938
X4.9306Y-4.6777
X5.0299Y-4.7938
X5.0306Y-4.6777
T5
X4.7042Y-2.9786
X4.7042Y-3.0786
X4.7042Y-3.1786
X4.7042Y-3.2786
X4.7042Y-3.3786
X4.7042Y-3.4786
X4.7042Y-3.5786
X4.7042Y-3.6786
X4.7042Y-3.7786
X4.7042Y-3.8786
X4.7042Y-3.9786
X4.7042Y-4.0786
X4.7042Y-4.1786
X4.7042Y-4.2786
X4.7042Y-4.3786
X4.7042Y-4.4786
X4.7042Y-4.5786
X4.8299Y-4.7938
X4.8306Y-4.6777
X6.355Y-2.9747
X6.355Y-3.0747
X6.355Y-3.1747
X6.355Y-3.2747
X6.355Y-3.3747
X6.355Y-3.4747
X6.355Y-3.5747
X6.355Y-3.6747
X6.355Y-3.7747
X6.355Y-3.8747
X6.355Y-3.9747
X6.355Y-4.0747
X6.355Y-4.1747
X6.355Y-4.2747
X6.355Y-4.3747
X6.355Y-4.4747
X6.355Y-4.5747
T3
G00X4.9967Y-5.3828
M15
G01X4.9967Y-5.4182
M16
G05
G00X4.9967Y-5.5502
M15
G01X4.9967Y-5.5777
M16
G05
G00X5.3369Y-5.3828
M15
G01X5.3369Y-5.4182
M16
G05
G00X5.3369Y-5.5502
M15
G01X5.3369Y-5.5777
M16
G05
G00X5.7546Y-5.3828
M15
G01X5.7546Y-5.4182
M16
G05
G00X5.7546Y-5.5502
M15
G01X5.7546Y-5.5777
M16
G05
G00X6.0948Y-5.3828
M15
G01X6.0948Y-5.4182
M16
G05
G00X6.0948Y-5.5502
M15
G01X6.0948Y-5.5777
M16
G05
T0
M30
