%TF.GenerationSoftware,KiCad,Pcbnew,(6.0.2)*%
%TF.CreationDate,2022-08-25T15:18:49+08:00*%
%TF.ProjectId,ESP32S3_LCD_Card,45535033-3253-4335-9f4c-43445f436172,rev?*%
%TF.SameCoordinates,Original*%
%TF.FileFunction,Soldermask,Top*%
%TF.FilePolarity,Negative*%
%FSLAX46Y46*%
G04 Gerber Fmt 4.6, Leading zero omitted, Abs format (unit mm)*
G04 Created by KiCad (PCBNEW (6.0.2)) date 2022-08-25 15:18:49*
%MOMM*%
%LPD*%
G01*
G04 APERTURE LIST*
%ADD10R,0.806000X0.864000*%
%ADD11R,0.900000X0.800000*%
%ADD12R,0.864000X0.806000*%
%ADD13R,1.470000X1.160000*%
%ADD14R,1.575000X1.575000*%
%ADD15C,1.575000*%
%ADD16R,0.600000X1.500000*%
%ADD17C,0.750000*%
%ADD18O,1.200000X2.000000*%
%ADD19O,1.200000X1.800000*%
%ADD20R,0.600000X1.150000*%
%ADD21R,0.300000X1.150000*%
%ADD22R,0.980000X2.470000*%
%ADD23R,3.600000X2.470000*%
%ADD24R,0.864000X0.800000*%
%ADD25R,0.800000X0.900000*%
%ADD26C,1.524000*%
%ADD27R,1.500000X0.900000*%
%ADD28R,0.900000X1.500000*%
%ADD29R,0.900000X0.900000*%
%ADD30R,1.000000X0.500000*%
%ADD31R,1.200000X0.950000*%
%ADD32R,0.700000X1.250000*%
%ADD33R,0.350000X2.000000*%
G04 APERTURE END LIST*
D10*
%TO.C,R10*%
X145723318Y-100266722D03*
X144217318Y-100266722D03*
%TD*%
D11*
%TO.C,C14*%
X146045633Y-130389967D03*
X146045633Y-128989967D03*
%TD*%
D12*
%TO.C,R5*%
X137336822Y-107209991D03*
X137336822Y-108715991D03*
%TD*%
D13*
%TO.C,D1*%
X133922155Y-131524930D03*
X133922155Y-133304930D03*
%TD*%
D14*
%TO.C,GND*%
X127776822Y-118812991D03*
D15*
X125236822Y-118812991D03*
X122696822Y-118812991D03*
%TD*%
D16*
%TO.C,CH340*%
X147986822Y-132262991D03*
X148986822Y-132262991D03*
X149986822Y-132262991D03*
X150986822Y-132262991D03*
X151986822Y-132262991D03*
X151986822Y-126762991D03*
X150986822Y-126762991D03*
X149986822Y-126762991D03*
X148986822Y-126762991D03*
X147986822Y-126762991D03*
%TD*%
D17*
%TO.C,USB*%
X134126822Y-137673991D03*
X128346822Y-137673991D03*
D18*
X126916822Y-137172991D03*
X135556822Y-137172991D03*
D19*
X126916822Y-141323991D03*
X135556822Y-141323991D03*
D20*
X128036822Y-136597991D03*
X128836822Y-136597991D03*
D21*
X129486822Y-136597991D03*
X129986822Y-136597991D03*
X130486822Y-136597991D03*
X130986822Y-136597991D03*
X131486822Y-136597991D03*
X131986822Y-136597991D03*
X132486822Y-136597991D03*
X132986822Y-136597991D03*
D20*
X133636822Y-136597991D03*
X134454822Y-136597991D03*
%TD*%
D22*
%TO.C,LDO*%
X124877588Y-131345127D03*
X127177588Y-131345127D03*
X129477588Y-131345127D03*
D23*
X127177588Y-125675127D03*
%TD*%
D24*
%TO.C,POW*%
X120986822Y-128112991D03*
X120986822Y-129512991D03*
%TD*%
D25*
%TO.C,C12*%
X127194728Y-134017676D03*
X128594728Y-134017676D03*
%TD*%
D12*
%TO.C,R13*%
X159434515Y-128951463D03*
X159434515Y-130457463D03*
%TD*%
D11*
%TO.C,C1*%
X124986822Y-79212991D03*
X124986822Y-77812991D03*
%TD*%
D17*
%TO.C,UART*%
X153376822Y-137673991D03*
X147596822Y-137673991D03*
D19*
X146166822Y-141323991D03*
D18*
X146166822Y-137172991D03*
X154806822Y-137172991D03*
D19*
X154806822Y-141323991D03*
D20*
X147286822Y-136597991D03*
X148086822Y-136597991D03*
D21*
X148736822Y-136597991D03*
X149236822Y-136597991D03*
X149736822Y-136597991D03*
X150236822Y-136597991D03*
X150736822Y-136597991D03*
X151236822Y-136597991D03*
X151736822Y-136597991D03*
X152236822Y-136597991D03*
D20*
X152886822Y-136597991D03*
X153704822Y-136597991D03*
%TD*%
D12*
%TO.C,R2*%
X139536822Y-101109991D03*
X139536822Y-102615991D03*
%TD*%
D25*
%TO.C,C4*%
X139036822Y-108762991D03*
X140436822Y-108762991D03*
%TD*%
D26*
%TO.C,H1*%
X119486822Y-116296991D03*
X119486822Y-113756991D03*
X119486822Y-111216991D03*
X119486822Y-108676991D03*
X119486822Y-106136991D03*
X119486822Y-103596991D03*
X119486822Y-101056991D03*
X119486822Y-98516991D03*
X119486822Y-95976991D03*
X119486822Y-93436991D03*
X119486822Y-90896991D03*
X119486822Y-88356991D03*
X119486822Y-85816991D03*
X119486822Y-83276991D03*
X119486822Y-80736991D03*
X119486822Y-78196991D03*
X119486822Y-75656991D03*
%TD*%
D14*
%TO.C,3V3*%
X127758593Y-121762991D03*
D15*
X125218593Y-121762991D03*
X122678593Y-121762991D03*
%TD*%
D11*
%TO.C,C9*%
X131772225Y-131333560D03*
X131772225Y-129933560D03*
%TD*%
D27*
%TO.C,MCU*%
X131758411Y-75305032D03*
X131758411Y-76551032D03*
X131758411Y-77821032D03*
X131758411Y-79091032D03*
X131758411Y-80361032D03*
X131758411Y-81631032D03*
X131758411Y-82901032D03*
X131758411Y-84171032D03*
X131758411Y-85441032D03*
X131758411Y-86711032D03*
X131758411Y-87981032D03*
X131758411Y-89251032D03*
X131758411Y-90545032D03*
X131758411Y-91815032D03*
D28*
X133523411Y-93065032D03*
X134793411Y-93065032D03*
X136063411Y-93065032D03*
X137333411Y-93065032D03*
X138603411Y-93065032D03*
X139873411Y-93065032D03*
X141143411Y-93065032D03*
X142413411Y-93065032D03*
X143683411Y-93065032D03*
X144953411Y-93065032D03*
X146223411Y-93065032D03*
X147493411Y-93065032D03*
D27*
X149258411Y-91815032D03*
X149258411Y-90545032D03*
X149258411Y-89275032D03*
X149258411Y-88005032D03*
X149258411Y-86735032D03*
X149258411Y-85465032D03*
X149258411Y-84195032D03*
X149258411Y-82925032D03*
X149258411Y-81655032D03*
X149258411Y-80385032D03*
X149258411Y-79115032D03*
X149258411Y-77845032D03*
X149258411Y-76575032D03*
X149258411Y-75305032D03*
D29*
X140401411Y-81634032D03*
X140408411Y-83028032D03*
X140401411Y-84428032D03*
X137601411Y-84428032D03*
X139008411Y-83025032D03*
X139001411Y-81631032D03*
X137601411Y-81634032D03*
X137608411Y-83028032D03*
X139001411Y-84425032D03*
%TD*%
D30*
%TO.C,CARD*%
X147776000Y-108244000D03*
X147776000Y-107144000D03*
X147776000Y-106044000D03*
X147776000Y-104944000D03*
X147776000Y-103844000D03*
X147776000Y-102744000D03*
X147776000Y-101644000D03*
X147776000Y-100894000D03*
X147776000Y-100194000D03*
D31*
X153976000Y-99294000D03*
X153976000Y-109494000D03*
X149526000Y-99294000D03*
X149526000Y-109494000D03*
%TD*%
D10*
%TO.C,R6*%
X145785493Y-108735514D03*
X144279493Y-108735514D03*
%TD*%
D25*
%TO.C,C6*%
X143572000Y-104545657D03*
X144972000Y-104545657D03*
%TD*%
D12*
%TO.C,R12*%
X154117167Y-130472031D03*
X154117167Y-128966031D03*
%TD*%
D10*
%TO.C,R7*%
X145782076Y-107310439D03*
X144276076Y-107310439D03*
%TD*%
D32*
%TO.C,Q2*%
X155789421Y-128431844D03*
X157689421Y-128431844D03*
X156739421Y-126431844D03*
%TD*%
D25*
%TO.C,C13*%
X146414319Y-126765111D03*
X145014319Y-126765111D03*
%TD*%
D12*
%TO.C,R11*%
X120977452Y-131291546D03*
X120977452Y-132797546D03*
%TD*%
D26*
%TO.C,H2*%
X161417000Y-116197358D03*
X161417000Y-113657358D03*
X161417000Y-111117358D03*
X161417000Y-108577358D03*
X161417000Y-106037358D03*
X161417000Y-103497358D03*
X161417000Y-100957358D03*
X161417000Y-98417358D03*
X161417000Y-95877358D03*
X161417000Y-93337358D03*
X161417000Y-90797358D03*
X161417000Y-88257358D03*
X161417000Y-85717358D03*
X161417000Y-83177358D03*
X161417000Y-80637358D03*
X161417000Y-78097358D03*
X161417000Y-75557358D03*
%TD*%
D25*
%TO.C,C8*%
X123570309Y-125687392D03*
X122170309Y-125687392D03*
%TD*%
%TO.C,C2*%
X125222000Y-80865115D03*
X126622000Y-80865115D03*
%TD*%
D10*
%TO.C,R8*%
X145787000Y-105918000D03*
X144281000Y-105918000D03*
%TD*%
%TO.C,R9*%
X145698297Y-101667878D03*
X144192297Y-101667878D03*
%TD*%
D12*
%TO.C,R1*%
X128236822Y-80765991D03*
X128236822Y-79259991D03*
%TD*%
D32*
%TO.C,Q3*%
X157678349Y-130914139D03*
X155778349Y-130914139D03*
X156728349Y-132914139D03*
%TD*%
D13*
%TO.C,D2*%
X143957130Y-130376583D03*
X143957130Y-132156583D03*
%TD*%
D12*
%TO.C,R4*%
X126637889Y-79277331D03*
X126637889Y-77771331D03*
%TD*%
D11*
%TO.C,C3*%
X123386822Y-76412991D03*
X123386822Y-77812991D03*
%TD*%
D32*
%TO.C,Q1*%
X139586822Y-104562991D03*
X137686822Y-104562991D03*
X138636822Y-106562991D03*
%TD*%
D10*
%TO.C,R3*%
X142589822Y-102562991D03*
X141083822Y-102562991D03*
%TD*%
D33*
%TO.C,GC9A1*%
X136636822Y-116206447D03*
X137336822Y-116206447D03*
X138036822Y-116206447D03*
X138736822Y-116206447D03*
X139436822Y-116206447D03*
X140136822Y-116206447D03*
X140836822Y-116206447D03*
X141536822Y-116206447D03*
X142236822Y-116206447D03*
X142936822Y-116206447D03*
X143636822Y-116206447D03*
X144336822Y-116206447D03*
%TD*%
M02*
